%TF.GenerationSoftware,KiCad,Pcbnew,(5.1.9-0-10_14)*%
%TF.CreationDate,2021-03-10T21:41:09+01:00*%
%TF.ProjectId,MC5000_Board,4d433530-3030-45f4-926f-6172642e6b69,rev?*%
%TF.SameCoordinates,Original*%
%TF.FileFunction,Copper,L2,Bot*%
%TF.FilePolarity,Positive*%
%FSLAX46Y46*%
G04 Gerber Fmt 4.6, Leading zero omitted, Abs format (unit mm)*
G04 Created by KiCad (PCBNEW (5.1.9-0-10_14)) date 2021-03-10 21:41:09*
%MOMM*%
%LPD*%
G01*
G04 APERTURE LIST*
%TA.AperFunction,ComponentPad*%
%ADD10C,1.600000*%
%TD*%
%TA.AperFunction,ComponentPad*%
%ADD11O,1.700000X1.700000*%
%TD*%
%TA.AperFunction,ComponentPad*%
%ADD12R,1.700000X1.700000*%
%TD*%
%TA.AperFunction,ComponentPad*%
%ADD13C,1.900000*%
%TD*%
%TA.AperFunction,ComponentPad*%
%ADD14C,1.450000*%
%TD*%
%TA.AperFunction,ViaPad*%
%ADD15C,0.800000*%
%TD*%
%TA.AperFunction,ViaPad*%
%ADD16C,0.600000*%
%TD*%
%TA.AperFunction,Conductor*%
%ADD17C,0.300000*%
%TD*%
%TA.AperFunction,Conductor*%
%ADD18C,0.250000*%
%TD*%
%TA.AperFunction,Conductor*%
%ADD19C,0.254000*%
%TD*%
%TA.AperFunction,Conductor*%
%ADD20C,0.100000*%
%TD*%
G04 APERTURE END LIST*
D10*
%TO.P,DS1,6*%
%TO.N,N/C*%
X82600000Y-61600000D03*
%TO.P,DS1,5*%
%TO.N,Net-(DS1-Pad5)*%
X80060000Y-61600000D03*
%TO.P,DS1,4*%
%TO.N,Net-(DS1-Pad4)*%
X77520000Y-61600000D03*
%TO.P,DS1,3*%
%TO.N,Net-(DS1-Pad3)*%
X74980000Y-61600000D03*
%TO.P,DS1,2*%
%TO.N,Net-(DS1-Pad2)*%
X72440000Y-61600000D03*
%TO.P,DS1,1*%
%TO.N,Net-(DS1-Pad1)*%
X69900000Y-61600000D03*
%TO.P,DS1,7*%
%TO.N,Net-(DS1-Pad7)*%
X82600000Y-47600000D03*
%TO.P,DS1,8*%
%TO.N,Net-(DS1-Pad8)*%
X80060000Y-47600000D03*
%TO.P,DS1,9*%
%TO.N,Net-(DS1-Pad9)*%
X77520000Y-47600000D03*
%TO.P,DS1,10*%
%TO.N,Net-(DS1-Pad10)*%
X74980000Y-47600000D03*
%TO.P,DS1,11*%
%TO.N,Net-(DS1-Pad11)*%
X72440000Y-47600000D03*
%TO.P,DS1,12*%
%TO.N,Net-(DS1-Pad12)*%
X69900000Y-47600000D03*
%TD*%
D11*
%TO.P,J25,5*%
%TO.N,LED_GREEN*%
X125200000Y-84460000D03*
%TO.P,J25,4*%
%TO.N,LED_YELLOW*%
X125200000Y-81920000D03*
%TO.P,J25,3*%
%TO.N,LED_RED*%
X125200000Y-79380000D03*
%TO.P,J25,2*%
%TO.N,BUZZER*%
X125200000Y-76840000D03*
D12*
%TO.P,J25,1*%
%TO.N,DISPLAY*%
X125200000Y-74300000D03*
%TD*%
D11*
%TO.P,J24,4*%
%TO.N,LIGHT_SENSOR*%
X125250000Y-98520000D03*
%TO.P,J24,3*%
%TO.N,TEMP_SENSOR*%
X125250000Y-95980000D03*
%TO.P,J24,2*%
%TO.N,SWITCH_2*%
X125250000Y-93440000D03*
D12*
%TO.P,J24,1*%
%TO.N,SWITCH_1*%
X125250000Y-90900000D03*
%TD*%
D11*
%TO.P,J23,4*%
%TO.N,GND*%
X132310000Y-56160000D03*
%TO.P,J23,3*%
%TO.N,Net-(J23-Pad3)*%
X132310000Y-58700000D03*
%TO.P,J23,2*%
%TO.N,Net-(J23-Pad2)*%
X132310000Y-61240000D03*
D12*
%TO.P,J23,1*%
%TO.N,Net-(J23-Pad1)*%
X132310000Y-63780000D03*
%TD*%
D11*
%TO.P,J22,4*%
%TO.N,Net-(J22-Pad4)*%
X124700000Y-63780000D03*
%TO.P,J22,3*%
%TO.N,BUZZER*%
X124700000Y-61240000D03*
%TO.P,J22,2*%
%TO.N,Net-(J22-Pad2)*%
X124700000Y-58700000D03*
D12*
%TO.P,J22,1*%
%TO.N,VCC*%
X124700000Y-56160000D03*
%TD*%
D11*
%TO.P,J21,4*%
%TO.N,GND*%
X110200000Y-89980000D03*
%TO.P,J21,3*%
%TO.N,TXD*%
X110200000Y-92520000D03*
%TO.P,J21,2*%
%TO.N,Net-(J21-Pad2)*%
X110200000Y-95060000D03*
D12*
%TO.P,J21,1*%
%TO.N,Net-(J21-Pad1)*%
X110200000Y-97600000D03*
%TD*%
D11*
%TO.P,J20,4*%
%TO.N,Net-(C10-Pad2)*%
X110420000Y-80900000D03*
%TO.P,J20,3*%
%TO.N,Net-(C9-Pad2)*%
X107880000Y-80900000D03*
%TO.P,J20,2*%
%TO.N,Net-(J19-Pad2)*%
X105340000Y-80900000D03*
D12*
%TO.P,J20,1*%
%TO.N,Net-(J19-Pad3)*%
X102800000Y-80900000D03*
%TD*%
D11*
%TO.P,J19,4*%
%TO.N,RXD*%
X102550000Y-97590000D03*
%TO.P,J19,3*%
%TO.N,Net-(J19-Pad3)*%
X102550000Y-95050000D03*
%TO.P,J19,2*%
%TO.N,Net-(J19-Pad2)*%
X102550000Y-92510000D03*
D12*
%TO.P,J19,1*%
%TO.N,VCC*%
X102550000Y-89970000D03*
%TD*%
D11*
%TO.P,J18,4*%
%TO.N,GND*%
X85300000Y-89880000D03*
%TO.P,J18,3*%
%TO.N,TXD*%
X85300000Y-92420000D03*
%TO.P,J18,2*%
%TO.N,Net-(J18-Pad2)*%
X85300000Y-94960000D03*
D12*
%TO.P,J18,1*%
%TO.N,Net-(J18-Pad1)*%
X85300000Y-97500000D03*
%TD*%
D11*
%TO.P,J17,4*%
%TO.N,Net-(C7-Pad2)*%
X85520000Y-80800000D03*
%TO.P,J17,3*%
%TO.N,Net-(C6-Pad2)*%
X82980000Y-80800000D03*
%TO.P,J17,2*%
%TO.N,Net-(J16-Pad2)*%
X80440000Y-80800000D03*
D12*
%TO.P,J17,1*%
%TO.N,Net-(J16-Pad3)*%
X77900000Y-80800000D03*
%TD*%
D11*
%TO.P,J16,4*%
%TO.N,RXD*%
X77650000Y-97490000D03*
%TO.P,J16,3*%
%TO.N,Net-(J16-Pad3)*%
X77650000Y-94950000D03*
%TO.P,J16,2*%
%TO.N,Net-(J16-Pad2)*%
X77650000Y-92410000D03*
D12*
%TO.P,J16,1*%
%TO.N,VCC*%
X77650000Y-89870000D03*
%TD*%
D11*
%TO.P,J15,4*%
%TO.N,GND*%
X114300000Y-56120000D03*
%TO.P,J15,3*%
%TO.N,Net-(J15-Pad3)*%
X114300000Y-58660000D03*
%TO.P,J15,2*%
%TO.N,Net-(J15-Pad2)*%
X114300000Y-61200000D03*
D12*
%TO.P,J15,1*%
%TO.N,Net-(J15-Pad1)*%
X114300000Y-63740000D03*
%TD*%
D11*
%TO.P,J14,4*%
%TO.N,Net-(J14-Pad4)*%
X106680000Y-63740000D03*
%TO.P,J14,3*%
%TO.N,DISPLAY*%
X106680000Y-61200000D03*
%TO.P,J14,2*%
%TO.N,Net-(J14-Pad2)*%
X106680000Y-58660000D03*
D12*
%TO.P,J14,1*%
%TO.N,VCC*%
X106680000Y-56120000D03*
%TD*%
D13*
%TO.P,J1,6*%
%TO.N,GND*%
X51562500Y-115200000D03*
X51562500Y-108200000D03*
D14*
X54262500Y-114200000D03*
X54262500Y-109200000D03*
%TD*%
D15*
%TO.N,GND*%
X63400000Y-107800000D03*
X63600000Y-115100000D03*
X104200000Y-44900000D03*
X104200000Y-43800000D03*
D16*
X113550000Y-48700000D03*
X115950000Y-48800000D03*
X115950000Y-52400000D03*
X110742800Y-57480200D03*
X110742800Y-60230200D03*
X110742800Y-62930200D03*
X75400000Y-93700000D03*
X80600000Y-97600000D03*
X82200000Y-97600000D03*
X100300000Y-97600000D03*
X99100000Y-97600000D03*
X100300000Y-93700000D03*
X115200000Y-92400000D03*
X112000000Y-94600000D03*
X90300000Y-92800000D03*
X87100000Y-94600000D03*
X67600000Y-53300000D03*
X68800000Y-53300000D03*
X67700000Y-50400000D03*
X68800000Y-50400000D03*
X117900000Y-101150000D03*
X118850000Y-101150000D03*
X123750000Y-107150000D03*
X124550000Y-107150000D03*
X89400000Y-107850000D03*
X90300000Y-107850000D03*
X123700000Y-109000000D03*
X124550000Y-109000000D03*
X119100000Y-74550000D03*
X119050000Y-77100000D03*
X85000000Y-45000000D03*
X86000000Y-45000000D03*
X87000000Y-45000000D03*
X81000000Y-45000000D03*
X79000000Y-45000000D03*
X76000000Y-45000000D03*
X75000000Y-45000000D03*
X71000000Y-45000000D03*
X86000000Y-48000000D03*
X87000000Y-48000000D03*
X88000000Y-48000000D03*
X88000000Y-54000000D03*
X89000000Y-54000000D03*
X90000000Y-54000000D03*
X88000000Y-57000000D03*
X89000000Y-57000000D03*
X90000000Y-57000000D03*
X88000000Y-60000000D03*
X89000000Y-60000000D03*
X90000000Y-60000000D03*
X63400000Y-110100000D03*
X63400000Y-111700000D03*
X109580000Y-52130000D03*
X105240000Y-52190000D03*
X105240000Y-51370000D03*
X57800000Y-53170000D03*
X57810000Y-54110000D03*
X58860000Y-113210000D03*
D15*
%TO.N,VCC*%
X58300000Y-110400000D03*
X107600000Y-44550000D03*
X56300000Y-110400000D03*
X73000000Y-110600000D03*
D16*
%TO.N,RXD*%
X58300000Y-112400000D03*
%TO.N,TXD*%
X58300000Y-111400000D03*
%TO.N,Net-(J15-Pad3)*%
X105899994Y-50284199D03*
%TD*%
D17*
%TO.N,VCC*%
X102550000Y-89970000D02*
X98370000Y-89970000D01*
X98370000Y-89970000D02*
X94400000Y-86000000D01*
X81520000Y-86000000D02*
X77650000Y-89870000D01*
X94400000Y-86000000D02*
X81520000Y-86000000D01*
X124700000Y-56160000D02*
X124700000Y-56200000D01*
X56300000Y-110400000D02*
X58300000Y-110400000D01*
X56300000Y-110400000D02*
X56300000Y-112400000D01*
X56300000Y-112400000D02*
X57900000Y-114000000D01*
X57900000Y-114000000D02*
X69600000Y-114000000D01*
X69600000Y-114000000D02*
X73000000Y-110600000D01*
X53500000Y-110400000D02*
X56300000Y-110400000D01*
X53000000Y-109900000D02*
X53500000Y-110400000D01*
X77650000Y-89870000D02*
X53070000Y-89870000D01*
X53000000Y-89850000D02*
X53000000Y-109900000D01*
X74400000Y-52700000D02*
X53000000Y-74100000D01*
X103300000Y-52700000D02*
X74400000Y-52700000D01*
X53000000Y-74100000D02*
X53000000Y-89900000D01*
X106720000Y-56120000D02*
X103300000Y-52700000D01*
X107420000Y-56120000D02*
X106720000Y-56120000D01*
X107450000Y-44550000D02*
X107600000Y-44550000D01*
X103300000Y-48700000D02*
X107450000Y-44550000D01*
X103300000Y-52700000D02*
X103300000Y-48700000D01*
X124700000Y-56100000D02*
X124700000Y-56160000D01*
X113150000Y-44550000D02*
X124700000Y-56100000D01*
X107600000Y-44550000D02*
X113150000Y-44550000D01*
D18*
%TO.N,RXD*%
X102410000Y-97590000D02*
X102550000Y-97590000D01*
X79200000Y-99000000D02*
X101000000Y-99000000D01*
X101000000Y-99000000D02*
X102410000Y-97590000D01*
X77690000Y-97490000D02*
X79200000Y-99000000D01*
X77650000Y-97490000D02*
X77690000Y-97490000D01*
X60250000Y-109250000D02*
X60250000Y-111250000D01*
X72010000Y-97490000D02*
X60250000Y-109250000D01*
X59100000Y-112400000D02*
X58300000Y-112400000D01*
X60250000Y-111250000D02*
X59100000Y-112400000D01*
X72010000Y-97490000D02*
X77650000Y-97490000D01*
%TO.N,TXD*%
X110200000Y-92520000D02*
X107320000Y-92520000D01*
X86385001Y-91334999D02*
X85300000Y-92420000D01*
X106134999Y-91334999D02*
X86385001Y-91334999D01*
X107320000Y-92520000D02*
X106134999Y-91334999D01*
X81520000Y-96200000D02*
X85300000Y-92420000D01*
X76500000Y-96200000D02*
X81520000Y-96200000D01*
X75800000Y-96900000D02*
X76500000Y-96200000D01*
X59600000Y-109100000D02*
X71800000Y-96900000D01*
X59600000Y-110800000D02*
X59600000Y-109100000D01*
X59000000Y-111400000D02*
X59600000Y-110800000D01*
X58300000Y-111400000D02*
X59000000Y-111400000D01*
X71800000Y-96900000D02*
X75800000Y-96900000D01*
%TO.N,Net-(J15-Pad3)*%
X114260000Y-58660000D02*
X105899994Y-50299994D01*
X105899994Y-50299994D02*
X105899994Y-50284199D01*
%TD*%
D19*
%TO.N,GND*%
X145728081Y-40953497D02*
X146433147Y-41146381D01*
X147092916Y-41461075D01*
X147686527Y-41887628D01*
X148195221Y-42412559D01*
X148602920Y-43019279D01*
X148896734Y-43688605D01*
X149069011Y-44406191D01*
X149115000Y-45032447D01*
X149115001Y-115460579D01*
X149046503Y-116228082D01*
X148853619Y-116933147D01*
X148538926Y-117592914D01*
X148211000Y-118049271D01*
X148211000Y-117880727D01*
X148164462Y-117646764D01*
X148073175Y-117426376D01*
X147940646Y-117228032D01*
X147771968Y-117059354D01*
X147573624Y-116926825D01*
X147353236Y-116835538D01*
X147119273Y-116789000D01*
X146880727Y-116789000D01*
X146646764Y-116835538D01*
X146426376Y-116926825D01*
X146228032Y-117059354D01*
X146059354Y-117228032D01*
X145926825Y-117426376D01*
X145835538Y-117646764D01*
X145789000Y-117880727D01*
X145789000Y-118119273D01*
X145835538Y-118353236D01*
X145926825Y-118573624D01*
X146059354Y-118771968D01*
X146228032Y-118940646D01*
X146426376Y-119073175D01*
X146646764Y-119164462D01*
X146780103Y-119190985D01*
X146311395Y-119396734D01*
X145593810Y-119569011D01*
X144967554Y-119615000D01*
X55039409Y-119615000D01*
X54271918Y-119546503D01*
X53566853Y-119353619D01*
X53224122Y-119190144D01*
X53353236Y-119164462D01*
X53573624Y-119073175D01*
X53771968Y-118940646D01*
X53940646Y-118771968D01*
X54073175Y-118573624D01*
X54164462Y-118353236D01*
X54211000Y-118119273D01*
X54211000Y-117880727D01*
X54164462Y-117646764D01*
X54073175Y-117426376D01*
X53940646Y-117228032D01*
X53771968Y-117059354D01*
X53573624Y-116926825D01*
X53353236Y-116835538D01*
X53119273Y-116789000D01*
X52880727Y-116789000D01*
X52646764Y-116835538D01*
X52426376Y-116926825D01*
X52228032Y-117059354D01*
X52059354Y-117228032D01*
X51926825Y-117426376D01*
X51835538Y-117646764D01*
X51789000Y-117880727D01*
X51789000Y-118063960D01*
X51397081Y-117480723D01*
X51103266Y-116811395D01*
X51079436Y-116712136D01*
X51315373Y-116773379D01*
X51627073Y-116791359D01*
X51936291Y-116748184D01*
X52231144Y-116645513D01*
X52392921Y-116559042D01*
X52482647Y-116299752D01*
X51562500Y-115379605D01*
X51548358Y-115393748D01*
X51368753Y-115214143D01*
X51382895Y-115200000D01*
X51742105Y-115200000D01*
X52662252Y-116120147D01*
X52921542Y-116030421D01*
X53057435Y-115749329D01*
X53135879Y-115447127D01*
X53153645Y-115139133D01*
X53502972Y-115139133D01*
X53565465Y-115375450D01*
X53808178Y-115488850D01*
X54068349Y-115552719D01*
X54335982Y-115564604D01*
X54600791Y-115524048D01*
X54852600Y-115432609D01*
X54959535Y-115375450D01*
X55022028Y-115139133D01*
X54262500Y-114379605D01*
X53502972Y-115139133D01*
X53153645Y-115139133D01*
X53153859Y-115135427D01*
X53121858Y-114906240D01*
X53323367Y-114959528D01*
X54082895Y-114200000D01*
X54442105Y-114200000D01*
X55201633Y-114959528D01*
X55437950Y-114897035D01*
X55551350Y-114654322D01*
X55615219Y-114394151D01*
X55627104Y-114126518D01*
X55586548Y-113861709D01*
X55495109Y-113609900D01*
X55437950Y-113502965D01*
X55201633Y-113440472D01*
X54442105Y-114200000D01*
X54082895Y-114200000D01*
X53323367Y-113440472D01*
X53087050Y-113502965D01*
X52973650Y-113745678D01*
X52909781Y-114005849D01*
X52897896Y-114273482D01*
X52912114Y-114366316D01*
X52662252Y-114279853D01*
X51742105Y-115200000D01*
X51382895Y-115200000D01*
X51368753Y-115185858D01*
X51548358Y-115006253D01*
X51562500Y-115020395D01*
X52482647Y-114100248D01*
X52392921Y-113840958D01*
X52111829Y-113705065D01*
X51809627Y-113626621D01*
X51497927Y-113608641D01*
X51188709Y-113651816D01*
X50893856Y-113754487D01*
X50885000Y-113759221D01*
X50885000Y-113260867D01*
X53502972Y-113260867D01*
X54262500Y-114020395D01*
X55022028Y-113260867D01*
X54959535Y-113024550D01*
X54716822Y-112911150D01*
X54456651Y-112847281D01*
X54189018Y-112835396D01*
X53924209Y-112875952D01*
X53672400Y-112967391D01*
X53565465Y-113024550D01*
X53502972Y-113260867D01*
X50885000Y-113260867D01*
X50885000Y-109632971D01*
X51013171Y-109694935D01*
X51315373Y-109773379D01*
X51627073Y-109791359D01*
X51936291Y-109748184D01*
X52215001Y-109651134D01*
X52215001Y-109861437D01*
X52211203Y-109900000D01*
X52226359Y-110053886D01*
X52271246Y-110201859D01*
X52271247Y-110201860D01*
X52344139Y-110338233D01*
X52384690Y-110387644D01*
X52417655Y-110427812D01*
X52417659Y-110427816D01*
X52442237Y-110457764D01*
X52472186Y-110482343D01*
X52917649Y-110927805D01*
X52942236Y-110957764D01*
X53061767Y-111055862D01*
X53198140Y-111128754D01*
X53346113Y-111173642D01*
X53421026Y-111181020D01*
X53461439Y-111185000D01*
X53461444Y-111185000D01*
X53500000Y-111188797D01*
X53538556Y-111185000D01*
X55515000Y-111185000D01*
X55515001Y-112361437D01*
X55511203Y-112400000D01*
X55526359Y-112553886D01*
X55571246Y-112701859D01*
X55571247Y-112701860D01*
X55644139Y-112838233D01*
X55651565Y-112847281D01*
X55717655Y-112927812D01*
X55717659Y-112927816D01*
X55742237Y-112957764D01*
X55772185Y-112982342D01*
X57317653Y-114527810D01*
X57342236Y-114557764D01*
X57461767Y-114655862D01*
X57557993Y-114707295D01*
X57598140Y-114728754D01*
X57746113Y-114773642D01*
X57821026Y-114781020D01*
X57861439Y-114785000D01*
X57861444Y-114785000D01*
X57900000Y-114788797D01*
X57938556Y-114785000D01*
X69561447Y-114785000D01*
X69600000Y-114788797D01*
X69638553Y-114785000D01*
X69638561Y-114785000D01*
X69753887Y-114773641D01*
X69901860Y-114728754D01*
X70038233Y-114655862D01*
X70157764Y-114557764D01*
X70182347Y-114527810D01*
X73075158Y-111635000D01*
X73101939Y-111635000D01*
X73301898Y-111595226D01*
X73490256Y-111517205D01*
X73659774Y-111403937D01*
X73803937Y-111259774D01*
X73917205Y-111090256D01*
X73995226Y-110901898D01*
X74035000Y-110701939D01*
X74035000Y-110498061D01*
X73995226Y-110298102D01*
X73917205Y-110109744D01*
X73803937Y-109940226D01*
X73659774Y-109796063D01*
X73490256Y-109682795D01*
X73301898Y-109604774D01*
X73101939Y-109565000D01*
X72898061Y-109565000D01*
X72698102Y-109604774D01*
X72509744Y-109682795D01*
X72340226Y-109796063D01*
X72196063Y-109940226D01*
X72082795Y-110109744D01*
X72004774Y-110298102D01*
X71965000Y-110498061D01*
X71965000Y-110524842D01*
X69274843Y-113215000D01*
X58763222Y-113215000D01*
X58845535Y-113160000D01*
X59062678Y-113160000D01*
X59100000Y-113163676D01*
X59137322Y-113160000D01*
X59137333Y-113160000D01*
X59248986Y-113149003D01*
X59392247Y-113105546D01*
X59524276Y-113034974D01*
X59640001Y-112940001D01*
X59663804Y-112910997D01*
X60761003Y-111813799D01*
X60790001Y-111790001D01*
X60884974Y-111674276D01*
X60955546Y-111542247D01*
X60999003Y-111398986D01*
X61010000Y-111287333D01*
X61013677Y-111250000D01*
X61010000Y-111212667D01*
X61010000Y-109564801D01*
X72324803Y-98250000D01*
X76371822Y-98250000D01*
X76496525Y-98436632D01*
X76703368Y-98643475D01*
X76946589Y-98805990D01*
X77216842Y-98917932D01*
X77503740Y-98975000D01*
X77796260Y-98975000D01*
X78049771Y-98924573D01*
X78636205Y-99511008D01*
X78659999Y-99540001D01*
X78688992Y-99563795D01*
X78688996Y-99563799D01*
X78759685Y-99621811D01*
X78775724Y-99634974D01*
X78907753Y-99705546D01*
X79051014Y-99749003D01*
X79162667Y-99760000D01*
X79162676Y-99760000D01*
X79199999Y-99763676D01*
X79237322Y-99760000D01*
X100962678Y-99760000D01*
X101000000Y-99763676D01*
X101037322Y-99760000D01*
X101037333Y-99760000D01*
X101148986Y-99749003D01*
X101292247Y-99705546D01*
X101424276Y-99634974D01*
X101540001Y-99540001D01*
X101563804Y-99510997D01*
X102074435Y-99000366D01*
X102116842Y-99017932D01*
X102403740Y-99075000D01*
X102696260Y-99075000D01*
X102983158Y-99017932D01*
X103253411Y-98905990D01*
X103496632Y-98743475D01*
X103703475Y-98536632D01*
X103865990Y-98293411D01*
X103977932Y-98023158D01*
X104035000Y-97736260D01*
X104035000Y-97443740D01*
X103977932Y-97156842D01*
X103865990Y-96886589D01*
X103703475Y-96643368D01*
X103496632Y-96436525D01*
X103322240Y-96320000D01*
X103496632Y-96203475D01*
X103703475Y-95996632D01*
X103865990Y-95753411D01*
X103977932Y-95483158D01*
X104035000Y-95196260D01*
X104035000Y-94903740D01*
X103977932Y-94616842D01*
X103865990Y-94346589D01*
X103703475Y-94103368D01*
X103496632Y-93896525D01*
X103322240Y-93780000D01*
X103496632Y-93663475D01*
X103703475Y-93456632D01*
X103865990Y-93213411D01*
X103977932Y-92943158D01*
X104035000Y-92656260D01*
X104035000Y-92363740D01*
X103981544Y-92094999D01*
X105820198Y-92094999D01*
X106756205Y-93031008D01*
X106779999Y-93060001D01*
X106808992Y-93083795D01*
X106808996Y-93083799D01*
X106845079Y-93113411D01*
X106895724Y-93154974D01*
X107027753Y-93225546D01*
X107171014Y-93269003D01*
X107282667Y-93280000D01*
X107282676Y-93280000D01*
X107319999Y-93283676D01*
X107357322Y-93280000D01*
X108921822Y-93280000D01*
X109046525Y-93466632D01*
X109253368Y-93673475D01*
X109427760Y-93790000D01*
X109253368Y-93906525D01*
X109046525Y-94113368D01*
X108884010Y-94356589D01*
X108772068Y-94626842D01*
X108715000Y-94913740D01*
X108715000Y-95206260D01*
X108772068Y-95493158D01*
X108884010Y-95763411D01*
X109046525Y-96006632D01*
X109178380Y-96138487D01*
X109105820Y-96160498D01*
X108995506Y-96219463D01*
X108898815Y-96298815D01*
X108819463Y-96395506D01*
X108760498Y-96505820D01*
X108724188Y-96625518D01*
X108711928Y-96750000D01*
X108711928Y-98450000D01*
X108724188Y-98574482D01*
X108760498Y-98694180D01*
X108819463Y-98804494D01*
X108898815Y-98901185D01*
X108995506Y-98980537D01*
X109105820Y-99039502D01*
X109225518Y-99075812D01*
X109350000Y-99088072D01*
X111050000Y-99088072D01*
X111174482Y-99075812D01*
X111294180Y-99039502D01*
X111404494Y-98980537D01*
X111501185Y-98901185D01*
X111580537Y-98804494D01*
X111639502Y-98694180D01*
X111675812Y-98574482D01*
X111688072Y-98450000D01*
X111688072Y-96750000D01*
X111675812Y-96625518D01*
X111639502Y-96505820D01*
X111580537Y-96395506D01*
X111501185Y-96298815D01*
X111404494Y-96219463D01*
X111294180Y-96160498D01*
X111221620Y-96138487D01*
X111353475Y-96006632D01*
X111515990Y-95763411D01*
X111627932Y-95493158D01*
X111685000Y-95206260D01*
X111685000Y-94913740D01*
X111627932Y-94626842D01*
X111515990Y-94356589D01*
X111353475Y-94113368D01*
X111146632Y-93906525D01*
X110972240Y-93790000D01*
X111146632Y-93673475D01*
X111353475Y-93466632D01*
X111515990Y-93223411D01*
X111627932Y-92953158D01*
X111685000Y-92666260D01*
X111685000Y-92373740D01*
X111627932Y-92086842D01*
X111515990Y-91816589D01*
X111353475Y-91573368D01*
X111146632Y-91366525D01*
X110964466Y-91244805D01*
X111081355Y-91175178D01*
X111297588Y-90980269D01*
X111471641Y-90746920D01*
X111596825Y-90484099D01*
X111641476Y-90336890D01*
X111520155Y-90107000D01*
X110327000Y-90107000D01*
X110327000Y-90127000D01*
X110073000Y-90127000D01*
X110073000Y-90107000D01*
X108879845Y-90107000D01*
X108758524Y-90336890D01*
X108803175Y-90484099D01*
X108928359Y-90746920D01*
X109102412Y-90980269D01*
X109318645Y-91175178D01*
X109435534Y-91244805D01*
X109253368Y-91366525D01*
X109046525Y-91573368D01*
X108921822Y-91760000D01*
X107634803Y-91760000D01*
X106698802Y-90824001D01*
X106675000Y-90794998D01*
X106559275Y-90700025D01*
X106427246Y-90629453D01*
X106283985Y-90585996D01*
X106172332Y-90574999D01*
X106172321Y-90574999D01*
X106134999Y-90571323D01*
X106097677Y-90574999D01*
X104038072Y-90574999D01*
X104038072Y-90050000D01*
X123761928Y-90050000D01*
X123761928Y-91750000D01*
X123774188Y-91874482D01*
X123810498Y-91994180D01*
X123869463Y-92104494D01*
X123948815Y-92201185D01*
X124045506Y-92280537D01*
X124155820Y-92339502D01*
X124228380Y-92361513D01*
X124096525Y-92493368D01*
X123934010Y-92736589D01*
X123822068Y-93006842D01*
X123765000Y-93293740D01*
X123765000Y-93586260D01*
X123822068Y-93873158D01*
X123934010Y-94143411D01*
X124096525Y-94386632D01*
X124303368Y-94593475D01*
X124477760Y-94710000D01*
X124303368Y-94826525D01*
X124096525Y-95033368D01*
X123934010Y-95276589D01*
X123822068Y-95546842D01*
X123765000Y-95833740D01*
X123765000Y-96126260D01*
X123822068Y-96413158D01*
X123934010Y-96683411D01*
X124096525Y-96926632D01*
X124303368Y-97133475D01*
X124477760Y-97250000D01*
X124303368Y-97366525D01*
X124096525Y-97573368D01*
X123934010Y-97816589D01*
X123822068Y-98086842D01*
X123765000Y-98373740D01*
X123765000Y-98666260D01*
X123822068Y-98953158D01*
X123934010Y-99223411D01*
X124096525Y-99466632D01*
X124303368Y-99673475D01*
X124546589Y-99835990D01*
X124816842Y-99947932D01*
X125103740Y-100005000D01*
X125396260Y-100005000D01*
X125683158Y-99947932D01*
X125953411Y-99835990D01*
X126196632Y-99673475D01*
X126403475Y-99466632D01*
X126565990Y-99223411D01*
X126677932Y-98953158D01*
X126735000Y-98666260D01*
X126735000Y-98373740D01*
X126677932Y-98086842D01*
X126565990Y-97816589D01*
X126403475Y-97573368D01*
X126196632Y-97366525D01*
X126022240Y-97250000D01*
X126196632Y-97133475D01*
X126403475Y-96926632D01*
X126565990Y-96683411D01*
X126677932Y-96413158D01*
X126735000Y-96126260D01*
X126735000Y-95833740D01*
X126677932Y-95546842D01*
X126565990Y-95276589D01*
X126403475Y-95033368D01*
X126196632Y-94826525D01*
X126022240Y-94710000D01*
X126196632Y-94593475D01*
X126403475Y-94386632D01*
X126565990Y-94143411D01*
X126677932Y-93873158D01*
X126735000Y-93586260D01*
X126735000Y-93293740D01*
X126677932Y-93006842D01*
X126565990Y-92736589D01*
X126403475Y-92493368D01*
X126271620Y-92361513D01*
X126344180Y-92339502D01*
X126454494Y-92280537D01*
X126551185Y-92201185D01*
X126630537Y-92104494D01*
X126689502Y-91994180D01*
X126725812Y-91874482D01*
X126738072Y-91750000D01*
X126738072Y-90050000D01*
X126725812Y-89925518D01*
X126689502Y-89805820D01*
X126630537Y-89695506D01*
X126551185Y-89598815D01*
X126454494Y-89519463D01*
X126344180Y-89460498D01*
X126224482Y-89424188D01*
X126100000Y-89411928D01*
X124400000Y-89411928D01*
X124275518Y-89424188D01*
X124155820Y-89460498D01*
X124045506Y-89519463D01*
X123948815Y-89598815D01*
X123869463Y-89695506D01*
X123810498Y-89805820D01*
X123774188Y-89925518D01*
X123761928Y-90050000D01*
X104038072Y-90050000D01*
X104038072Y-89623110D01*
X108758524Y-89623110D01*
X108879845Y-89853000D01*
X110073000Y-89853000D01*
X110073000Y-88659186D01*
X110327000Y-88659186D01*
X110327000Y-89853000D01*
X111520155Y-89853000D01*
X111641476Y-89623110D01*
X111596825Y-89475901D01*
X111471641Y-89213080D01*
X111297588Y-88979731D01*
X111081355Y-88784822D01*
X110831252Y-88635843D01*
X110556891Y-88538519D01*
X110327000Y-88659186D01*
X110073000Y-88659186D01*
X109843109Y-88538519D01*
X109568748Y-88635843D01*
X109318645Y-88784822D01*
X109102412Y-88979731D01*
X108928359Y-89213080D01*
X108803175Y-89475901D01*
X108758524Y-89623110D01*
X104038072Y-89623110D01*
X104038072Y-89120000D01*
X104025812Y-88995518D01*
X103989502Y-88875820D01*
X103930537Y-88765506D01*
X103851185Y-88668815D01*
X103754494Y-88589463D01*
X103644180Y-88530498D01*
X103524482Y-88494188D01*
X103400000Y-88481928D01*
X101700000Y-88481928D01*
X101575518Y-88494188D01*
X101455820Y-88530498D01*
X101345506Y-88589463D01*
X101248815Y-88668815D01*
X101169463Y-88765506D01*
X101110498Y-88875820D01*
X101074188Y-88995518D01*
X101061928Y-89120000D01*
X101061928Y-89185000D01*
X98695157Y-89185000D01*
X94982347Y-85472190D01*
X94957764Y-85442236D01*
X94838233Y-85344138D01*
X94701860Y-85271246D01*
X94553887Y-85226359D01*
X94438561Y-85215000D01*
X94438553Y-85215000D01*
X94400000Y-85211203D01*
X94361447Y-85215000D01*
X81558552Y-85215000D01*
X81519999Y-85211203D01*
X81481446Y-85215000D01*
X81481439Y-85215000D01*
X81380490Y-85224943D01*
X81366112Y-85226359D01*
X81331672Y-85236806D01*
X81218140Y-85271246D01*
X81081767Y-85344138D01*
X81009753Y-85403239D01*
X80992187Y-85417655D01*
X80992184Y-85417658D01*
X80962236Y-85442236D01*
X80937658Y-85472184D01*
X78027915Y-88381928D01*
X76800000Y-88381928D01*
X76675518Y-88394188D01*
X76555820Y-88430498D01*
X76445506Y-88489463D01*
X76348815Y-88568815D01*
X76269463Y-88665506D01*
X76210498Y-88775820D01*
X76174188Y-88895518D01*
X76161928Y-89020000D01*
X76161928Y-89085000D01*
X53785000Y-89085000D01*
X53785000Y-79950000D01*
X76411928Y-79950000D01*
X76411928Y-81650000D01*
X76424188Y-81774482D01*
X76460498Y-81894180D01*
X76519463Y-82004494D01*
X76598815Y-82101185D01*
X76695506Y-82180537D01*
X76805820Y-82239502D01*
X76925518Y-82275812D01*
X77050000Y-82288072D01*
X78750000Y-82288072D01*
X78874482Y-82275812D01*
X78994180Y-82239502D01*
X79104494Y-82180537D01*
X79201185Y-82101185D01*
X79280537Y-82004494D01*
X79339502Y-81894180D01*
X79361513Y-81821620D01*
X79493368Y-81953475D01*
X79736589Y-82115990D01*
X80006842Y-82227932D01*
X80293740Y-82285000D01*
X80586260Y-82285000D01*
X80873158Y-82227932D01*
X81143411Y-82115990D01*
X81386632Y-81953475D01*
X81593475Y-81746632D01*
X81710000Y-81572240D01*
X81826525Y-81746632D01*
X82033368Y-81953475D01*
X82276589Y-82115990D01*
X82546842Y-82227932D01*
X82833740Y-82285000D01*
X83126260Y-82285000D01*
X83413158Y-82227932D01*
X83683411Y-82115990D01*
X83926632Y-81953475D01*
X84133475Y-81746632D01*
X84250000Y-81572240D01*
X84366525Y-81746632D01*
X84573368Y-81953475D01*
X84816589Y-82115990D01*
X85086842Y-82227932D01*
X85373740Y-82285000D01*
X85666260Y-82285000D01*
X85953158Y-82227932D01*
X86223411Y-82115990D01*
X86466632Y-81953475D01*
X86673475Y-81746632D01*
X86835990Y-81503411D01*
X86947932Y-81233158D01*
X87005000Y-80946260D01*
X87005000Y-80653740D01*
X86947932Y-80366842D01*
X86835990Y-80096589D01*
X86804861Y-80050000D01*
X101311928Y-80050000D01*
X101311928Y-81750000D01*
X101324188Y-81874482D01*
X101360498Y-81994180D01*
X101419463Y-82104494D01*
X101498815Y-82201185D01*
X101595506Y-82280537D01*
X101705820Y-82339502D01*
X101825518Y-82375812D01*
X101950000Y-82388072D01*
X103650000Y-82388072D01*
X103774482Y-82375812D01*
X103894180Y-82339502D01*
X104004494Y-82280537D01*
X104101185Y-82201185D01*
X104180537Y-82104494D01*
X104239502Y-81994180D01*
X104261513Y-81921620D01*
X104393368Y-82053475D01*
X104636589Y-82215990D01*
X104906842Y-82327932D01*
X105193740Y-82385000D01*
X105486260Y-82385000D01*
X105773158Y-82327932D01*
X106043411Y-82215990D01*
X106286632Y-82053475D01*
X106493475Y-81846632D01*
X106610000Y-81672240D01*
X106726525Y-81846632D01*
X106933368Y-82053475D01*
X107176589Y-82215990D01*
X107446842Y-82327932D01*
X107733740Y-82385000D01*
X108026260Y-82385000D01*
X108313158Y-82327932D01*
X108583411Y-82215990D01*
X108826632Y-82053475D01*
X109033475Y-81846632D01*
X109150000Y-81672240D01*
X109266525Y-81846632D01*
X109473368Y-82053475D01*
X109716589Y-82215990D01*
X109986842Y-82327932D01*
X110273740Y-82385000D01*
X110566260Y-82385000D01*
X110853158Y-82327932D01*
X111123411Y-82215990D01*
X111366632Y-82053475D01*
X111573475Y-81846632D01*
X111735990Y-81603411D01*
X111847932Y-81333158D01*
X111905000Y-81046260D01*
X111905000Y-80753740D01*
X111847932Y-80466842D01*
X111735990Y-80196589D01*
X111573475Y-79953368D01*
X111366632Y-79746525D01*
X111123411Y-79584010D01*
X110853158Y-79472068D01*
X110566260Y-79415000D01*
X110273740Y-79415000D01*
X109986842Y-79472068D01*
X109716589Y-79584010D01*
X109473368Y-79746525D01*
X109266525Y-79953368D01*
X109150000Y-80127760D01*
X109033475Y-79953368D01*
X108826632Y-79746525D01*
X108583411Y-79584010D01*
X108313158Y-79472068D01*
X108026260Y-79415000D01*
X107733740Y-79415000D01*
X107446842Y-79472068D01*
X107176589Y-79584010D01*
X106933368Y-79746525D01*
X106726525Y-79953368D01*
X106610000Y-80127760D01*
X106493475Y-79953368D01*
X106286632Y-79746525D01*
X106043411Y-79584010D01*
X105773158Y-79472068D01*
X105486260Y-79415000D01*
X105193740Y-79415000D01*
X104906842Y-79472068D01*
X104636589Y-79584010D01*
X104393368Y-79746525D01*
X104261513Y-79878380D01*
X104239502Y-79805820D01*
X104180537Y-79695506D01*
X104101185Y-79598815D01*
X104004494Y-79519463D01*
X103894180Y-79460498D01*
X103774482Y-79424188D01*
X103650000Y-79411928D01*
X101950000Y-79411928D01*
X101825518Y-79424188D01*
X101705820Y-79460498D01*
X101595506Y-79519463D01*
X101498815Y-79598815D01*
X101419463Y-79695506D01*
X101360498Y-79805820D01*
X101324188Y-79925518D01*
X101311928Y-80050000D01*
X86804861Y-80050000D01*
X86673475Y-79853368D01*
X86466632Y-79646525D01*
X86223411Y-79484010D01*
X85953158Y-79372068D01*
X85666260Y-79315000D01*
X85373740Y-79315000D01*
X85086842Y-79372068D01*
X84816589Y-79484010D01*
X84573368Y-79646525D01*
X84366525Y-79853368D01*
X84250000Y-80027760D01*
X84133475Y-79853368D01*
X83926632Y-79646525D01*
X83683411Y-79484010D01*
X83413158Y-79372068D01*
X83126260Y-79315000D01*
X82833740Y-79315000D01*
X82546842Y-79372068D01*
X82276589Y-79484010D01*
X82033368Y-79646525D01*
X81826525Y-79853368D01*
X81710000Y-80027760D01*
X81593475Y-79853368D01*
X81386632Y-79646525D01*
X81143411Y-79484010D01*
X80873158Y-79372068D01*
X80586260Y-79315000D01*
X80293740Y-79315000D01*
X80006842Y-79372068D01*
X79736589Y-79484010D01*
X79493368Y-79646525D01*
X79361513Y-79778380D01*
X79339502Y-79705820D01*
X79280537Y-79595506D01*
X79201185Y-79498815D01*
X79104494Y-79419463D01*
X78994180Y-79360498D01*
X78874482Y-79324188D01*
X78750000Y-79311928D01*
X77050000Y-79311928D01*
X76925518Y-79324188D01*
X76805820Y-79360498D01*
X76695506Y-79419463D01*
X76598815Y-79498815D01*
X76519463Y-79595506D01*
X76460498Y-79705820D01*
X76424188Y-79825518D01*
X76411928Y-79950000D01*
X53785000Y-79950000D01*
X53785000Y-74425157D01*
X54760157Y-73450000D01*
X123711928Y-73450000D01*
X123711928Y-75150000D01*
X123724188Y-75274482D01*
X123760498Y-75394180D01*
X123819463Y-75504494D01*
X123898815Y-75601185D01*
X123995506Y-75680537D01*
X124105820Y-75739502D01*
X124178380Y-75761513D01*
X124046525Y-75893368D01*
X123884010Y-76136589D01*
X123772068Y-76406842D01*
X123715000Y-76693740D01*
X123715000Y-76986260D01*
X123772068Y-77273158D01*
X123884010Y-77543411D01*
X124046525Y-77786632D01*
X124253368Y-77993475D01*
X124427760Y-78110000D01*
X124253368Y-78226525D01*
X124046525Y-78433368D01*
X123884010Y-78676589D01*
X123772068Y-78946842D01*
X123715000Y-79233740D01*
X123715000Y-79526260D01*
X123772068Y-79813158D01*
X123884010Y-80083411D01*
X124046525Y-80326632D01*
X124253368Y-80533475D01*
X124427760Y-80650000D01*
X124253368Y-80766525D01*
X124046525Y-80973368D01*
X123884010Y-81216589D01*
X123772068Y-81486842D01*
X123715000Y-81773740D01*
X123715000Y-82066260D01*
X123772068Y-82353158D01*
X123884010Y-82623411D01*
X124046525Y-82866632D01*
X124253368Y-83073475D01*
X124427760Y-83190000D01*
X124253368Y-83306525D01*
X124046525Y-83513368D01*
X123884010Y-83756589D01*
X123772068Y-84026842D01*
X123715000Y-84313740D01*
X123715000Y-84606260D01*
X123772068Y-84893158D01*
X123884010Y-85163411D01*
X124046525Y-85406632D01*
X124253368Y-85613475D01*
X124496589Y-85775990D01*
X124766842Y-85887932D01*
X125053740Y-85945000D01*
X125346260Y-85945000D01*
X125633158Y-85887932D01*
X125903411Y-85775990D01*
X126146632Y-85613475D01*
X126353475Y-85406632D01*
X126515990Y-85163411D01*
X126627932Y-84893158D01*
X126685000Y-84606260D01*
X126685000Y-84313740D01*
X126627932Y-84026842D01*
X126515990Y-83756589D01*
X126353475Y-83513368D01*
X126146632Y-83306525D01*
X125972240Y-83190000D01*
X126146632Y-83073475D01*
X126353475Y-82866632D01*
X126515990Y-82623411D01*
X126627932Y-82353158D01*
X126685000Y-82066260D01*
X126685000Y-81773740D01*
X126627932Y-81486842D01*
X126515990Y-81216589D01*
X126353475Y-80973368D01*
X126146632Y-80766525D01*
X125972240Y-80650000D01*
X126146632Y-80533475D01*
X126353475Y-80326632D01*
X126515990Y-80083411D01*
X126627932Y-79813158D01*
X126685000Y-79526260D01*
X126685000Y-79233740D01*
X126627932Y-78946842D01*
X126515990Y-78676589D01*
X126353475Y-78433368D01*
X126146632Y-78226525D01*
X125972240Y-78110000D01*
X126146632Y-77993475D01*
X126353475Y-77786632D01*
X126515990Y-77543411D01*
X126627932Y-77273158D01*
X126685000Y-76986260D01*
X126685000Y-76693740D01*
X126627932Y-76406842D01*
X126515990Y-76136589D01*
X126353475Y-75893368D01*
X126221620Y-75761513D01*
X126294180Y-75739502D01*
X126404494Y-75680537D01*
X126501185Y-75601185D01*
X126580537Y-75504494D01*
X126639502Y-75394180D01*
X126675812Y-75274482D01*
X126688072Y-75150000D01*
X126688072Y-73450000D01*
X126675812Y-73325518D01*
X126639502Y-73205820D01*
X126580537Y-73095506D01*
X126501185Y-72998815D01*
X126404494Y-72919463D01*
X126294180Y-72860498D01*
X126174482Y-72824188D01*
X126050000Y-72811928D01*
X124350000Y-72811928D01*
X124225518Y-72824188D01*
X124105820Y-72860498D01*
X123995506Y-72919463D01*
X123898815Y-72998815D01*
X123819463Y-73095506D01*
X123760498Y-73205820D01*
X123724188Y-73325518D01*
X123711928Y-73450000D01*
X54760157Y-73450000D01*
X66751492Y-61458665D01*
X68465000Y-61458665D01*
X68465000Y-61741335D01*
X68520147Y-62018574D01*
X68628320Y-62279727D01*
X68785363Y-62514759D01*
X68985241Y-62714637D01*
X69220273Y-62871680D01*
X69481426Y-62979853D01*
X69758665Y-63035000D01*
X70041335Y-63035000D01*
X70318574Y-62979853D01*
X70579727Y-62871680D01*
X70814759Y-62714637D01*
X71014637Y-62514759D01*
X71170000Y-62282241D01*
X71325363Y-62514759D01*
X71525241Y-62714637D01*
X71760273Y-62871680D01*
X72021426Y-62979853D01*
X72298665Y-63035000D01*
X72581335Y-63035000D01*
X72858574Y-62979853D01*
X73119727Y-62871680D01*
X73354759Y-62714637D01*
X73554637Y-62514759D01*
X73710000Y-62282241D01*
X73865363Y-62514759D01*
X74065241Y-62714637D01*
X74300273Y-62871680D01*
X74561426Y-62979853D01*
X74838665Y-63035000D01*
X75121335Y-63035000D01*
X75398574Y-62979853D01*
X75659727Y-62871680D01*
X75894759Y-62714637D01*
X76094637Y-62514759D01*
X76250000Y-62282241D01*
X76405363Y-62514759D01*
X76605241Y-62714637D01*
X76840273Y-62871680D01*
X77101426Y-62979853D01*
X77378665Y-63035000D01*
X77661335Y-63035000D01*
X77938574Y-62979853D01*
X78199727Y-62871680D01*
X78434759Y-62714637D01*
X78634637Y-62514759D01*
X78790000Y-62282241D01*
X78945363Y-62514759D01*
X79145241Y-62714637D01*
X79380273Y-62871680D01*
X79641426Y-62979853D01*
X79918665Y-63035000D01*
X80201335Y-63035000D01*
X80478574Y-62979853D01*
X80739727Y-62871680D01*
X80974759Y-62714637D01*
X81174637Y-62514759D01*
X81330000Y-62282241D01*
X81485363Y-62514759D01*
X81685241Y-62714637D01*
X81920273Y-62871680D01*
X82181426Y-62979853D01*
X82458665Y-63035000D01*
X82741335Y-63035000D01*
X83018574Y-62979853D01*
X83279727Y-62871680D01*
X83514759Y-62714637D01*
X83714637Y-62514759D01*
X83871680Y-62279727D01*
X83979853Y-62018574D01*
X84035000Y-61741335D01*
X84035000Y-61458665D01*
X83979853Y-61181426D01*
X83871680Y-60920273D01*
X83714637Y-60685241D01*
X83514759Y-60485363D01*
X83279727Y-60328320D01*
X83018574Y-60220147D01*
X82741335Y-60165000D01*
X82458665Y-60165000D01*
X82181426Y-60220147D01*
X81920273Y-60328320D01*
X81685241Y-60485363D01*
X81485363Y-60685241D01*
X81330000Y-60917759D01*
X81174637Y-60685241D01*
X80974759Y-60485363D01*
X80739727Y-60328320D01*
X80478574Y-60220147D01*
X80201335Y-60165000D01*
X79918665Y-60165000D01*
X79641426Y-60220147D01*
X79380273Y-60328320D01*
X79145241Y-60485363D01*
X78945363Y-60685241D01*
X78790000Y-60917759D01*
X78634637Y-60685241D01*
X78434759Y-60485363D01*
X78199727Y-60328320D01*
X77938574Y-60220147D01*
X77661335Y-60165000D01*
X77378665Y-60165000D01*
X77101426Y-60220147D01*
X76840273Y-60328320D01*
X76605241Y-60485363D01*
X76405363Y-60685241D01*
X76250000Y-60917759D01*
X76094637Y-60685241D01*
X75894759Y-60485363D01*
X75659727Y-60328320D01*
X75398574Y-60220147D01*
X75121335Y-60165000D01*
X74838665Y-60165000D01*
X74561426Y-60220147D01*
X74300273Y-60328320D01*
X74065241Y-60485363D01*
X73865363Y-60685241D01*
X73710000Y-60917759D01*
X73554637Y-60685241D01*
X73354759Y-60485363D01*
X73119727Y-60328320D01*
X72858574Y-60220147D01*
X72581335Y-60165000D01*
X72298665Y-60165000D01*
X72021426Y-60220147D01*
X71760273Y-60328320D01*
X71525241Y-60485363D01*
X71325363Y-60685241D01*
X71170000Y-60917759D01*
X71014637Y-60685241D01*
X70814759Y-60485363D01*
X70579727Y-60328320D01*
X70318574Y-60220147D01*
X70041335Y-60165000D01*
X69758665Y-60165000D01*
X69481426Y-60220147D01*
X69220273Y-60328320D01*
X68985241Y-60485363D01*
X68785363Y-60685241D01*
X68628320Y-60920273D01*
X68520147Y-61181426D01*
X68465000Y-61458665D01*
X66751492Y-61458665D01*
X74725158Y-53485000D01*
X102974843Y-53485000D01*
X105191928Y-55702086D01*
X105191928Y-56970000D01*
X105204188Y-57094482D01*
X105240498Y-57214180D01*
X105299463Y-57324494D01*
X105378815Y-57421185D01*
X105475506Y-57500537D01*
X105585820Y-57559502D01*
X105658380Y-57581513D01*
X105526525Y-57713368D01*
X105364010Y-57956589D01*
X105252068Y-58226842D01*
X105195000Y-58513740D01*
X105195000Y-58806260D01*
X105252068Y-59093158D01*
X105364010Y-59363411D01*
X105526525Y-59606632D01*
X105733368Y-59813475D01*
X105907760Y-59930000D01*
X105733368Y-60046525D01*
X105526525Y-60253368D01*
X105364010Y-60496589D01*
X105252068Y-60766842D01*
X105195000Y-61053740D01*
X105195000Y-61346260D01*
X105252068Y-61633158D01*
X105364010Y-61903411D01*
X105526525Y-62146632D01*
X105733368Y-62353475D01*
X105907760Y-62470000D01*
X105733368Y-62586525D01*
X105526525Y-62793368D01*
X105364010Y-63036589D01*
X105252068Y-63306842D01*
X105195000Y-63593740D01*
X105195000Y-63886260D01*
X105252068Y-64173158D01*
X105364010Y-64443411D01*
X105526525Y-64686632D01*
X105733368Y-64893475D01*
X105976589Y-65055990D01*
X106246842Y-65167932D01*
X106533740Y-65225000D01*
X106826260Y-65225000D01*
X107113158Y-65167932D01*
X107383411Y-65055990D01*
X107626632Y-64893475D01*
X107833475Y-64686632D01*
X107995990Y-64443411D01*
X108107932Y-64173158D01*
X108165000Y-63886260D01*
X108165000Y-63593740D01*
X108107932Y-63306842D01*
X107995990Y-63036589D01*
X107833475Y-62793368D01*
X107626632Y-62586525D01*
X107452240Y-62470000D01*
X107626632Y-62353475D01*
X107833475Y-62146632D01*
X107995990Y-61903411D01*
X108107932Y-61633158D01*
X108165000Y-61346260D01*
X108165000Y-61053740D01*
X108107932Y-60766842D01*
X107995990Y-60496589D01*
X107833475Y-60253368D01*
X107626632Y-60046525D01*
X107452240Y-59930000D01*
X107626632Y-59813475D01*
X107833475Y-59606632D01*
X107995990Y-59363411D01*
X108107932Y-59093158D01*
X108165000Y-58806260D01*
X108165000Y-58513740D01*
X108107932Y-58226842D01*
X107995990Y-57956589D01*
X107833475Y-57713368D01*
X107701620Y-57581513D01*
X107774180Y-57559502D01*
X107884494Y-57500537D01*
X107981185Y-57421185D01*
X108060537Y-57324494D01*
X108119502Y-57214180D01*
X108155812Y-57094482D01*
X108168072Y-56970000D01*
X108168072Y-56358177D01*
X108193641Y-56273887D01*
X108208798Y-56120000D01*
X108193641Y-55966113D01*
X108168072Y-55881823D01*
X108168072Y-55270000D01*
X108155812Y-55145518D01*
X108119502Y-55025820D01*
X108060537Y-54915506D01*
X107981185Y-54818815D01*
X107884494Y-54739463D01*
X107774180Y-54680498D01*
X107654482Y-54644188D01*
X107530000Y-54631928D01*
X106342086Y-54631928D01*
X104085000Y-52374843D01*
X104085000Y-50192110D01*
X104964994Y-50192110D01*
X104964994Y-50376288D01*
X105000926Y-50556928D01*
X105071408Y-50727088D01*
X105173732Y-50880227D01*
X105303966Y-51010461D01*
X105457105Y-51112785D01*
X105627265Y-51183267D01*
X105728629Y-51203430D01*
X112852154Y-58326956D01*
X112815000Y-58513740D01*
X112815000Y-58806260D01*
X112872068Y-59093158D01*
X112984010Y-59363411D01*
X113146525Y-59606632D01*
X113353368Y-59813475D01*
X113527760Y-59930000D01*
X113353368Y-60046525D01*
X113146525Y-60253368D01*
X112984010Y-60496589D01*
X112872068Y-60766842D01*
X112815000Y-61053740D01*
X112815000Y-61346260D01*
X112872068Y-61633158D01*
X112984010Y-61903411D01*
X113146525Y-62146632D01*
X113278380Y-62278487D01*
X113205820Y-62300498D01*
X113095506Y-62359463D01*
X112998815Y-62438815D01*
X112919463Y-62535506D01*
X112860498Y-62645820D01*
X112824188Y-62765518D01*
X112811928Y-62890000D01*
X112811928Y-64590000D01*
X112824188Y-64714482D01*
X112860498Y-64834180D01*
X112919463Y-64944494D01*
X112998815Y-65041185D01*
X113095506Y-65120537D01*
X113205820Y-65179502D01*
X113325518Y-65215812D01*
X113450000Y-65228072D01*
X115150000Y-65228072D01*
X115274482Y-65215812D01*
X115394180Y-65179502D01*
X115504494Y-65120537D01*
X115601185Y-65041185D01*
X115680537Y-64944494D01*
X115739502Y-64834180D01*
X115775812Y-64714482D01*
X115788072Y-64590000D01*
X115788072Y-62890000D01*
X115775812Y-62765518D01*
X115739502Y-62645820D01*
X115680537Y-62535506D01*
X115601185Y-62438815D01*
X115504494Y-62359463D01*
X115394180Y-62300498D01*
X115321620Y-62278487D01*
X115453475Y-62146632D01*
X115615990Y-61903411D01*
X115727932Y-61633158D01*
X115785000Y-61346260D01*
X115785000Y-61053740D01*
X115727932Y-60766842D01*
X115615990Y-60496589D01*
X115453475Y-60253368D01*
X115246632Y-60046525D01*
X115072240Y-59930000D01*
X115246632Y-59813475D01*
X115453475Y-59606632D01*
X115615990Y-59363411D01*
X115727932Y-59093158D01*
X115785000Y-58806260D01*
X115785000Y-58513740D01*
X115727932Y-58226842D01*
X115615990Y-57956589D01*
X115453475Y-57713368D01*
X115246632Y-57506525D01*
X115064466Y-57384805D01*
X115181355Y-57315178D01*
X115397588Y-57120269D01*
X115571641Y-56886920D01*
X115696825Y-56624099D01*
X115741476Y-56476890D01*
X115620155Y-56247000D01*
X114427000Y-56247000D01*
X114427000Y-56267000D01*
X114173000Y-56267000D01*
X114173000Y-56247000D01*
X112979845Y-56247000D01*
X112959795Y-56284993D01*
X112437912Y-55763110D01*
X112858524Y-55763110D01*
X112979845Y-55993000D01*
X114173000Y-55993000D01*
X114173000Y-54799186D01*
X114427000Y-54799186D01*
X114427000Y-55993000D01*
X115620155Y-55993000D01*
X115741476Y-55763110D01*
X115696825Y-55615901D01*
X115571641Y-55353080D01*
X115397588Y-55119731D01*
X115181355Y-54924822D01*
X114931252Y-54775843D01*
X114656891Y-54678519D01*
X114427000Y-54799186D01*
X114173000Y-54799186D01*
X113943109Y-54678519D01*
X113668748Y-54775843D01*
X113418645Y-54924822D01*
X113202412Y-55119731D01*
X113028359Y-55353080D01*
X112903175Y-55615901D01*
X112858524Y-55763110D01*
X112437912Y-55763110D01*
X106827069Y-50152268D01*
X106799062Y-50011470D01*
X106728580Y-49841310D01*
X106626256Y-49688171D01*
X106496022Y-49557937D01*
X106342883Y-49455613D01*
X106172723Y-49385131D01*
X105992083Y-49349199D01*
X105807905Y-49349199D01*
X105627265Y-49385131D01*
X105457105Y-49455613D01*
X105303966Y-49557937D01*
X105173732Y-49688171D01*
X105071408Y-49841310D01*
X105000926Y-50011470D01*
X104964994Y-50192110D01*
X104085000Y-50192110D01*
X104085000Y-49025157D01*
X107525158Y-45585000D01*
X107701939Y-45585000D01*
X107901898Y-45545226D01*
X108090256Y-45467205D01*
X108259774Y-45353937D01*
X108278711Y-45335000D01*
X112824843Y-45335000D01*
X123211928Y-55722085D01*
X123211928Y-57010000D01*
X123224188Y-57134482D01*
X123260498Y-57254180D01*
X123319463Y-57364494D01*
X123398815Y-57461185D01*
X123495506Y-57540537D01*
X123605820Y-57599502D01*
X123678380Y-57621513D01*
X123546525Y-57753368D01*
X123384010Y-57996589D01*
X123272068Y-58266842D01*
X123215000Y-58553740D01*
X123215000Y-58846260D01*
X123272068Y-59133158D01*
X123384010Y-59403411D01*
X123546525Y-59646632D01*
X123753368Y-59853475D01*
X123927760Y-59970000D01*
X123753368Y-60086525D01*
X123546525Y-60293368D01*
X123384010Y-60536589D01*
X123272068Y-60806842D01*
X123215000Y-61093740D01*
X123215000Y-61386260D01*
X123272068Y-61673158D01*
X123384010Y-61943411D01*
X123546525Y-62186632D01*
X123753368Y-62393475D01*
X123927760Y-62510000D01*
X123753368Y-62626525D01*
X123546525Y-62833368D01*
X123384010Y-63076589D01*
X123272068Y-63346842D01*
X123215000Y-63633740D01*
X123215000Y-63926260D01*
X123272068Y-64213158D01*
X123384010Y-64483411D01*
X123546525Y-64726632D01*
X123753368Y-64933475D01*
X123996589Y-65095990D01*
X124266842Y-65207932D01*
X124553740Y-65265000D01*
X124846260Y-65265000D01*
X125133158Y-65207932D01*
X125403411Y-65095990D01*
X125646632Y-64933475D01*
X125853475Y-64726632D01*
X126015990Y-64483411D01*
X126127932Y-64213158D01*
X126185000Y-63926260D01*
X126185000Y-63633740D01*
X126127932Y-63346842D01*
X126015990Y-63076589D01*
X125918043Y-62930000D01*
X130821928Y-62930000D01*
X130821928Y-64630000D01*
X130834188Y-64754482D01*
X130870498Y-64874180D01*
X130929463Y-64984494D01*
X131008815Y-65081185D01*
X131105506Y-65160537D01*
X131215820Y-65219502D01*
X131335518Y-65255812D01*
X131460000Y-65268072D01*
X133160000Y-65268072D01*
X133284482Y-65255812D01*
X133404180Y-65219502D01*
X133514494Y-65160537D01*
X133611185Y-65081185D01*
X133690537Y-64984494D01*
X133749502Y-64874180D01*
X133785812Y-64754482D01*
X133798072Y-64630000D01*
X133798072Y-62930000D01*
X133785812Y-62805518D01*
X133749502Y-62685820D01*
X133690537Y-62575506D01*
X133611185Y-62478815D01*
X133514494Y-62399463D01*
X133404180Y-62340498D01*
X133331620Y-62318487D01*
X133463475Y-62186632D01*
X133625990Y-61943411D01*
X133737932Y-61673158D01*
X133795000Y-61386260D01*
X133795000Y-61093740D01*
X133737932Y-60806842D01*
X133625990Y-60536589D01*
X133463475Y-60293368D01*
X133256632Y-60086525D01*
X133082240Y-59970000D01*
X133256632Y-59853475D01*
X133463475Y-59646632D01*
X133625990Y-59403411D01*
X133737932Y-59133158D01*
X133795000Y-58846260D01*
X133795000Y-58553740D01*
X133737932Y-58266842D01*
X133625990Y-57996589D01*
X133463475Y-57753368D01*
X133256632Y-57546525D01*
X133074466Y-57424805D01*
X133191355Y-57355178D01*
X133407588Y-57160269D01*
X133581641Y-56926920D01*
X133706825Y-56664099D01*
X133751476Y-56516890D01*
X133630155Y-56287000D01*
X132437000Y-56287000D01*
X132437000Y-56307000D01*
X132183000Y-56307000D01*
X132183000Y-56287000D01*
X130989845Y-56287000D01*
X130868524Y-56516890D01*
X130913175Y-56664099D01*
X131038359Y-56926920D01*
X131212412Y-57160269D01*
X131428645Y-57355178D01*
X131545534Y-57424805D01*
X131363368Y-57546525D01*
X131156525Y-57753368D01*
X130994010Y-57996589D01*
X130882068Y-58266842D01*
X130825000Y-58553740D01*
X130825000Y-58846260D01*
X130882068Y-59133158D01*
X130994010Y-59403411D01*
X131156525Y-59646632D01*
X131363368Y-59853475D01*
X131537760Y-59970000D01*
X131363368Y-60086525D01*
X131156525Y-60293368D01*
X130994010Y-60536589D01*
X130882068Y-60806842D01*
X130825000Y-61093740D01*
X130825000Y-61386260D01*
X130882068Y-61673158D01*
X130994010Y-61943411D01*
X131156525Y-62186632D01*
X131288380Y-62318487D01*
X131215820Y-62340498D01*
X131105506Y-62399463D01*
X131008815Y-62478815D01*
X130929463Y-62575506D01*
X130870498Y-62685820D01*
X130834188Y-62805518D01*
X130821928Y-62930000D01*
X125918043Y-62930000D01*
X125853475Y-62833368D01*
X125646632Y-62626525D01*
X125472240Y-62510000D01*
X125646632Y-62393475D01*
X125853475Y-62186632D01*
X126015990Y-61943411D01*
X126127932Y-61673158D01*
X126185000Y-61386260D01*
X126185000Y-61093740D01*
X126127932Y-60806842D01*
X126015990Y-60536589D01*
X125853475Y-60293368D01*
X125646632Y-60086525D01*
X125472240Y-59970000D01*
X125646632Y-59853475D01*
X125853475Y-59646632D01*
X126015990Y-59403411D01*
X126127932Y-59133158D01*
X126185000Y-58846260D01*
X126185000Y-58553740D01*
X126127932Y-58266842D01*
X126015990Y-57996589D01*
X125853475Y-57753368D01*
X125721620Y-57621513D01*
X125794180Y-57599502D01*
X125904494Y-57540537D01*
X126001185Y-57461185D01*
X126080537Y-57364494D01*
X126139502Y-57254180D01*
X126175812Y-57134482D01*
X126188072Y-57010000D01*
X126188072Y-55803110D01*
X130868524Y-55803110D01*
X130989845Y-56033000D01*
X132183000Y-56033000D01*
X132183000Y-54839186D01*
X132437000Y-54839186D01*
X132437000Y-56033000D01*
X133630155Y-56033000D01*
X133751476Y-55803110D01*
X133706825Y-55655901D01*
X133581641Y-55393080D01*
X133407588Y-55159731D01*
X133191355Y-54964822D01*
X132941252Y-54815843D01*
X132666891Y-54718519D01*
X132437000Y-54839186D01*
X132183000Y-54839186D01*
X131953109Y-54718519D01*
X131678748Y-54815843D01*
X131428645Y-54964822D01*
X131212412Y-55159731D01*
X131038359Y-55393080D01*
X130913175Y-55655901D01*
X130868524Y-55803110D01*
X126188072Y-55803110D01*
X126188072Y-55310000D01*
X126175812Y-55185518D01*
X126139502Y-55065820D01*
X126080537Y-54955506D01*
X126001185Y-54858815D01*
X125904494Y-54779463D01*
X125794180Y-54720498D01*
X125674482Y-54684188D01*
X125550000Y-54671928D01*
X124382085Y-54671928D01*
X113732347Y-44022190D01*
X113707764Y-43992236D01*
X113588233Y-43894138D01*
X113451860Y-43821246D01*
X113303887Y-43776359D01*
X113188561Y-43765000D01*
X113188553Y-43765000D01*
X113150000Y-43761203D01*
X113111447Y-43765000D01*
X108278711Y-43765000D01*
X108259774Y-43746063D01*
X108090256Y-43632795D01*
X107901898Y-43554774D01*
X107701939Y-43515000D01*
X107498061Y-43515000D01*
X107298102Y-43554774D01*
X107109744Y-43632795D01*
X106940226Y-43746063D01*
X106796063Y-43890226D01*
X106682795Y-44059744D01*
X106604774Y-44248102D01*
X106595595Y-44294247D01*
X102772185Y-48117658D01*
X102742237Y-48142236D01*
X102717659Y-48172184D01*
X102717655Y-48172188D01*
X102684690Y-48212356D01*
X102644139Y-48261767D01*
X102605177Y-48334660D01*
X102571246Y-48398141D01*
X102526359Y-48546114D01*
X102511203Y-48700000D01*
X102515001Y-48738563D01*
X102515000Y-51915000D01*
X74438552Y-51915000D01*
X74399999Y-51911203D01*
X74361446Y-51915000D01*
X74361439Y-51915000D01*
X74260490Y-51924943D01*
X74246112Y-51926359D01*
X74211672Y-51936806D01*
X74098140Y-51971246D01*
X73961767Y-52044138D01*
X73901559Y-52093550D01*
X73872187Y-52117655D01*
X73872184Y-52117658D01*
X73842236Y-52142236D01*
X73817658Y-52172184D01*
X52472190Y-73517653D01*
X52442236Y-73542236D01*
X52344138Y-73661768D01*
X52271246Y-73798141D01*
X52226359Y-73946114D01*
X52215000Y-74061440D01*
X52215000Y-74061447D01*
X52211203Y-74100000D01*
X52215000Y-74138553D01*
X52215001Y-89811430D01*
X52215000Y-89811440D01*
X52215001Y-106754943D01*
X52111829Y-106705065D01*
X51809627Y-106626621D01*
X51497927Y-106608641D01*
X51188709Y-106651816D01*
X50893856Y-106754487D01*
X50885000Y-106759221D01*
X50885000Y-47458665D01*
X68465000Y-47458665D01*
X68465000Y-47741335D01*
X68520147Y-48018574D01*
X68628320Y-48279727D01*
X68785363Y-48514759D01*
X68985241Y-48714637D01*
X69220273Y-48871680D01*
X69481426Y-48979853D01*
X69758665Y-49035000D01*
X70041335Y-49035000D01*
X70318574Y-48979853D01*
X70579727Y-48871680D01*
X70814759Y-48714637D01*
X71014637Y-48514759D01*
X71170000Y-48282241D01*
X71325363Y-48514759D01*
X71525241Y-48714637D01*
X71760273Y-48871680D01*
X72021426Y-48979853D01*
X72298665Y-49035000D01*
X72581335Y-49035000D01*
X72858574Y-48979853D01*
X73119727Y-48871680D01*
X73354759Y-48714637D01*
X73554637Y-48514759D01*
X73710000Y-48282241D01*
X73865363Y-48514759D01*
X74065241Y-48714637D01*
X74300273Y-48871680D01*
X74561426Y-48979853D01*
X74838665Y-49035000D01*
X75121335Y-49035000D01*
X75398574Y-48979853D01*
X75659727Y-48871680D01*
X75894759Y-48714637D01*
X76094637Y-48514759D01*
X76250000Y-48282241D01*
X76405363Y-48514759D01*
X76605241Y-48714637D01*
X76840273Y-48871680D01*
X77101426Y-48979853D01*
X77378665Y-49035000D01*
X77661335Y-49035000D01*
X77938574Y-48979853D01*
X78199727Y-48871680D01*
X78434759Y-48714637D01*
X78634637Y-48514759D01*
X78790000Y-48282241D01*
X78945363Y-48514759D01*
X79145241Y-48714637D01*
X79380273Y-48871680D01*
X79641426Y-48979853D01*
X79918665Y-49035000D01*
X80201335Y-49035000D01*
X80478574Y-48979853D01*
X80739727Y-48871680D01*
X80974759Y-48714637D01*
X81174637Y-48514759D01*
X81330000Y-48282241D01*
X81485363Y-48514759D01*
X81685241Y-48714637D01*
X81920273Y-48871680D01*
X82181426Y-48979853D01*
X82458665Y-49035000D01*
X82741335Y-49035000D01*
X83018574Y-48979853D01*
X83279727Y-48871680D01*
X83514759Y-48714637D01*
X83714637Y-48514759D01*
X83871680Y-48279727D01*
X83979853Y-48018574D01*
X84035000Y-47741335D01*
X84035000Y-47458665D01*
X83979853Y-47181426D01*
X83871680Y-46920273D01*
X83714637Y-46685241D01*
X83514759Y-46485363D01*
X83279727Y-46328320D01*
X83018574Y-46220147D01*
X82741335Y-46165000D01*
X82458665Y-46165000D01*
X82181426Y-46220147D01*
X81920273Y-46328320D01*
X81685241Y-46485363D01*
X81485363Y-46685241D01*
X81330000Y-46917759D01*
X81174637Y-46685241D01*
X80974759Y-46485363D01*
X80739727Y-46328320D01*
X80478574Y-46220147D01*
X80201335Y-46165000D01*
X79918665Y-46165000D01*
X79641426Y-46220147D01*
X79380273Y-46328320D01*
X79145241Y-46485363D01*
X78945363Y-46685241D01*
X78790000Y-46917759D01*
X78634637Y-46685241D01*
X78434759Y-46485363D01*
X78199727Y-46328320D01*
X77938574Y-46220147D01*
X77661335Y-46165000D01*
X77378665Y-46165000D01*
X77101426Y-46220147D01*
X76840273Y-46328320D01*
X76605241Y-46485363D01*
X76405363Y-46685241D01*
X76250000Y-46917759D01*
X76094637Y-46685241D01*
X75894759Y-46485363D01*
X75659727Y-46328320D01*
X75398574Y-46220147D01*
X75121335Y-46165000D01*
X74838665Y-46165000D01*
X74561426Y-46220147D01*
X74300273Y-46328320D01*
X74065241Y-46485363D01*
X73865363Y-46685241D01*
X73710000Y-46917759D01*
X73554637Y-46685241D01*
X73354759Y-46485363D01*
X73119727Y-46328320D01*
X72858574Y-46220147D01*
X72581335Y-46165000D01*
X72298665Y-46165000D01*
X72021426Y-46220147D01*
X71760273Y-46328320D01*
X71525241Y-46485363D01*
X71325363Y-46685241D01*
X71170000Y-46917759D01*
X71014637Y-46685241D01*
X70814759Y-46485363D01*
X70579727Y-46328320D01*
X70318574Y-46220147D01*
X70041335Y-46165000D01*
X69758665Y-46165000D01*
X69481426Y-46220147D01*
X69220273Y-46328320D01*
X68985241Y-46485363D01*
X68785363Y-46685241D01*
X68628320Y-46920273D01*
X68520147Y-47181426D01*
X68465000Y-47458665D01*
X50885000Y-47458665D01*
X50885000Y-45039410D01*
X50953497Y-44271919D01*
X51146381Y-43566853D01*
X51461075Y-42907084D01*
X51480014Y-42880727D01*
X51789000Y-42880727D01*
X51789000Y-43119273D01*
X51835538Y-43353236D01*
X51926825Y-43573624D01*
X52059354Y-43771968D01*
X52228032Y-43940646D01*
X52426376Y-44073175D01*
X52646764Y-44164462D01*
X52880727Y-44211000D01*
X53119273Y-44211000D01*
X53353236Y-44164462D01*
X53573624Y-44073175D01*
X53771968Y-43940646D01*
X53940646Y-43771968D01*
X54073175Y-43573624D01*
X54164462Y-43353236D01*
X54211000Y-43119273D01*
X54211000Y-42880727D01*
X54164462Y-42646764D01*
X54073175Y-42426376D01*
X53940646Y-42228032D01*
X53771968Y-42059354D01*
X53573624Y-41926825D01*
X53353236Y-41835538D01*
X53119273Y-41789000D01*
X52880727Y-41789000D01*
X52646764Y-41835538D01*
X52426376Y-41926825D01*
X52228032Y-42059354D01*
X52059354Y-42228032D01*
X51926825Y-42426376D01*
X51835538Y-42646764D01*
X51789000Y-42880727D01*
X51480014Y-42880727D01*
X51887628Y-42313473D01*
X52412559Y-41804779D01*
X53019279Y-41397080D01*
X53688605Y-41103266D01*
X54406191Y-40930989D01*
X55032447Y-40885000D01*
X144960590Y-40885000D01*
X145728081Y-40953497D01*
%TA.AperFunction,Conductor*%
D20*
G36*
X145728081Y-40953497D02*
G01*
X146433147Y-41146381D01*
X147092916Y-41461075D01*
X147686527Y-41887628D01*
X148195221Y-42412559D01*
X148602920Y-43019279D01*
X148896734Y-43688605D01*
X149069011Y-44406191D01*
X149115000Y-45032447D01*
X149115001Y-115460579D01*
X149046503Y-116228082D01*
X148853619Y-116933147D01*
X148538926Y-117592914D01*
X148211000Y-118049271D01*
X148211000Y-117880727D01*
X148164462Y-117646764D01*
X148073175Y-117426376D01*
X147940646Y-117228032D01*
X147771968Y-117059354D01*
X147573624Y-116926825D01*
X147353236Y-116835538D01*
X147119273Y-116789000D01*
X146880727Y-116789000D01*
X146646764Y-116835538D01*
X146426376Y-116926825D01*
X146228032Y-117059354D01*
X146059354Y-117228032D01*
X145926825Y-117426376D01*
X145835538Y-117646764D01*
X145789000Y-117880727D01*
X145789000Y-118119273D01*
X145835538Y-118353236D01*
X145926825Y-118573624D01*
X146059354Y-118771968D01*
X146228032Y-118940646D01*
X146426376Y-119073175D01*
X146646764Y-119164462D01*
X146780103Y-119190985D01*
X146311395Y-119396734D01*
X145593810Y-119569011D01*
X144967554Y-119615000D01*
X55039409Y-119615000D01*
X54271918Y-119546503D01*
X53566853Y-119353619D01*
X53224122Y-119190144D01*
X53353236Y-119164462D01*
X53573624Y-119073175D01*
X53771968Y-118940646D01*
X53940646Y-118771968D01*
X54073175Y-118573624D01*
X54164462Y-118353236D01*
X54211000Y-118119273D01*
X54211000Y-117880727D01*
X54164462Y-117646764D01*
X54073175Y-117426376D01*
X53940646Y-117228032D01*
X53771968Y-117059354D01*
X53573624Y-116926825D01*
X53353236Y-116835538D01*
X53119273Y-116789000D01*
X52880727Y-116789000D01*
X52646764Y-116835538D01*
X52426376Y-116926825D01*
X52228032Y-117059354D01*
X52059354Y-117228032D01*
X51926825Y-117426376D01*
X51835538Y-117646764D01*
X51789000Y-117880727D01*
X51789000Y-118063960D01*
X51397081Y-117480723D01*
X51103266Y-116811395D01*
X51079436Y-116712136D01*
X51315373Y-116773379D01*
X51627073Y-116791359D01*
X51936291Y-116748184D01*
X52231144Y-116645513D01*
X52392921Y-116559042D01*
X52482647Y-116299752D01*
X51562500Y-115379605D01*
X51548358Y-115393748D01*
X51368753Y-115214143D01*
X51382895Y-115200000D01*
X51742105Y-115200000D01*
X52662252Y-116120147D01*
X52921542Y-116030421D01*
X53057435Y-115749329D01*
X53135879Y-115447127D01*
X53153645Y-115139133D01*
X53502972Y-115139133D01*
X53565465Y-115375450D01*
X53808178Y-115488850D01*
X54068349Y-115552719D01*
X54335982Y-115564604D01*
X54600791Y-115524048D01*
X54852600Y-115432609D01*
X54959535Y-115375450D01*
X55022028Y-115139133D01*
X54262500Y-114379605D01*
X53502972Y-115139133D01*
X53153645Y-115139133D01*
X53153859Y-115135427D01*
X53121858Y-114906240D01*
X53323367Y-114959528D01*
X54082895Y-114200000D01*
X54442105Y-114200000D01*
X55201633Y-114959528D01*
X55437950Y-114897035D01*
X55551350Y-114654322D01*
X55615219Y-114394151D01*
X55627104Y-114126518D01*
X55586548Y-113861709D01*
X55495109Y-113609900D01*
X55437950Y-113502965D01*
X55201633Y-113440472D01*
X54442105Y-114200000D01*
X54082895Y-114200000D01*
X53323367Y-113440472D01*
X53087050Y-113502965D01*
X52973650Y-113745678D01*
X52909781Y-114005849D01*
X52897896Y-114273482D01*
X52912114Y-114366316D01*
X52662252Y-114279853D01*
X51742105Y-115200000D01*
X51382895Y-115200000D01*
X51368753Y-115185858D01*
X51548358Y-115006253D01*
X51562500Y-115020395D01*
X52482647Y-114100248D01*
X52392921Y-113840958D01*
X52111829Y-113705065D01*
X51809627Y-113626621D01*
X51497927Y-113608641D01*
X51188709Y-113651816D01*
X50893856Y-113754487D01*
X50885000Y-113759221D01*
X50885000Y-113260867D01*
X53502972Y-113260867D01*
X54262500Y-114020395D01*
X55022028Y-113260867D01*
X54959535Y-113024550D01*
X54716822Y-112911150D01*
X54456651Y-112847281D01*
X54189018Y-112835396D01*
X53924209Y-112875952D01*
X53672400Y-112967391D01*
X53565465Y-113024550D01*
X53502972Y-113260867D01*
X50885000Y-113260867D01*
X50885000Y-109632971D01*
X51013171Y-109694935D01*
X51315373Y-109773379D01*
X51627073Y-109791359D01*
X51936291Y-109748184D01*
X52215001Y-109651134D01*
X52215001Y-109861437D01*
X52211203Y-109900000D01*
X52226359Y-110053886D01*
X52271246Y-110201859D01*
X52271247Y-110201860D01*
X52344139Y-110338233D01*
X52384690Y-110387644D01*
X52417655Y-110427812D01*
X52417659Y-110427816D01*
X52442237Y-110457764D01*
X52472186Y-110482343D01*
X52917649Y-110927805D01*
X52942236Y-110957764D01*
X53061767Y-111055862D01*
X53198140Y-111128754D01*
X53346113Y-111173642D01*
X53421026Y-111181020D01*
X53461439Y-111185000D01*
X53461444Y-111185000D01*
X53500000Y-111188797D01*
X53538556Y-111185000D01*
X55515000Y-111185000D01*
X55515001Y-112361437D01*
X55511203Y-112400000D01*
X55526359Y-112553886D01*
X55571246Y-112701859D01*
X55571247Y-112701860D01*
X55644139Y-112838233D01*
X55651565Y-112847281D01*
X55717655Y-112927812D01*
X55717659Y-112927816D01*
X55742237Y-112957764D01*
X55772185Y-112982342D01*
X57317653Y-114527810D01*
X57342236Y-114557764D01*
X57461767Y-114655862D01*
X57557993Y-114707295D01*
X57598140Y-114728754D01*
X57746113Y-114773642D01*
X57821026Y-114781020D01*
X57861439Y-114785000D01*
X57861444Y-114785000D01*
X57900000Y-114788797D01*
X57938556Y-114785000D01*
X69561447Y-114785000D01*
X69600000Y-114788797D01*
X69638553Y-114785000D01*
X69638561Y-114785000D01*
X69753887Y-114773641D01*
X69901860Y-114728754D01*
X70038233Y-114655862D01*
X70157764Y-114557764D01*
X70182347Y-114527810D01*
X73075158Y-111635000D01*
X73101939Y-111635000D01*
X73301898Y-111595226D01*
X73490256Y-111517205D01*
X73659774Y-111403937D01*
X73803937Y-111259774D01*
X73917205Y-111090256D01*
X73995226Y-110901898D01*
X74035000Y-110701939D01*
X74035000Y-110498061D01*
X73995226Y-110298102D01*
X73917205Y-110109744D01*
X73803937Y-109940226D01*
X73659774Y-109796063D01*
X73490256Y-109682795D01*
X73301898Y-109604774D01*
X73101939Y-109565000D01*
X72898061Y-109565000D01*
X72698102Y-109604774D01*
X72509744Y-109682795D01*
X72340226Y-109796063D01*
X72196063Y-109940226D01*
X72082795Y-110109744D01*
X72004774Y-110298102D01*
X71965000Y-110498061D01*
X71965000Y-110524842D01*
X69274843Y-113215000D01*
X58763222Y-113215000D01*
X58845535Y-113160000D01*
X59062678Y-113160000D01*
X59100000Y-113163676D01*
X59137322Y-113160000D01*
X59137333Y-113160000D01*
X59248986Y-113149003D01*
X59392247Y-113105546D01*
X59524276Y-113034974D01*
X59640001Y-112940001D01*
X59663804Y-112910997D01*
X60761003Y-111813799D01*
X60790001Y-111790001D01*
X60884974Y-111674276D01*
X60955546Y-111542247D01*
X60999003Y-111398986D01*
X61010000Y-111287333D01*
X61013677Y-111250000D01*
X61010000Y-111212667D01*
X61010000Y-109564801D01*
X72324803Y-98250000D01*
X76371822Y-98250000D01*
X76496525Y-98436632D01*
X76703368Y-98643475D01*
X76946589Y-98805990D01*
X77216842Y-98917932D01*
X77503740Y-98975000D01*
X77796260Y-98975000D01*
X78049771Y-98924573D01*
X78636205Y-99511008D01*
X78659999Y-99540001D01*
X78688992Y-99563795D01*
X78688996Y-99563799D01*
X78759685Y-99621811D01*
X78775724Y-99634974D01*
X78907753Y-99705546D01*
X79051014Y-99749003D01*
X79162667Y-99760000D01*
X79162676Y-99760000D01*
X79199999Y-99763676D01*
X79237322Y-99760000D01*
X100962678Y-99760000D01*
X101000000Y-99763676D01*
X101037322Y-99760000D01*
X101037333Y-99760000D01*
X101148986Y-99749003D01*
X101292247Y-99705546D01*
X101424276Y-99634974D01*
X101540001Y-99540001D01*
X101563804Y-99510997D01*
X102074435Y-99000366D01*
X102116842Y-99017932D01*
X102403740Y-99075000D01*
X102696260Y-99075000D01*
X102983158Y-99017932D01*
X103253411Y-98905990D01*
X103496632Y-98743475D01*
X103703475Y-98536632D01*
X103865990Y-98293411D01*
X103977932Y-98023158D01*
X104035000Y-97736260D01*
X104035000Y-97443740D01*
X103977932Y-97156842D01*
X103865990Y-96886589D01*
X103703475Y-96643368D01*
X103496632Y-96436525D01*
X103322240Y-96320000D01*
X103496632Y-96203475D01*
X103703475Y-95996632D01*
X103865990Y-95753411D01*
X103977932Y-95483158D01*
X104035000Y-95196260D01*
X104035000Y-94903740D01*
X103977932Y-94616842D01*
X103865990Y-94346589D01*
X103703475Y-94103368D01*
X103496632Y-93896525D01*
X103322240Y-93780000D01*
X103496632Y-93663475D01*
X103703475Y-93456632D01*
X103865990Y-93213411D01*
X103977932Y-92943158D01*
X104035000Y-92656260D01*
X104035000Y-92363740D01*
X103981544Y-92094999D01*
X105820198Y-92094999D01*
X106756205Y-93031008D01*
X106779999Y-93060001D01*
X106808992Y-93083795D01*
X106808996Y-93083799D01*
X106845079Y-93113411D01*
X106895724Y-93154974D01*
X107027753Y-93225546D01*
X107171014Y-93269003D01*
X107282667Y-93280000D01*
X107282676Y-93280000D01*
X107319999Y-93283676D01*
X107357322Y-93280000D01*
X108921822Y-93280000D01*
X109046525Y-93466632D01*
X109253368Y-93673475D01*
X109427760Y-93790000D01*
X109253368Y-93906525D01*
X109046525Y-94113368D01*
X108884010Y-94356589D01*
X108772068Y-94626842D01*
X108715000Y-94913740D01*
X108715000Y-95206260D01*
X108772068Y-95493158D01*
X108884010Y-95763411D01*
X109046525Y-96006632D01*
X109178380Y-96138487D01*
X109105820Y-96160498D01*
X108995506Y-96219463D01*
X108898815Y-96298815D01*
X108819463Y-96395506D01*
X108760498Y-96505820D01*
X108724188Y-96625518D01*
X108711928Y-96750000D01*
X108711928Y-98450000D01*
X108724188Y-98574482D01*
X108760498Y-98694180D01*
X108819463Y-98804494D01*
X108898815Y-98901185D01*
X108995506Y-98980537D01*
X109105820Y-99039502D01*
X109225518Y-99075812D01*
X109350000Y-99088072D01*
X111050000Y-99088072D01*
X111174482Y-99075812D01*
X111294180Y-99039502D01*
X111404494Y-98980537D01*
X111501185Y-98901185D01*
X111580537Y-98804494D01*
X111639502Y-98694180D01*
X111675812Y-98574482D01*
X111688072Y-98450000D01*
X111688072Y-96750000D01*
X111675812Y-96625518D01*
X111639502Y-96505820D01*
X111580537Y-96395506D01*
X111501185Y-96298815D01*
X111404494Y-96219463D01*
X111294180Y-96160498D01*
X111221620Y-96138487D01*
X111353475Y-96006632D01*
X111515990Y-95763411D01*
X111627932Y-95493158D01*
X111685000Y-95206260D01*
X111685000Y-94913740D01*
X111627932Y-94626842D01*
X111515990Y-94356589D01*
X111353475Y-94113368D01*
X111146632Y-93906525D01*
X110972240Y-93790000D01*
X111146632Y-93673475D01*
X111353475Y-93466632D01*
X111515990Y-93223411D01*
X111627932Y-92953158D01*
X111685000Y-92666260D01*
X111685000Y-92373740D01*
X111627932Y-92086842D01*
X111515990Y-91816589D01*
X111353475Y-91573368D01*
X111146632Y-91366525D01*
X110964466Y-91244805D01*
X111081355Y-91175178D01*
X111297588Y-90980269D01*
X111471641Y-90746920D01*
X111596825Y-90484099D01*
X111641476Y-90336890D01*
X111520155Y-90107000D01*
X110327000Y-90107000D01*
X110327000Y-90127000D01*
X110073000Y-90127000D01*
X110073000Y-90107000D01*
X108879845Y-90107000D01*
X108758524Y-90336890D01*
X108803175Y-90484099D01*
X108928359Y-90746920D01*
X109102412Y-90980269D01*
X109318645Y-91175178D01*
X109435534Y-91244805D01*
X109253368Y-91366525D01*
X109046525Y-91573368D01*
X108921822Y-91760000D01*
X107634803Y-91760000D01*
X106698802Y-90824001D01*
X106675000Y-90794998D01*
X106559275Y-90700025D01*
X106427246Y-90629453D01*
X106283985Y-90585996D01*
X106172332Y-90574999D01*
X106172321Y-90574999D01*
X106134999Y-90571323D01*
X106097677Y-90574999D01*
X104038072Y-90574999D01*
X104038072Y-90050000D01*
X123761928Y-90050000D01*
X123761928Y-91750000D01*
X123774188Y-91874482D01*
X123810498Y-91994180D01*
X123869463Y-92104494D01*
X123948815Y-92201185D01*
X124045506Y-92280537D01*
X124155820Y-92339502D01*
X124228380Y-92361513D01*
X124096525Y-92493368D01*
X123934010Y-92736589D01*
X123822068Y-93006842D01*
X123765000Y-93293740D01*
X123765000Y-93586260D01*
X123822068Y-93873158D01*
X123934010Y-94143411D01*
X124096525Y-94386632D01*
X124303368Y-94593475D01*
X124477760Y-94710000D01*
X124303368Y-94826525D01*
X124096525Y-95033368D01*
X123934010Y-95276589D01*
X123822068Y-95546842D01*
X123765000Y-95833740D01*
X123765000Y-96126260D01*
X123822068Y-96413158D01*
X123934010Y-96683411D01*
X124096525Y-96926632D01*
X124303368Y-97133475D01*
X124477760Y-97250000D01*
X124303368Y-97366525D01*
X124096525Y-97573368D01*
X123934010Y-97816589D01*
X123822068Y-98086842D01*
X123765000Y-98373740D01*
X123765000Y-98666260D01*
X123822068Y-98953158D01*
X123934010Y-99223411D01*
X124096525Y-99466632D01*
X124303368Y-99673475D01*
X124546589Y-99835990D01*
X124816842Y-99947932D01*
X125103740Y-100005000D01*
X125396260Y-100005000D01*
X125683158Y-99947932D01*
X125953411Y-99835990D01*
X126196632Y-99673475D01*
X126403475Y-99466632D01*
X126565990Y-99223411D01*
X126677932Y-98953158D01*
X126735000Y-98666260D01*
X126735000Y-98373740D01*
X126677932Y-98086842D01*
X126565990Y-97816589D01*
X126403475Y-97573368D01*
X126196632Y-97366525D01*
X126022240Y-97250000D01*
X126196632Y-97133475D01*
X126403475Y-96926632D01*
X126565990Y-96683411D01*
X126677932Y-96413158D01*
X126735000Y-96126260D01*
X126735000Y-95833740D01*
X126677932Y-95546842D01*
X126565990Y-95276589D01*
X126403475Y-95033368D01*
X126196632Y-94826525D01*
X126022240Y-94710000D01*
X126196632Y-94593475D01*
X126403475Y-94386632D01*
X126565990Y-94143411D01*
X126677932Y-93873158D01*
X126735000Y-93586260D01*
X126735000Y-93293740D01*
X126677932Y-93006842D01*
X126565990Y-92736589D01*
X126403475Y-92493368D01*
X126271620Y-92361513D01*
X126344180Y-92339502D01*
X126454494Y-92280537D01*
X126551185Y-92201185D01*
X126630537Y-92104494D01*
X126689502Y-91994180D01*
X126725812Y-91874482D01*
X126738072Y-91750000D01*
X126738072Y-90050000D01*
X126725812Y-89925518D01*
X126689502Y-89805820D01*
X126630537Y-89695506D01*
X126551185Y-89598815D01*
X126454494Y-89519463D01*
X126344180Y-89460498D01*
X126224482Y-89424188D01*
X126100000Y-89411928D01*
X124400000Y-89411928D01*
X124275518Y-89424188D01*
X124155820Y-89460498D01*
X124045506Y-89519463D01*
X123948815Y-89598815D01*
X123869463Y-89695506D01*
X123810498Y-89805820D01*
X123774188Y-89925518D01*
X123761928Y-90050000D01*
X104038072Y-90050000D01*
X104038072Y-89623110D01*
X108758524Y-89623110D01*
X108879845Y-89853000D01*
X110073000Y-89853000D01*
X110073000Y-88659186D01*
X110327000Y-88659186D01*
X110327000Y-89853000D01*
X111520155Y-89853000D01*
X111641476Y-89623110D01*
X111596825Y-89475901D01*
X111471641Y-89213080D01*
X111297588Y-88979731D01*
X111081355Y-88784822D01*
X110831252Y-88635843D01*
X110556891Y-88538519D01*
X110327000Y-88659186D01*
X110073000Y-88659186D01*
X109843109Y-88538519D01*
X109568748Y-88635843D01*
X109318645Y-88784822D01*
X109102412Y-88979731D01*
X108928359Y-89213080D01*
X108803175Y-89475901D01*
X108758524Y-89623110D01*
X104038072Y-89623110D01*
X104038072Y-89120000D01*
X104025812Y-88995518D01*
X103989502Y-88875820D01*
X103930537Y-88765506D01*
X103851185Y-88668815D01*
X103754494Y-88589463D01*
X103644180Y-88530498D01*
X103524482Y-88494188D01*
X103400000Y-88481928D01*
X101700000Y-88481928D01*
X101575518Y-88494188D01*
X101455820Y-88530498D01*
X101345506Y-88589463D01*
X101248815Y-88668815D01*
X101169463Y-88765506D01*
X101110498Y-88875820D01*
X101074188Y-88995518D01*
X101061928Y-89120000D01*
X101061928Y-89185000D01*
X98695157Y-89185000D01*
X94982347Y-85472190D01*
X94957764Y-85442236D01*
X94838233Y-85344138D01*
X94701860Y-85271246D01*
X94553887Y-85226359D01*
X94438561Y-85215000D01*
X94438553Y-85215000D01*
X94400000Y-85211203D01*
X94361447Y-85215000D01*
X81558552Y-85215000D01*
X81519999Y-85211203D01*
X81481446Y-85215000D01*
X81481439Y-85215000D01*
X81380490Y-85224943D01*
X81366112Y-85226359D01*
X81331672Y-85236806D01*
X81218140Y-85271246D01*
X81081767Y-85344138D01*
X81009753Y-85403239D01*
X80992187Y-85417655D01*
X80992184Y-85417658D01*
X80962236Y-85442236D01*
X80937658Y-85472184D01*
X78027915Y-88381928D01*
X76800000Y-88381928D01*
X76675518Y-88394188D01*
X76555820Y-88430498D01*
X76445506Y-88489463D01*
X76348815Y-88568815D01*
X76269463Y-88665506D01*
X76210498Y-88775820D01*
X76174188Y-88895518D01*
X76161928Y-89020000D01*
X76161928Y-89085000D01*
X53785000Y-89085000D01*
X53785000Y-79950000D01*
X76411928Y-79950000D01*
X76411928Y-81650000D01*
X76424188Y-81774482D01*
X76460498Y-81894180D01*
X76519463Y-82004494D01*
X76598815Y-82101185D01*
X76695506Y-82180537D01*
X76805820Y-82239502D01*
X76925518Y-82275812D01*
X77050000Y-82288072D01*
X78750000Y-82288072D01*
X78874482Y-82275812D01*
X78994180Y-82239502D01*
X79104494Y-82180537D01*
X79201185Y-82101185D01*
X79280537Y-82004494D01*
X79339502Y-81894180D01*
X79361513Y-81821620D01*
X79493368Y-81953475D01*
X79736589Y-82115990D01*
X80006842Y-82227932D01*
X80293740Y-82285000D01*
X80586260Y-82285000D01*
X80873158Y-82227932D01*
X81143411Y-82115990D01*
X81386632Y-81953475D01*
X81593475Y-81746632D01*
X81710000Y-81572240D01*
X81826525Y-81746632D01*
X82033368Y-81953475D01*
X82276589Y-82115990D01*
X82546842Y-82227932D01*
X82833740Y-82285000D01*
X83126260Y-82285000D01*
X83413158Y-82227932D01*
X83683411Y-82115990D01*
X83926632Y-81953475D01*
X84133475Y-81746632D01*
X84250000Y-81572240D01*
X84366525Y-81746632D01*
X84573368Y-81953475D01*
X84816589Y-82115990D01*
X85086842Y-82227932D01*
X85373740Y-82285000D01*
X85666260Y-82285000D01*
X85953158Y-82227932D01*
X86223411Y-82115990D01*
X86466632Y-81953475D01*
X86673475Y-81746632D01*
X86835990Y-81503411D01*
X86947932Y-81233158D01*
X87005000Y-80946260D01*
X87005000Y-80653740D01*
X86947932Y-80366842D01*
X86835990Y-80096589D01*
X86804861Y-80050000D01*
X101311928Y-80050000D01*
X101311928Y-81750000D01*
X101324188Y-81874482D01*
X101360498Y-81994180D01*
X101419463Y-82104494D01*
X101498815Y-82201185D01*
X101595506Y-82280537D01*
X101705820Y-82339502D01*
X101825518Y-82375812D01*
X101950000Y-82388072D01*
X103650000Y-82388072D01*
X103774482Y-82375812D01*
X103894180Y-82339502D01*
X104004494Y-82280537D01*
X104101185Y-82201185D01*
X104180537Y-82104494D01*
X104239502Y-81994180D01*
X104261513Y-81921620D01*
X104393368Y-82053475D01*
X104636589Y-82215990D01*
X104906842Y-82327932D01*
X105193740Y-82385000D01*
X105486260Y-82385000D01*
X105773158Y-82327932D01*
X106043411Y-82215990D01*
X106286632Y-82053475D01*
X106493475Y-81846632D01*
X106610000Y-81672240D01*
X106726525Y-81846632D01*
X106933368Y-82053475D01*
X107176589Y-82215990D01*
X107446842Y-82327932D01*
X107733740Y-82385000D01*
X108026260Y-82385000D01*
X108313158Y-82327932D01*
X108583411Y-82215990D01*
X108826632Y-82053475D01*
X109033475Y-81846632D01*
X109150000Y-81672240D01*
X109266525Y-81846632D01*
X109473368Y-82053475D01*
X109716589Y-82215990D01*
X109986842Y-82327932D01*
X110273740Y-82385000D01*
X110566260Y-82385000D01*
X110853158Y-82327932D01*
X111123411Y-82215990D01*
X111366632Y-82053475D01*
X111573475Y-81846632D01*
X111735990Y-81603411D01*
X111847932Y-81333158D01*
X111905000Y-81046260D01*
X111905000Y-80753740D01*
X111847932Y-80466842D01*
X111735990Y-80196589D01*
X111573475Y-79953368D01*
X111366632Y-79746525D01*
X111123411Y-79584010D01*
X110853158Y-79472068D01*
X110566260Y-79415000D01*
X110273740Y-79415000D01*
X109986842Y-79472068D01*
X109716589Y-79584010D01*
X109473368Y-79746525D01*
X109266525Y-79953368D01*
X109150000Y-80127760D01*
X109033475Y-79953368D01*
X108826632Y-79746525D01*
X108583411Y-79584010D01*
X108313158Y-79472068D01*
X108026260Y-79415000D01*
X107733740Y-79415000D01*
X107446842Y-79472068D01*
X107176589Y-79584010D01*
X106933368Y-79746525D01*
X106726525Y-79953368D01*
X106610000Y-80127760D01*
X106493475Y-79953368D01*
X106286632Y-79746525D01*
X106043411Y-79584010D01*
X105773158Y-79472068D01*
X105486260Y-79415000D01*
X105193740Y-79415000D01*
X104906842Y-79472068D01*
X104636589Y-79584010D01*
X104393368Y-79746525D01*
X104261513Y-79878380D01*
X104239502Y-79805820D01*
X104180537Y-79695506D01*
X104101185Y-79598815D01*
X104004494Y-79519463D01*
X103894180Y-79460498D01*
X103774482Y-79424188D01*
X103650000Y-79411928D01*
X101950000Y-79411928D01*
X101825518Y-79424188D01*
X101705820Y-79460498D01*
X101595506Y-79519463D01*
X101498815Y-79598815D01*
X101419463Y-79695506D01*
X101360498Y-79805820D01*
X101324188Y-79925518D01*
X101311928Y-80050000D01*
X86804861Y-80050000D01*
X86673475Y-79853368D01*
X86466632Y-79646525D01*
X86223411Y-79484010D01*
X85953158Y-79372068D01*
X85666260Y-79315000D01*
X85373740Y-79315000D01*
X85086842Y-79372068D01*
X84816589Y-79484010D01*
X84573368Y-79646525D01*
X84366525Y-79853368D01*
X84250000Y-80027760D01*
X84133475Y-79853368D01*
X83926632Y-79646525D01*
X83683411Y-79484010D01*
X83413158Y-79372068D01*
X83126260Y-79315000D01*
X82833740Y-79315000D01*
X82546842Y-79372068D01*
X82276589Y-79484010D01*
X82033368Y-79646525D01*
X81826525Y-79853368D01*
X81710000Y-80027760D01*
X81593475Y-79853368D01*
X81386632Y-79646525D01*
X81143411Y-79484010D01*
X80873158Y-79372068D01*
X80586260Y-79315000D01*
X80293740Y-79315000D01*
X80006842Y-79372068D01*
X79736589Y-79484010D01*
X79493368Y-79646525D01*
X79361513Y-79778380D01*
X79339502Y-79705820D01*
X79280537Y-79595506D01*
X79201185Y-79498815D01*
X79104494Y-79419463D01*
X78994180Y-79360498D01*
X78874482Y-79324188D01*
X78750000Y-79311928D01*
X77050000Y-79311928D01*
X76925518Y-79324188D01*
X76805820Y-79360498D01*
X76695506Y-79419463D01*
X76598815Y-79498815D01*
X76519463Y-79595506D01*
X76460498Y-79705820D01*
X76424188Y-79825518D01*
X76411928Y-79950000D01*
X53785000Y-79950000D01*
X53785000Y-74425157D01*
X54760157Y-73450000D01*
X123711928Y-73450000D01*
X123711928Y-75150000D01*
X123724188Y-75274482D01*
X123760498Y-75394180D01*
X123819463Y-75504494D01*
X123898815Y-75601185D01*
X123995506Y-75680537D01*
X124105820Y-75739502D01*
X124178380Y-75761513D01*
X124046525Y-75893368D01*
X123884010Y-76136589D01*
X123772068Y-76406842D01*
X123715000Y-76693740D01*
X123715000Y-76986260D01*
X123772068Y-77273158D01*
X123884010Y-77543411D01*
X124046525Y-77786632D01*
X124253368Y-77993475D01*
X124427760Y-78110000D01*
X124253368Y-78226525D01*
X124046525Y-78433368D01*
X123884010Y-78676589D01*
X123772068Y-78946842D01*
X123715000Y-79233740D01*
X123715000Y-79526260D01*
X123772068Y-79813158D01*
X123884010Y-80083411D01*
X124046525Y-80326632D01*
X124253368Y-80533475D01*
X124427760Y-80650000D01*
X124253368Y-80766525D01*
X124046525Y-80973368D01*
X123884010Y-81216589D01*
X123772068Y-81486842D01*
X123715000Y-81773740D01*
X123715000Y-82066260D01*
X123772068Y-82353158D01*
X123884010Y-82623411D01*
X124046525Y-82866632D01*
X124253368Y-83073475D01*
X124427760Y-83190000D01*
X124253368Y-83306525D01*
X124046525Y-83513368D01*
X123884010Y-83756589D01*
X123772068Y-84026842D01*
X123715000Y-84313740D01*
X123715000Y-84606260D01*
X123772068Y-84893158D01*
X123884010Y-85163411D01*
X124046525Y-85406632D01*
X124253368Y-85613475D01*
X124496589Y-85775990D01*
X124766842Y-85887932D01*
X125053740Y-85945000D01*
X125346260Y-85945000D01*
X125633158Y-85887932D01*
X125903411Y-85775990D01*
X126146632Y-85613475D01*
X126353475Y-85406632D01*
X126515990Y-85163411D01*
X126627932Y-84893158D01*
X126685000Y-84606260D01*
X126685000Y-84313740D01*
X126627932Y-84026842D01*
X126515990Y-83756589D01*
X126353475Y-83513368D01*
X126146632Y-83306525D01*
X125972240Y-83190000D01*
X126146632Y-83073475D01*
X126353475Y-82866632D01*
X126515990Y-82623411D01*
X126627932Y-82353158D01*
X126685000Y-82066260D01*
X126685000Y-81773740D01*
X126627932Y-81486842D01*
X126515990Y-81216589D01*
X126353475Y-80973368D01*
X126146632Y-80766525D01*
X125972240Y-80650000D01*
X126146632Y-80533475D01*
X126353475Y-80326632D01*
X126515990Y-80083411D01*
X126627932Y-79813158D01*
X126685000Y-79526260D01*
X126685000Y-79233740D01*
X126627932Y-78946842D01*
X126515990Y-78676589D01*
X126353475Y-78433368D01*
X126146632Y-78226525D01*
X125972240Y-78110000D01*
X126146632Y-77993475D01*
X126353475Y-77786632D01*
X126515990Y-77543411D01*
X126627932Y-77273158D01*
X126685000Y-76986260D01*
X126685000Y-76693740D01*
X126627932Y-76406842D01*
X126515990Y-76136589D01*
X126353475Y-75893368D01*
X126221620Y-75761513D01*
X126294180Y-75739502D01*
X126404494Y-75680537D01*
X126501185Y-75601185D01*
X126580537Y-75504494D01*
X126639502Y-75394180D01*
X126675812Y-75274482D01*
X126688072Y-75150000D01*
X126688072Y-73450000D01*
X126675812Y-73325518D01*
X126639502Y-73205820D01*
X126580537Y-73095506D01*
X126501185Y-72998815D01*
X126404494Y-72919463D01*
X126294180Y-72860498D01*
X126174482Y-72824188D01*
X126050000Y-72811928D01*
X124350000Y-72811928D01*
X124225518Y-72824188D01*
X124105820Y-72860498D01*
X123995506Y-72919463D01*
X123898815Y-72998815D01*
X123819463Y-73095506D01*
X123760498Y-73205820D01*
X123724188Y-73325518D01*
X123711928Y-73450000D01*
X54760157Y-73450000D01*
X66751492Y-61458665D01*
X68465000Y-61458665D01*
X68465000Y-61741335D01*
X68520147Y-62018574D01*
X68628320Y-62279727D01*
X68785363Y-62514759D01*
X68985241Y-62714637D01*
X69220273Y-62871680D01*
X69481426Y-62979853D01*
X69758665Y-63035000D01*
X70041335Y-63035000D01*
X70318574Y-62979853D01*
X70579727Y-62871680D01*
X70814759Y-62714637D01*
X71014637Y-62514759D01*
X71170000Y-62282241D01*
X71325363Y-62514759D01*
X71525241Y-62714637D01*
X71760273Y-62871680D01*
X72021426Y-62979853D01*
X72298665Y-63035000D01*
X72581335Y-63035000D01*
X72858574Y-62979853D01*
X73119727Y-62871680D01*
X73354759Y-62714637D01*
X73554637Y-62514759D01*
X73710000Y-62282241D01*
X73865363Y-62514759D01*
X74065241Y-62714637D01*
X74300273Y-62871680D01*
X74561426Y-62979853D01*
X74838665Y-63035000D01*
X75121335Y-63035000D01*
X75398574Y-62979853D01*
X75659727Y-62871680D01*
X75894759Y-62714637D01*
X76094637Y-62514759D01*
X76250000Y-62282241D01*
X76405363Y-62514759D01*
X76605241Y-62714637D01*
X76840273Y-62871680D01*
X77101426Y-62979853D01*
X77378665Y-63035000D01*
X77661335Y-63035000D01*
X77938574Y-62979853D01*
X78199727Y-62871680D01*
X78434759Y-62714637D01*
X78634637Y-62514759D01*
X78790000Y-62282241D01*
X78945363Y-62514759D01*
X79145241Y-62714637D01*
X79380273Y-62871680D01*
X79641426Y-62979853D01*
X79918665Y-63035000D01*
X80201335Y-63035000D01*
X80478574Y-62979853D01*
X80739727Y-62871680D01*
X80974759Y-62714637D01*
X81174637Y-62514759D01*
X81330000Y-62282241D01*
X81485363Y-62514759D01*
X81685241Y-62714637D01*
X81920273Y-62871680D01*
X82181426Y-62979853D01*
X82458665Y-63035000D01*
X82741335Y-63035000D01*
X83018574Y-62979853D01*
X83279727Y-62871680D01*
X83514759Y-62714637D01*
X83714637Y-62514759D01*
X83871680Y-62279727D01*
X83979853Y-62018574D01*
X84035000Y-61741335D01*
X84035000Y-61458665D01*
X83979853Y-61181426D01*
X83871680Y-60920273D01*
X83714637Y-60685241D01*
X83514759Y-60485363D01*
X83279727Y-60328320D01*
X83018574Y-60220147D01*
X82741335Y-60165000D01*
X82458665Y-60165000D01*
X82181426Y-60220147D01*
X81920273Y-60328320D01*
X81685241Y-60485363D01*
X81485363Y-60685241D01*
X81330000Y-60917759D01*
X81174637Y-60685241D01*
X80974759Y-60485363D01*
X80739727Y-60328320D01*
X80478574Y-60220147D01*
X80201335Y-60165000D01*
X79918665Y-60165000D01*
X79641426Y-60220147D01*
X79380273Y-60328320D01*
X79145241Y-60485363D01*
X78945363Y-60685241D01*
X78790000Y-60917759D01*
X78634637Y-60685241D01*
X78434759Y-60485363D01*
X78199727Y-60328320D01*
X77938574Y-60220147D01*
X77661335Y-60165000D01*
X77378665Y-60165000D01*
X77101426Y-60220147D01*
X76840273Y-60328320D01*
X76605241Y-60485363D01*
X76405363Y-60685241D01*
X76250000Y-60917759D01*
X76094637Y-60685241D01*
X75894759Y-60485363D01*
X75659727Y-60328320D01*
X75398574Y-60220147D01*
X75121335Y-60165000D01*
X74838665Y-60165000D01*
X74561426Y-60220147D01*
X74300273Y-60328320D01*
X74065241Y-60485363D01*
X73865363Y-60685241D01*
X73710000Y-60917759D01*
X73554637Y-60685241D01*
X73354759Y-60485363D01*
X73119727Y-60328320D01*
X72858574Y-60220147D01*
X72581335Y-60165000D01*
X72298665Y-60165000D01*
X72021426Y-60220147D01*
X71760273Y-60328320D01*
X71525241Y-60485363D01*
X71325363Y-60685241D01*
X71170000Y-60917759D01*
X71014637Y-60685241D01*
X70814759Y-60485363D01*
X70579727Y-60328320D01*
X70318574Y-60220147D01*
X70041335Y-60165000D01*
X69758665Y-60165000D01*
X69481426Y-60220147D01*
X69220273Y-60328320D01*
X68985241Y-60485363D01*
X68785363Y-60685241D01*
X68628320Y-60920273D01*
X68520147Y-61181426D01*
X68465000Y-61458665D01*
X66751492Y-61458665D01*
X74725158Y-53485000D01*
X102974843Y-53485000D01*
X105191928Y-55702086D01*
X105191928Y-56970000D01*
X105204188Y-57094482D01*
X105240498Y-57214180D01*
X105299463Y-57324494D01*
X105378815Y-57421185D01*
X105475506Y-57500537D01*
X105585820Y-57559502D01*
X105658380Y-57581513D01*
X105526525Y-57713368D01*
X105364010Y-57956589D01*
X105252068Y-58226842D01*
X105195000Y-58513740D01*
X105195000Y-58806260D01*
X105252068Y-59093158D01*
X105364010Y-59363411D01*
X105526525Y-59606632D01*
X105733368Y-59813475D01*
X105907760Y-59930000D01*
X105733368Y-60046525D01*
X105526525Y-60253368D01*
X105364010Y-60496589D01*
X105252068Y-60766842D01*
X105195000Y-61053740D01*
X105195000Y-61346260D01*
X105252068Y-61633158D01*
X105364010Y-61903411D01*
X105526525Y-62146632D01*
X105733368Y-62353475D01*
X105907760Y-62470000D01*
X105733368Y-62586525D01*
X105526525Y-62793368D01*
X105364010Y-63036589D01*
X105252068Y-63306842D01*
X105195000Y-63593740D01*
X105195000Y-63886260D01*
X105252068Y-64173158D01*
X105364010Y-64443411D01*
X105526525Y-64686632D01*
X105733368Y-64893475D01*
X105976589Y-65055990D01*
X106246842Y-65167932D01*
X106533740Y-65225000D01*
X106826260Y-65225000D01*
X107113158Y-65167932D01*
X107383411Y-65055990D01*
X107626632Y-64893475D01*
X107833475Y-64686632D01*
X107995990Y-64443411D01*
X108107932Y-64173158D01*
X108165000Y-63886260D01*
X108165000Y-63593740D01*
X108107932Y-63306842D01*
X107995990Y-63036589D01*
X107833475Y-62793368D01*
X107626632Y-62586525D01*
X107452240Y-62470000D01*
X107626632Y-62353475D01*
X107833475Y-62146632D01*
X107995990Y-61903411D01*
X108107932Y-61633158D01*
X108165000Y-61346260D01*
X108165000Y-61053740D01*
X108107932Y-60766842D01*
X107995990Y-60496589D01*
X107833475Y-60253368D01*
X107626632Y-60046525D01*
X107452240Y-59930000D01*
X107626632Y-59813475D01*
X107833475Y-59606632D01*
X107995990Y-59363411D01*
X108107932Y-59093158D01*
X108165000Y-58806260D01*
X108165000Y-58513740D01*
X108107932Y-58226842D01*
X107995990Y-57956589D01*
X107833475Y-57713368D01*
X107701620Y-57581513D01*
X107774180Y-57559502D01*
X107884494Y-57500537D01*
X107981185Y-57421185D01*
X108060537Y-57324494D01*
X108119502Y-57214180D01*
X108155812Y-57094482D01*
X108168072Y-56970000D01*
X108168072Y-56358177D01*
X108193641Y-56273887D01*
X108208798Y-56120000D01*
X108193641Y-55966113D01*
X108168072Y-55881823D01*
X108168072Y-55270000D01*
X108155812Y-55145518D01*
X108119502Y-55025820D01*
X108060537Y-54915506D01*
X107981185Y-54818815D01*
X107884494Y-54739463D01*
X107774180Y-54680498D01*
X107654482Y-54644188D01*
X107530000Y-54631928D01*
X106342086Y-54631928D01*
X104085000Y-52374843D01*
X104085000Y-50192110D01*
X104964994Y-50192110D01*
X104964994Y-50376288D01*
X105000926Y-50556928D01*
X105071408Y-50727088D01*
X105173732Y-50880227D01*
X105303966Y-51010461D01*
X105457105Y-51112785D01*
X105627265Y-51183267D01*
X105728629Y-51203430D01*
X112852154Y-58326956D01*
X112815000Y-58513740D01*
X112815000Y-58806260D01*
X112872068Y-59093158D01*
X112984010Y-59363411D01*
X113146525Y-59606632D01*
X113353368Y-59813475D01*
X113527760Y-59930000D01*
X113353368Y-60046525D01*
X113146525Y-60253368D01*
X112984010Y-60496589D01*
X112872068Y-60766842D01*
X112815000Y-61053740D01*
X112815000Y-61346260D01*
X112872068Y-61633158D01*
X112984010Y-61903411D01*
X113146525Y-62146632D01*
X113278380Y-62278487D01*
X113205820Y-62300498D01*
X113095506Y-62359463D01*
X112998815Y-62438815D01*
X112919463Y-62535506D01*
X112860498Y-62645820D01*
X112824188Y-62765518D01*
X112811928Y-62890000D01*
X112811928Y-64590000D01*
X112824188Y-64714482D01*
X112860498Y-64834180D01*
X112919463Y-64944494D01*
X112998815Y-65041185D01*
X113095506Y-65120537D01*
X113205820Y-65179502D01*
X113325518Y-65215812D01*
X113450000Y-65228072D01*
X115150000Y-65228072D01*
X115274482Y-65215812D01*
X115394180Y-65179502D01*
X115504494Y-65120537D01*
X115601185Y-65041185D01*
X115680537Y-64944494D01*
X115739502Y-64834180D01*
X115775812Y-64714482D01*
X115788072Y-64590000D01*
X115788072Y-62890000D01*
X115775812Y-62765518D01*
X115739502Y-62645820D01*
X115680537Y-62535506D01*
X115601185Y-62438815D01*
X115504494Y-62359463D01*
X115394180Y-62300498D01*
X115321620Y-62278487D01*
X115453475Y-62146632D01*
X115615990Y-61903411D01*
X115727932Y-61633158D01*
X115785000Y-61346260D01*
X115785000Y-61053740D01*
X115727932Y-60766842D01*
X115615990Y-60496589D01*
X115453475Y-60253368D01*
X115246632Y-60046525D01*
X115072240Y-59930000D01*
X115246632Y-59813475D01*
X115453475Y-59606632D01*
X115615990Y-59363411D01*
X115727932Y-59093158D01*
X115785000Y-58806260D01*
X115785000Y-58513740D01*
X115727932Y-58226842D01*
X115615990Y-57956589D01*
X115453475Y-57713368D01*
X115246632Y-57506525D01*
X115064466Y-57384805D01*
X115181355Y-57315178D01*
X115397588Y-57120269D01*
X115571641Y-56886920D01*
X115696825Y-56624099D01*
X115741476Y-56476890D01*
X115620155Y-56247000D01*
X114427000Y-56247000D01*
X114427000Y-56267000D01*
X114173000Y-56267000D01*
X114173000Y-56247000D01*
X112979845Y-56247000D01*
X112959795Y-56284993D01*
X112437912Y-55763110D01*
X112858524Y-55763110D01*
X112979845Y-55993000D01*
X114173000Y-55993000D01*
X114173000Y-54799186D01*
X114427000Y-54799186D01*
X114427000Y-55993000D01*
X115620155Y-55993000D01*
X115741476Y-55763110D01*
X115696825Y-55615901D01*
X115571641Y-55353080D01*
X115397588Y-55119731D01*
X115181355Y-54924822D01*
X114931252Y-54775843D01*
X114656891Y-54678519D01*
X114427000Y-54799186D01*
X114173000Y-54799186D01*
X113943109Y-54678519D01*
X113668748Y-54775843D01*
X113418645Y-54924822D01*
X113202412Y-55119731D01*
X113028359Y-55353080D01*
X112903175Y-55615901D01*
X112858524Y-55763110D01*
X112437912Y-55763110D01*
X106827069Y-50152268D01*
X106799062Y-50011470D01*
X106728580Y-49841310D01*
X106626256Y-49688171D01*
X106496022Y-49557937D01*
X106342883Y-49455613D01*
X106172723Y-49385131D01*
X105992083Y-49349199D01*
X105807905Y-49349199D01*
X105627265Y-49385131D01*
X105457105Y-49455613D01*
X105303966Y-49557937D01*
X105173732Y-49688171D01*
X105071408Y-49841310D01*
X105000926Y-50011470D01*
X104964994Y-50192110D01*
X104085000Y-50192110D01*
X104085000Y-49025157D01*
X107525158Y-45585000D01*
X107701939Y-45585000D01*
X107901898Y-45545226D01*
X108090256Y-45467205D01*
X108259774Y-45353937D01*
X108278711Y-45335000D01*
X112824843Y-45335000D01*
X123211928Y-55722085D01*
X123211928Y-57010000D01*
X123224188Y-57134482D01*
X123260498Y-57254180D01*
X123319463Y-57364494D01*
X123398815Y-57461185D01*
X123495506Y-57540537D01*
X123605820Y-57599502D01*
X123678380Y-57621513D01*
X123546525Y-57753368D01*
X123384010Y-57996589D01*
X123272068Y-58266842D01*
X123215000Y-58553740D01*
X123215000Y-58846260D01*
X123272068Y-59133158D01*
X123384010Y-59403411D01*
X123546525Y-59646632D01*
X123753368Y-59853475D01*
X123927760Y-59970000D01*
X123753368Y-60086525D01*
X123546525Y-60293368D01*
X123384010Y-60536589D01*
X123272068Y-60806842D01*
X123215000Y-61093740D01*
X123215000Y-61386260D01*
X123272068Y-61673158D01*
X123384010Y-61943411D01*
X123546525Y-62186632D01*
X123753368Y-62393475D01*
X123927760Y-62510000D01*
X123753368Y-62626525D01*
X123546525Y-62833368D01*
X123384010Y-63076589D01*
X123272068Y-63346842D01*
X123215000Y-63633740D01*
X123215000Y-63926260D01*
X123272068Y-64213158D01*
X123384010Y-64483411D01*
X123546525Y-64726632D01*
X123753368Y-64933475D01*
X123996589Y-65095990D01*
X124266842Y-65207932D01*
X124553740Y-65265000D01*
X124846260Y-65265000D01*
X125133158Y-65207932D01*
X125403411Y-65095990D01*
X125646632Y-64933475D01*
X125853475Y-64726632D01*
X126015990Y-64483411D01*
X126127932Y-64213158D01*
X126185000Y-63926260D01*
X126185000Y-63633740D01*
X126127932Y-63346842D01*
X126015990Y-63076589D01*
X125918043Y-62930000D01*
X130821928Y-62930000D01*
X130821928Y-64630000D01*
X130834188Y-64754482D01*
X130870498Y-64874180D01*
X130929463Y-64984494D01*
X131008815Y-65081185D01*
X131105506Y-65160537D01*
X131215820Y-65219502D01*
X131335518Y-65255812D01*
X131460000Y-65268072D01*
X133160000Y-65268072D01*
X133284482Y-65255812D01*
X133404180Y-65219502D01*
X133514494Y-65160537D01*
X133611185Y-65081185D01*
X133690537Y-64984494D01*
X133749502Y-64874180D01*
X133785812Y-64754482D01*
X133798072Y-64630000D01*
X133798072Y-62930000D01*
X133785812Y-62805518D01*
X133749502Y-62685820D01*
X133690537Y-62575506D01*
X133611185Y-62478815D01*
X133514494Y-62399463D01*
X133404180Y-62340498D01*
X133331620Y-62318487D01*
X133463475Y-62186632D01*
X133625990Y-61943411D01*
X133737932Y-61673158D01*
X133795000Y-61386260D01*
X133795000Y-61093740D01*
X133737932Y-60806842D01*
X133625990Y-60536589D01*
X133463475Y-60293368D01*
X133256632Y-60086525D01*
X133082240Y-59970000D01*
X133256632Y-59853475D01*
X133463475Y-59646632D01*
X133625990Y-59403411D01*
X133737932Y-59133158D01*
X133795000Y-58846260D01*
X133795000Y-58553740D01*
X133737932Y-58266842D01*
X133625990Y-57996589D01*
X133463475Y-57753368D01*
X133256632Y-57546525D01*
X133074466Y-57424805D01*
X133191355Y-57355178D01*
X133407588Y-57160269D01*
X133581641Y-56926920D01*
X133706825Y-56664099D01*
X133751476Y-56516890D01*
X133630155Y-56287000D01*
X132437000Y-56287000D01*
X132437000Y-56307000D01*
X132183000Y-56307000D01*
X132183000Y-56287000D01*
X130989845Y-56287000D01*
X130868524Y-56516890D01*
X130913175Y-56664099D01*
X131038359Y-56926920D01*
X131212412Y-57160269D01*
X131428645Y-57355178D01*
X131545534Y-57424805D01*
X131363368Y-57546525D01*
X131156525Y-57753368D01*
X130994010Y-57996589D01*
X130882068Y-58266842D01*
X130825000Y-58553740D01*
X130825000Y-58846260D01*
X130882068Y-59133158D01*
X130994010Y-59403411D01*
X131156525Y-59646632D01*
X131363368Y-59853475D01*
X131537760Y-59970000D01*
X131363368Y-60086525D01*
X131156525Y-60293368D01*
X130994010Y-60536589D01*
X130882068Y-60806842D01*
X130825000Y-61093740D01*
X130825000Y-61386260D01*
X130882068Y-61673158D01*
X130994010Y-61943411D01*
X131156525Y-62186632D01*
X131288380Y-62318487D01*
X131215820Y-62340498D01*
X131105506Y-62399463D01*
X131008815Y-62478815D01*
X130929463Y-62575506D01*
X130870498Y-62685820D01*
X130834188Y-62805518D01*
X130821928Y-62930000D01*
X125918043Y-62930000D01*
X125853475Y-62833368D01*
X125646632Y-62626525D01*
X125472240Y-62510000D01*
X125646632Y-62393475D01*
X125853475Y-62186632D01*
X126015990Y-61943411D01*
X126127932Y-61673158D01*
X126185000Y-61386260D01*
X126185000Y-61093740D01*
X126127932Y-60806842D01*
X126015990Y-60536589D01*
X125853475Y-60293368D01*
X125646632Y-60086525D01*
X125472240Y-59970000D01*
X125646632Y-59853475D01*
X125853475Y-59646632D01*
X126015990Y-59403411D01*
X126127932Y-59133158D01*
X126185000Y-58846260D01*
X126185000Y-58553740D01*
X126127932Y-58266842D01*
X126015990Y-57996589D01*
X125853475Y-57753368D01*
X125721620Y-57621513D01*
X125794180Y-57599502D01*
X125904494Y-57540537D01*
X126001185Y-57461185D01*
X126080537Y-57364494D01*
X126139502Y-57254180D01*
X126175812Y-57134482D01*
X126188072Y-57010000D01*
X126188072Y-55803110D01*
X130868524Y-55803110D01*
X130989845Y-56033000D01*
X132183000Y-56033000D01*
X132183000Y-54839186D01*
X132437000Y-54839186D01*
X132437000Y-56033000D01*
X133630155Y-56033000D01*
X133751476Y-55803110D01*
X133706825Y-55655901D01*
X133581641Y-55393080D01*
X133407588Y-55159731D01*
X133191355Y-54964822D01*
X132941252Y-54815843D01*
X132666891Y-54718519D01*
X132437000Y-54839186D01*
X132183000Y-54839186D01*
X131953109Y-54718519D01*
X131678748Y-54815843D01*
X131428645Y-54964822D01*
X131212412Y-55159731D01*
X131038359Y-55393080D01*
X130913175Y-55655901D01*
X130868524Y-55803110D01*
X126188072Y-55803110D01*
X126188072Y-55310000D01*
X126175812Y-55185518D01*
X126139502Y-55065820D01*
X126080537Y-54955506D01*
X126001185Y-54858815D01*
X125904494Y-54779463D01*
X125794180Y-54720498D01*
X125674482Y-54684188D01*
X125550000Y-54671928D01*
X124382085Y-54671928D01*
X113732347Y-44022190D01*
X113707764Y-43992236D01*
X113588233Y-43894138D01*
X113451860Y-43821246D01*
X113303887Y-43776359D01*
X113188561Y-43765000D01*
X113188553Y-43765000D01*
X113150000Y-43761203D01*
X113111447Y-43765000D01*
X108278711Y-43765000D01*
X108259774Y-43746063D01*
X108090256Y-43632795D01*
X107901898Y-43554774D01*
X107701939Y-43515000D01*
X107498061Y-43515000D01*
X107298102Y-43554774D01*
X107109744Y-43632795D01*
X106940226Y-43746063D01*
X106796063Y-43890226D01*
X106682795Y-44059744D01*
X106604774Y-44248102D01*
X106595595Y-44294247D01*
X102772185Y-48117658D01*
X102742237Y-48142236D01*
X102717659Y-48172184D01*
X102717655Y-48172188D01*
X102684690Y-48212356D01*
X102644139Y-48261767D01*
X102605177Y-48334660D01*
X102571246Y-48398141D01*
X102526359Y-48546114D01*
X102511203Y-48700000D01*
X102515001Y-48738563D01*
X102515000Y-51915000D01*
X74438552Y-51915000D01*
X74399999Y-51911203D01*
X74361446Y-51915000D01*
X74361439Y-51915000D01*
X74260490Y-51924943D01*
X74246112Y-51926359D01*
X74211672Y-51936806D01*
X74098140Y-51971246D01*
X73961767Y-52044138D01*
X73901559Y-52093550D01*
X73872187Y-52117655D01*
X73872184Y-52117658D01*
X73842236Y-52142236D01*
X73817658Y-52172184D01*
X52472190Y-73517653D01*
X52442236Y-73542236D01*
X52344138Y-73661768D01*
X52271246Y-73798141D01*
X52226359Y-73946114D01*
X52215000Y-74061440D01*
X52215000Y-74061447D01*
X52211203Y-74100000D01*
X52215000Y-74138553D01*
X52215001Y-89811430D01*
X52215000Y-89811440D01*
X52215001Y-106754943D01*
X52111829Y-106705065D01*
X51809627Y-106626621D01*
X51497927Y-106608641D01*
X51188709Y-106651816D01*
X50893856Y-106754487D01*
X50885000Y-106759221D01*
X50885000Y-47458665D01*
X68465000Y-47458665D01*
X68465000Y-47741335D01*
X68520147Y-48018574D01*
X68628320Y-48279727D01*
X68785363Y-48514759D01*
X68985241Y-48714637D01*
X69220273Y-48871680D01*
X69481426Y-48979853D01*
X69758665Y-49035000D01*
X70041335Y-49035000D01*
X70318574Y-48979853D01*
X70579727Y-48871680D01*
X70814759Y-48714637D01*
X71014637Y-48514759D01*
X71170000Y-48282241D01*
X71325363Y-48514759D01*
X71525241Y-48714637D01*
X71760273Y-48871680D01*
X72021426Y-48979853D01*
X72298665Y-49035000D01*
X72581335Y-49035000D01*
X72858574Y-48979853D01*
X73119727Y-48871680D01*
X73354759Y-48714637D01*
X73554637Y-48514759D01*
X73710000Y-48282241D01*
X73865363Y-48514759D01*
X74065241Y-48714637D01*
X74300273Y-48871680D01*
X74561426Y-48979853D01*
X74838665Y-49035000D01*
X75121335Y-49035000D01*
X75398574Y-48979853D01*
X75659727Y-48871680D01*
X75894759Y-48714637D01*
X76094637Y-48514759D01*
X76250000Y-48282241D01*
X76405363Y-48514759D01*
X76605241Y-48714637D01*
X76840273Y-48871680D01*
X77101426Y-48979853D01*
X77378665Y-49035000D01*
X77661335Y-49035000D01*
X77938574Y-48979853D01*
X78199727Y-48871680D01*
X78434759Y-48714637D01*
X78634637Y-48514759D01*
X78790000Y-48282241D01*
X78945363Y-48514759D01*
X79145241Y-48714637D01*
X79380273Y-48871680D01*
X79641426Y-48979853D01*
X79918665Y-49035000D01*
X80201335Y-49035000D01*
X80478574Y-48979853D01*
X80739727Y-48871680D01*
X80974759Y-48714637D01*
X81174637Y-48514759D01*
X81330000Y-48282241D01*
X81485363Y-48514759D01*
X81685241Y-48714637D01*
X81920273Y-48871680D01*
X82181426Y-48979853D01*
X82458665Y-49035000D01*
X82741335Y-49035000D01*
X83018574Y-48979853D01*
X83279727Y-48871680D01*
X83514759Y-48714637D01*
X83714637Y-48514759D01*
X83871680Y-48279727D01*
X83979853Y-48018574D01*
X84035000Y-47741335D01*
X84035000Y-47458665D01*
X83979853Y-47181426D01*
X83871680Y-46920273D01*
X83714637Y-46685241D01*
X83514759Y-46485363D01*
X83279727Y-46328320D01*
X83018574Y-46220147D01*
X82741335Y-46165000D01*
X82458665Y-46165000D01*
X82181426Y-46220147D01*
X81920273Y-46328320D01*
X81685241Y-46485363D01*
X81485363Y-46685241D01*
X81330000Y-46917759D01*
X81174637Y-46685241D01*
X80974759Y-46485363D01*
X80739727Y-46328320D01*
X80478574Y-46220147D01*
X80201335Y-46165000D01*
X79918665Y-46165000D01*
X79641426Y-46220147D01*
X79380273Y-46328320D01*
X79145241Y-46485363D01*
X78945363Y-46685241D01*
X78790000Y-46917759D01*
X78634637Y-46685241D01*
X78434759Y-46485363D01*
X78199727Y-46328320D01*
X77938574Y-46220147D01*
X77661335Y-46165000D01*
X77378665Y-46165000D01*
X77101426Y-46220147D01*
X76840273Y-46328320D01*
X76605241Y-46485363D01*
X76405363Y-46685241D01*
X76250000Y-46917759D01*
X76094637Y-46685241D01*
X75894759Y-46485363D01*
X75659727Y-46328320D01*
X75398574Y-46220147D01*
X75121335Y-46165000D01*
X74838665Y-46165000D01*
X74561426Y-46220147D01*
X74300273Y-46328320D01*
X74065241Y-46485363D01*
X73865363Y-46685241D01*
X73710000Y-46917759D01*
X73554637Y-46685241D01*
X73354759Y-46485363D01*
X73119727Y-46328320D01*
X72858574Y-46220147D01*
X72581335Y-46165000D01*
X72298665Y-46165000D01*
X72021426Y-46220147D01*
X71760273Y-46328320D01*
X71525241Y-46485363D01*
X71325363Y-46685241D01*
X71170000Y-46917759D01*
X71014637Y-46685241D01*
X70814759Y-46485363D01*
X70579727Y-46328320D01*
X70318574Y-46220147D01*
X70041335Y-46165000D01*
X69758665Y-46165000D01*
X69481426Y-46220147D01*
X69220273Y-46328320D01*
X68985241Y-46485363D01*
X68785363Y-46685241D01*
X68628320Y-46920273D01*
X68520147Y-47181426D01*
X68465000Y-47458665D01*
X50885000Y-47458665D01*
X50885000Y-45039410D01*
X50953497Y-44271919D01*
X51146381Y-43566853D01*
X51461075Y-42907084D01*
X51480014Y-42880727D01*
X51789000Y-42880727D01*
X51789000Y-43119273D01*
X51835538Y-43353236D01*
X51926825Y-43573624D01*
X52059354Y-43771968D01*
X52228032Y-43940646D01*
X52426376Y-44073175D01*
X52646764Y-44164462D01*
X52880727Y-44211000D01*
X53119273Y-44211000D01*
X53353236Y-44164462D01*
X53573624Y-44073175D01*
X53771968Y-43940646D01*
X53940646Y-43771968D01*
X54073175Y-43573624D01*
X54164462Y-43353236D01*
X54211000Y-43119273D01*
X54211000Y-42880727D01*
X54164462Y-42646764D01*
X54073175Y-42426376D01*
X53940646Y-42228032D01*
X53771968Y-42059354D01*
X53573624Y-41926825D01*
X53353236Y-41835538D01*
X53119273Y-41789000D01*
X52880727Y-41789000D01*
X52646764Y-41835538D01*
X52426376Y-41926825D01*
X52228032Y-42059354D01*
X52059354Y-42228032D01*
X51926825Y-42426376D01*
X51835538Y-42646764D01*
X51789000Y-42880727D01*
X51480014Y-42880727D01*
X51887628Y-42313473D01*
X52412559Y-41804779D01*
X53019279Y-41397080D01*
X53688605Y-41103266D01*
X54406191Y-40930989D01*
X55032447Y-40885000D01*
X144960590Y-40885000D01*
X145728081Y-40953497D01*
G37*
%TD.AperFunction*%
D19*
X76161928Y-90720000D02*
X76174188Y-90844482D01*
X76210498Y-90964180D01*
X76269463Y-91074494D01*
X76348815Y-91171185D01*
X76445506Y-91250537D01*
X76555820Y-91309502D01*
X76628380Y-91331513D01*
X76496525Y-91463368D01*
X76334010Y-91706589D01*
X76222068Y-91976842D01*
X76165000Y-92263740D01*
X76165000Y-92556260D01*
X76222068Y-92843158D01*
X76334010Y-93113411D01*
X76496525Y-93356632D01*
X76703368Y-93563475D01*
X76877760Y-93680000D01*
X76703368Y-93796525D01*
X76496525Y-94003368D01*
X76334010Y-94246589D01*
X76222068Y-94516842D01*
X76165000Y-94803740D01*
X76165000Y-95096260D01*
X76222068Y-95383158D01*
X76261424Y-95478173D01*
X76207753Y-95494454D01*
X76075724Y-95565026D01*
X76075722Y-95565027D01*
X76075723Y-95565027D01*
X75988996Y-95636201D01*
X75988992Y-95636205D01*
X75959999Y-95659999D01*
X75936205Y-95688992D01*
X75485198Y-96140000D01*
X71837322Y-96140000D01*
X71799999Y-96136324D01*
X71762676Y-96140000D01*
X71762667Y-96140000D01*
X71651014Y-96150997D01*
X71507753Y-96194454D01*
X71375724Y-96265026D01*
X71364777Y-96274010D01*
X71288996Y-96336201D01*
X71288992Y-96336205D01*
X71259999Y-96359999D01*
X71236205Y-96388992D01*
X59088998Y-108536201D01*
X59060000Y-108559999D01*
X59036202Y-108588997D01*
X59036201Y-108588998D01*
X58965026Y-108675724D01*
X58894454Y-108807754D01*
X58889003Y-108825725D01*
X58850998Y-108951014D01*
X58843177Y-109030421D01*
X58836324Y-109100000D01*
X58840001Y-109137332D01*
X58840001Y-109516033D01*
X58790256Y-109482795D01*
X58601898Y-109404774D01*
X58401939Y-109365000D01*
X58198061Y-109365000D01*
X57998102Y-109404774D01*
X57809744Y-109482795D01*
X57640226Y-109596063D01*
X57621289Y-109615000D01*
X56978711Y-109615000D01*
X56959774Y-109596063D01*
X56790256Y-109482795D01*
X56601898Y-109404774D01*
X56401939Y-109365000D01*
X56198061Y-109365000D01*
X55998102Y-109404774D01*
X55809744Y-109482795D01*
X55640226Y-109596063D01*
X55621289Y-109615000D01*
X55561003Y-109615000D01*
X55615219Y-109394151D01*
X55627104Y-109126518D01*
X55586548Y-108861709D01*
X55495109Y-108609900D01*
X55437950Y-108502965D01*
X55201633Y-108440472D01*
X54442105Y-109200000D01*
X54456248Y-109214143D01*
X54276643Y-109393748D01*
X54262500Y-109379605D01*
X54248358Y-109393748D01*
X54068753Y-109214143D01*
X54082895Y-109200000D01*
X54068753Y-109185858D01*
X54248358Y-109006253D01*
X54262500Y-109020395D01*
X55022028Y-108260867D01*
X54959535Y-108024550D01*
X54716822Y-107911150D01*
X54456651Y-107847281D01*
X54189018Y-107835396D01*
X53924209Y-107875952D01*
X53785000Y-107926503D01*
X53785000Y-90655000D01*
X76161928Y-90655000D01*
X76161928Y-90720000D01*
%TA.AperFunction,Conductor*%
D20*
G36*
X76161928Y-90720000D02*
G01*
X76174188Y-90844482D01*
X76210498Y-90964180D01*
X76269463Y-91074494D01*
X76348815Y-91171185D01*
X76445506Y-91250537D01*
X76555820Y-91309502D01*
X76628380Y-91331513D01*
X76496525Y-91463368D01*
X76334010Y-91706589D01*
X76222068Y-91976842D01*
X76165000Y-92263740D01*
X76165000Y-92556260D01*
X76222068Y-92843158D01*
X76334010Y-93113411D01*
X76496525Y-93356632D01*
X76703368Y-93563475D01*
X76877760Y-93680000D01*
X76703368Y-93796525D01*
X76496525Y-94003368D01*
X76334010Y-94246589D01*
X76222068Y-94516842D01*
X76165000Y-94803740D01*
X76165000Y-95096260D01*
X76222068Y-95383158D01*
X76261424Y-95478173D01*
X76207753Y-95494454D01*
X76075724Y-95565026D01*
X76075722Y-95565027D01*
X76075723Y-95565027D01*
X75988996Y-95636201D01*
X75988992Y-95636205D01*
X75959999Y-95659999D01*
X75936205Y-95688992D01*
X75485198Y-96140000D01*
X71837322Y-96140000D01*
X71799999Y-96136324D01*
X71762676Y-96140000D01*
X71762667Y-96140000D01*
X71651014Y-96150997D01*
X71507753Y-96194454D01*
X71375724Y-96265026D01*
X71364777Y-96274010D01*
X71288996Y-96336201D01*
X71288992Y-96336205D01*
X71259999Y-96359999D01*
X71236205Y-96388992D01*
X59088998Y-108536201D01*
X59060000Y-108559999D01*
X59036202Y-108588997D01*
X59036201Y-108588998D01*
X58965026Y-108675724D01*
X58894454Y-108807754D01*
X58889003Y-108825725D01*
X58850998Y-108951014D01*
X58843177Y-109030421D01*
X58836324Y-109100000D01*
X58840001Y-109137332D01*
X58840001Y-109516033D01*
X58790256Y-109482795D01*
X58601898Y-109404774D01*
X58401939Y-109365000D01*
X58198061Y-109365000D01*
X57998102Y-109404774D01*
X57809744Y-109482795D01*
X57640226Y-109596063D01*
X57621289Y-109615000D01*
X56978711Y-109615000D01*
X56959774Y-109596063D01*
X56790256Y-109482795D01*
X56601898Y-109404774D01*
X56401939Y-109365000D01*
X56198061Y-109365000D01*
X55998102Y-109404774D01*
X55809744Y-109482795D01*
X55640226Y-109596063D01*
X55621289Y-109615000D01*
X55561003Y-109615000D01*
X55615219Y-109394151D01*
X55627104Y-109126518D01*
X55586548Y-108861709D01*
X55495109Y-108609900D01*
X55437950Y-108502965D01*
X55201633Y-108440472D01*
X54442105Y-109200000D01*
X54456248Y-109214143D01*
X54276643Y-109393748D01*
X54262500Y-109379605D01*
X54248358Y-109393748D01*
X54068753Y-109214143D01*
X54082895Y-109200000D01*
X54068753Y-109185858D01*
X54248358Y-109006253D01*
X54262500Y-109020395D01*
X55022028Y-108260867D01*
X54959535Y-108024550D01*
X54716822Y-107911150D01*
X54456651Y-107847281D01*
X54189018Y-107835396D01*
X53924209Y-107875952D01*
X53785000Y-107926503D01*
X53785000Y-90655000D01*
X76161928Y-90655000D01*
X76161928Y-90720000D01*
G37*
%TD.AperFunction*%
D19*
X51756248Y-108185858D02*
X51742105Y-108200000D01*
X51756248Y-108214143D01*
X51576643Y-108393748D01*
X51562500Y-108379605D01*
X51548358Y-108393748D01*
X51368753Y-108214143D01*
X51382895Y-108200000D01*
X51368753Y-108185858D01*
X51548358Y-108006253D01*
X51562500Y-108020395D01*
X51576643Y-108006253D01*
X51756248Y-108185858D01*
%TA.AperFunction,Conductor*%
D20*
G36*
X51756248Y-108185858D02*
G01*
X51742105Y-108200000D01*
X51756248Y-108214143D01*
X51576643Y-108393748D01*
X51562500Y-108379605D01*
X51548358Y-108393748D01*
X51368753Y-108214143D01*
X51382895Y-108200000D01*
X51368753Y-108185858D01*
X51548358Y-108006253D01*
X51562500Y-108020395D01*
X51576643Y-108006253D01*
X51756248Y-108185858D01*
G37*
%TD.AperFunction*%
D19*
X83815000Y-95106260D02*
X83872068Y-95393158D01*
X83984010Y-95663411D01*
X84146525Y-95906632D01*
X84278380Y-96038487D01*
X84205820Y-96060498D01*
X84095506Y-96119463D01*
X83998815Y-96198815D01*
X83919463Y-96295506D01*
X83860498Y-96405820D01*
X83824188Y-96525518D01*
X83811928Y-96650000D01*
X83811928Y-98240000D01*
X79514803Y-98240000D01*
X79097846Y-97823044D01*
X79135000Y-97636260D01*
X79135000Y-97343740D01*
X79077932Y-97056842D01*
X79037819Y-96960000D01*
X81482678Y-96960000D01*
X81520000Y-96963676D01*
X81557322Y-96960000D01*
X81557333Y-96960000D01*
X81668986Y-96949003D01*
X81812247Y-96905546D01*
X81944276Y-96834974D01*
X82060001Y-96740001D01*
X82083804Y-96710997D01*
X83815000Y-94979801D01*
X83815000Y-95106260D01*
%TA.AperFunction,Conductor*%
D20*
G36*
X83815000Y-95106260D02*
G01*
X83872068Y-95393158D01*
X83984010Y-95663411D01*
X84146525Y-95906632D01*
X84278380Y-96038487D01*
X84205820Y-96060498D01*
X84095506Y-96119463D01*
X83998815Y-96198815D01*
X83919463Y-96295506D01*
X83860498Y-96405820D01*
X83824188Y-96525518D01*
X83811928Y-96650000D01*
X83811928Y-98240000D01*
X79514803Y-98240000D01*
X79097846Y-97823044D01*
X79135000Y-97636260D01*
X79135000Y-97343740D01*
X79077932Y-97056842D01*
X79037819Y-96960000D01*
X81482678Y-96960000D01*
X81520000Y-96963676D01*
X81557322Y-96960000D01*
X81557333Y-96960000D01*
X81668986Y-96949003D01*
X81812247Y-96905546D01*
X81944276Y-96834974D01*
X82060001Y-96740001D01*
X82083804Y-96710997D01*
X83815000Y-94979801D01*
X83815000Y-95106260D01*
G37*
%TD.AperFunction*%
D19*
X101065000Y-92363740D02*
X101065000Y-92656260D01*
X101122068Y-92943158D01*
X101234010Y-93213411D01*
X101396525Y-93456632D01*
X101603368Y-93663475D01*
X101777760Y-93780000D01*
X101603368Y-93896525D01*
X101396525Y-94103368D01*
X101234010Y-94346589D01*
X101122068Y-94616842D01*
X101065000Y-94903740D01*
X101065000Y-95196260D01*
X101122068Y-95483158D01*
X101234010Y-95753411D01*
X101396525Y-95996632D01*
X101603368Y-96203475D01*
X101777760Y-96320000D01*
X101603368Y-96436525D01*
X101396525Y-96643368D01*
X101234010Y-96886589D01*
X101122068Y-97156842D01*
X101065000Y-97443740D01*
X101065000Y-97736260D01*
X101085563Y-97839636D01*
X100685199Y-98240000D01*
X86788072Y-98240000D01*
X86788072Y-96650000D01*
X86775812Y-96525518D01*
X86739502Y-96405820D01*
X86680537Y-96295506D01*
X86601185Y-96198815D01*
X86504494Y-96119463D01*
X86394180Y-96060498D01*
X86321620Y-96038487D01*
X86453475Y-95906632D01*
X86615990Y-95663411D01*
X86727932Y-95393158D01*
X86785000Y-95106260D01*
X86785000Y-94813740D01*
X86727932Y-94526842D01*
X86615990Y-94256589D01*
X86453475Y-94013368D01*
X86246632Y-93806525D01*
X86072240Y-93690000D01*
X86246632Y-93573475D01*
X86453475Y-93366632D01*
X86615990Y-93123411D01*
X86727932Y-92853158D01*
X86785000Y-92566260D01*
X86785000Y-92273740D01*
X86749446Y-92094999D01*
X101118456Y-92094999D01*
X101065000Y-92363740D01*
%TA.AperFunction,Conductor*%
D20*
G36*
X101065000Y-92363740D02*
G01*
X101065000Y-92656260D01*
X101122068Y-92943158D01*
X101234010Y-93213411D01*
X101396525Y-93456632D01*
X101603368Y-93663475D01*
X101777760Y-93780000D01*
X101603368Y-93896525D01*
X101396525Y-94103368D01*
X101234010Y-94346589D01*
X101122068Y-94616842D01*
X101065000Y-94903740D01*
X101065000Y-95196260D01*
X101122068Y-95483158D01*
X101234010Y-95753411D01*
X101396525Y-95996632D01*
X101603368Y-96203475D01*
X101777760Y-96320000D01*
X101603368Y-96436525D01*
X101396525Y-96643368D01*
X101234010Y-96886589D01*
X101122068Y-97156842D01*
X101065000Y-97443740D01*
X101065000Y-97736260D01*
X101085563Y-97839636D01*
X100685199Y-98240000D01*
X86788072Y-98240000D01*
X86788072Y-96650000D01*
X86775812Y-96525518D01*
X86739502Y-96405820D01*
X86680537Y-96295506D01*
X86601185Y-96198815D01*
X86504494Y-96119463D01*
X86394180Y-96060498D01*
X86321620Y-96038487D01*
X86453475Y-95906632D01*
X86615990Y-95663411D01*
X86727932Y-95393158D01*
X86785000Y-95106260D01*
X86785000Y-94813740D01*
X86727932Y-94526842D01*
X86615990Y-94256589D01*
X86453475Y-94013368D01*
X86246632Y-93806525D01*
X86072240Y-93690000D01*
X86246632Y-93573475D01*
X86453475Y-93366632D01*
X86615990Y-93123411D01*
X86727932Y-92853158D01*
X86785000Y-92566260D01*
X86785000Y-92273740D01*
X86749446Y-92094999D01*
X101118456Y-92094999D01*
X101065000Y-92363740D01*
G37*
%TD.AperFunction*%
D19*
X97787653Y-90497810D02*
X97812236Y-90527764D01*
X97869791Y-90574999D01*
X86605898Y-90574999D01*
X86696825Y-90384099D01*
X86741476Y-90236890D01*
X86620155Y-90007000D01*
X85427000Y-90007000D01*
X85427000Y-90027000D01*
X85173000Y-90027000D01*
X85173000Y-90007000D01*
X83979845Y-90007000D01*
X83858524Y-90236890D01*
X83903175Y-90384099D01*
X84028359Y-90646920D01*
X84202412Y-90880269D01*
X84418645Y-91075178D01*
X84535534Y-91144805D01*
X84353368Y-91266525D01*
X84146525Y-91473368D01*
X83984010Y-91716589D01*
X83872068Y-91986842D01*
X83815000Y-92273740D01*
X83815000Y-92566260D01*
X83858790Y-92786408D01*
X81205199Y-95440000D01*
X79054387Y-95440000D01*
X79077932Y-95383158D01*
X79135000Y-95096260D01*
X79135000Y-94803740D01*
X79077932Y-94516842D01*
X78965990Y-94246589D01*
X78803475Y-94003368D01*
X78596632Y-93796525D01*
X78422240Y-93680000D01*
X78596632Y-93563475D01*
X78803475Y-93356632D01*
X78965990Y-93113411D01*
X79077932Y-92843158D01*
X79135000Y-92556260D01*
X79135000Y-92263740D01*
X79077932Y-91976842D01*
X78965990Y-91706589D01*
X78803475Y-91463368D01*
X78671620Y-91331513D01*
X78744180Y-91309502D01*
X78854494Y-91250537D01*
X78951185Y-91171185D01*
X79030537Y-91074494D01*
X79089502Y-90964180D01*
X79125812Y-90844482D01*
X79138072Y-90720000D01*
X79138072Y-89523110D01*
X83858524Y-89523110D01*
X83979845Y-89753000D01*
X85173000Y-89753000D01*
X85173000Y-88559186D01*
X85427000Y-88559186D01*
X85427000Y-89753000D01*
X86620155Y-89753000D01*
X86741476Y-89523110D01*
X86696825Y-89375901D01*
X86571641Y-89113080D01*
X86397588Y-88879731D01*
X86181355Y-88684822D01*
X85931252Y-88535843D01*
X85656891Y-88438519D01*
X85427000Y-88559186D01*
X85173000Y-88559186D01*
X84943109Y-88438519D01*
X84668748Y-88535843D01*
X84418645Y-88684822D01*
X84202412Y-88879731D01*
X84028359Y-89113080D01*
X83903175Y-89375901D01*
X83858524Y-89523110D01*
X79138072Y-89523110D01*
X79138072Y-89492085D01*
X81845158Y-86785000D01*
X94074843Y-86785000D01*
X97787653Y-90497810D01*
%TA.AperFunction,Conductor*%
D20*
G36*
X97787653Y-90497810D02*
G01*
X97812236Y-90527764D01*
X97869791Y-90574999D01*
X86605898Y-90574999D01*
X86696825Y-90384099D01*
X86741476Y-90236890D01*
X86620155Y-90007000D01*
X85427000Y-90007000D01*
X85427000Y-90027000D01*
X85173000Y-90027000D01*
X85173000Y-90007000D01*
X83979845Y-90007000D01*
X83858524Y-90236890D01*
X83903175Y-90384099D01*
X84028359Y-90646920D01*
X84202412Y-90880269D01*
X84418645Y-91075178D01*
X84535534Y-91144805D01*
X84353368Y-91266525D01*
X84146525Y-91473368D01*
X83984010Y-91716589D01*
X83872068Y-91986842D01*
X83815000Y-92273740D01*
X83815000Y-92566260D01*
X83858790Y-92786408D01*
X81205199Y-95440000D01*
X79054387Y-95440000D01*
X79077932Y-95383158D01*
X79135000Y-95096260D01*
X79135000Y-94803740D01*
X79077932Y-94516842D01*
X78965990Y-94246589D01*
X78803475Y-94003368D01*
X78596632Y-93796525D01*
X78422240Y-93680000D01*
X78596632Y-93563475D01*
X78803475Y-93356632D01*
X78965990Y-93113411D01*
X79077932Y-92843158D01*
X79135000Y-92556260D01*
X79135000Y-92263740D01*
X79077932Y-91976842D01*
X78965990Y-91706589D01*
X78803475Y-91463368D01*
X78671620Y-91331513D01*
X78744180Y-91309502D01*
X78854494Y-91250537D01*
X78951185Y-91171185D01*
X79030537Y-91074494D01*
X79089502Y-90964180D01*
X79125812Y-90844482D01*
X79138072Y-90720000D01*
X79138072Y-89523110D01*
X83858524Y-89523110D01*
X83979845Y-89753000D01*
X85173000Y-89753000D01*
X85173000Y-88559186D01*
X85427000Y-88559186D01*
X85427000Y-89753000D01*
X86620155Y-89753000D01*
X86741476Y-89523110D01*
X86696825Y-89375901D01*
X86571641Y-89113080D01*
X86397588Y-88879731D01*
X86181355Y-88684822D01*
X85931252Y-88535843D01*
X85656891Y-88438519D01*
X85427000Y-88559186D01*
X85173000Y-88559186D01*
X84943109Y-88438519D01*
X84668748Y-88535843D01*
X84418645Y-88684822D01*
X84202412Y-88879731D01*
X84028359Y-89113080D01*
X83903175Y-89375901D01*
X83858524Y-89523110D01*
X79138072Y-89523110D01*
X79138072Y-89492085D01*
X81845158Y-86785000D01*
X94074843Y-86785000D01*
X97787653Y-90497810D01*
G37*
%TD.AperFunction*%
%TD*%
M02*
