%TF.GenerationSoftware,KiCad,Pcbnew,(5.1.9-0-10_14)*%
%TF.CreationDate,2021-03-10T21:41:09+01:00*%
%TF.ProjectId,MC5000_Board,4d433530-3030-45f4-926f-6172642e6b69,rev?*%
%TF.SameCoordinates,Original*%
%TF.FileFunction,Soldermask,Bot*%
%TF.FilePolarity,Negative*%
%FSLAX46Y46*%
G04 Gerber Fmt 4.6, Leading zero omitted, Abs format (unit mm)*
G04 Created by KiCad (PCBNEW (5.1.9-0-10_14)) date 2021-03-10 21:41:09*
%MOMM*%
%LPD*%
G01*
G04 APERTURE LIST*
%ADD10C,1.448000*%
%ADD11C,1.600000*%
%ADD12O,1.700000X1.700000*%
%ADD13R,1.700000X1.700000*%
%ADD14C,1.900000*%
%ADD15C,1.450000*%
G04 APERTURE END LIST*
D10*
%TO.C,REF\u002A\u002A*%
X53000000Y-43000000D03*
%TD*%
%TO.C,REF\u002A\u002A*%
X147000000Y-118000000D03*
%TD*%
%TO.C,REF\u002A\u002A*%
X53000000Y-118000000D03*
%TD*%
D11*
%TO.C,DS1*%
X82600000Y-61600000D03*
X80060000Y-61600000D03*
X77520000Y-61600000D03*
X74980000Y-61600000D03*
X72440000Y-61600000D03*
X69900000Y-61600000D03*
X82600000Y-47600000D03*
X80060000Y-47600000D03*
X77520000Y-47600000D03*
X74980000Y-47600000D03*
X72440000Y-47600000D03*
X69900000Y-47600000D03*
%TD*%
D12*
%TO.C,J25*%
X125200000Y-84460000D03*
X125200000Y-81920000D03*
X125200000Y-79380000D03*
X125200000Y-76840000D03*
D13*
X125200000Y-74300000D03*
%TD*%
D12*
%TO.C,J24*%
X125250000Y-98520000D03*
X125250000Y-95980000D03*
X125250000Y-93440000D03*
D13*
X125250000Y-90900000D03*
%TD*%
D12*
%TO.C,J23*%
X132310000Y-56160000D03*
X132310000Y-58700000D03*
X132310000Y-61240000D03*
D13*
X132310000Y-63780000D03*
%TD*%
D12*
%TO.C,J22*%
X124700000Y-63780000D03*
X124700000Y-61240000D03*
X124700000Y-58700000D03*
D13*
X124700000Y-56160000D03*
%TD*%
D12*
%TO.C,J21*%
X110200000Y-89980000D03*
X110200000Y-92520000D03*
X110200000Y-95060000D03*
D13*
X110200000Y-97600000D03*
%TD*%
D12*
%TO.C,J20*%
X110420000Y-80900000D03*
X107880000Y-80900000D03*
X105340000Y-80900000D03*
D13*
X102800000Y-80900000D03*
%TD*%
D12*
%TO.C,J19*%
X102550000Y-97590000D03*
X102550000Y-95050000D03*
X102550000Y-92510000D03*
D13*
X102550000Y-89970000D03*
%TD*%
D12*
%TO.C,J18*%
X85300000Y-89880000D03*
X85300000Y-92420000D03*
X85300000Y-94960000D03*
D13*
X85300000Y-97500000D03*
%TD*%
D12*
%TO.C,J17*%
X85520000Y-80800000D03*
X82980000Y-80800000D03*
X80440000Y-80800000D03*
D13*
X77900000Y-80800000D03*
%TD*%
D12*
%TO.C,J16*%
X77650000Y-97490000D03*
X77650000Y-94950000D03*
X77650000Y-92410000D03*
D13*
X77650000Y-89870000D03*
%TD*%
D12*
%TO.C,J15*%
X114300000Y-56120000D03*
X114300000Y-58660000D03*
X114300000Y-61200000D03*
D13*
X114300000Y-63740000D03*
%TD*%
D12*
%TO.C,J14*%
X106680000Y-63740000D03*
X106680000Y-61200000D03*
X106680000Y-58660000D03*
D13*
X106680000Y-56120000D03*
%TD*%
D14*
%TO.C,J1*%
X51562500Y-115200000D03*
X51562500Y-108200000D03*
D15*
X54262500Y-114200000D03*
X54262500Y-109200000D03*
%TD*%
M02*
