%TF.GenerationSoftware,KiCad,Pcbnew,(5.1.9-0-10_14)*%
%TF.CreationDate,2021-03-10T21:41:09+01:00*%
%TF.ProjectId,MC5000_Board,4d433530-3030-45f4-926f-6172642e6b69,rev?*%
%TF.SameCoordinates,Original*%
%TF.FileFunction,Paste,Top*%
%TF.FilePolarity,Positive*%
%FSLAX46Y46*%
G04 Gerber Fmt 4.6, Leading zero omitted, Abs format (unit mm)*
G04 Created by KiCad (PCBNEW (5.1.9-0-10_14)) date 2021-03-10 21:41:09*
%MOMM*%
%LPD*%
G01*
G04 APERTURE LIST*
%ADD10R,0.900000X0.800000*%
%ADD11R,1.400000X0.300000*%
%ADD12R,2.800000X1.000000*%
%ADD13R,1.100000X1.100000*%
%ADD14R,2.500000X2.500000*%
%ADD15R,1.900000X1.500000*%
%ADD16R,1.350000X0.400000*%
G04 APERTURE END LIST*
D10*
%TO.C,Q1*%
X143130000Y-61950000D03*
X141130000Y-62900000D03*
X141130000Y-61000000D03*
%TD*%
D11*
%TO.C,U5*%
X61200000Y-111900000D03*
X61200000Y-111400000D03*
X61200000Y-110900000D03*
X61200000Y-110400000D03*
X61200000Y-109900000D03*
X65600000Y-109900000D03*
X65600000Y-110400000D03*
X65600000Y-110900000D03*
X65600000Y-111400000D03*
X65600000Y-111900000D03*
%TD*%
%TO.C,R27*%
G36*
G01*
X111025000Y-67387500D02*
X111025000Y-66912500D01*
G75*
G02*
X111262500Y-66675000I237500J0D01*
G01*
X111762500Y-66675000D01*
G75*
G02*
X112000000Y-66912500I0J-237500D01*
G01*
X112000000Y-67387500D01*
G75*
G02*
X111762500Y-67625000I-237500J0D01*
G01*
X111262500Y-67625000D01*
G75*
G02*
X111025000Y-67387500I0J237500D01*
G01*
G37*
G36*
G01*
X109200000Y-67387500D02*
X109200000Y-66912500D01*
G75*
G02*
X109437500Y-66675000I237500J0D01*
G01*
X109937500Y-66675000D01*
G75*
G02*
X110175000Y-66912500I0J-237500D01*
G01*
X110175000Y-67387500D01*
G75*
G02*
X109937500Y-67625000I-237500J0D01*
G01*
X109437500Y-67625000D01*
G75*
G02*
X109200000Y-67387500I0J237500D01*
G01*
G37*
%TD*%
%TO.C,R12*%
G36*
G01*
X129025000Y-59237500D02*
X129025000Y-58762500D01*
G75*
G02*
X129262500Y-58525000I237500J0D01*
G01*
X129762500Y-58525000D01*
G75*
G02*
X130000000Y-58762500I0J-237500D01*
G01*
X130000000Y-59237500D01*
G75*
G02*
X129762500Y-59475000I-237500J0D01*
G01*
X129262500Y-59475000D01*
G75*
G02*
X129025000Y-59237500I0J237500D01*
G01*
G37*
G36*
G01*
X127200000Y-59237500D02*
X127200000Y-58762500D01*
G75*
G02*
X127437500Y-58525000I237500J0D01*
G01*
X127937500Y-58525000D01*
G75*
G02*
X128175000Y-58762500I0J-237500D01*
G01*
X128175000Y-59237500D01*
G75*
G02*
X127937500Y-59475000I-237500J0D01*
G01*
X127437500Y-59475000D01*
G75*
G02*
X127200000Y-59237500I0J237500D01*
G01*
G37*
%TD*%
%TO.C,R26*%
G36*
G01*
X120775000Y-111762500D02*
X120775000Y-112237500D01*
G75*
G02*
X120537500Y-112475000I-237500J0D01*
G01*
X120037500Y-112475000D01*
G75*
G02*
X119800000Y-112237500I0J237500D01*
G01*
X119800000Y-111762500D01*
G75*
G02*
X120037500Y-111525000I237500J0D01*
G01*
X120537500Y-111525000D01*
G75*
G02*
X120775000Y-111762500I0J-237500D01*
G01*
G37*
G36*
G01*
X122600000Y-111762500D02*
X122600000Y-112237500D01*
G75*
G02*
X122362500Y-112475000I-237500J0D01*
G01*
X121862500Y-112475000D01*
G75*
G02*
X121625000Y-112237500I0J237500D01*
G01*
X121625000Y-111762500D01*
G75*
G02*
X121862500Y-111525000I237500J0D01*
G01*
X122362500Y-111525000D01*
G75*
G02*
X122600000Y-111762500I0J-237500D01*
G01*
G37*
%TD*%
%TO.C,R24*%
G36*
G01*
X139225000Y-114137500D02*
X139225000Y-113662500D01*
G75*
G02*
X139462500Y-113425000I237500J0D01*
G01*
X139962500Y-113425000D01*
G75*
G02*
X140200000Y-113662500I0J-237500D01*
G01*
X140200000Y-114137500D01*
G75*
G02*
X139962500Y-114375000I-237500J0D01*
G01*
X139462500Y-114375000D01*
G75*
G02*
X139225000Y-114137500I0J237500D01*
G01*
G37*
G36*
G01*
X137400000Y-114137500D02*
X137400000Y-113662500D01*
G75*
G02*
X137637500Y-113425000I237500J0D01*
G01*
X138137500Y-113425000D01*
G75*
G02*
X138375000Y-113662500I0J-237500D01*
G01*
X138375000Y-114137500D01*
G75*
G02*
X138137500Y-114375000I-237500J0D01*
G01*
X137637500Y-114375000D01*
G75*
G02*
X137400000Y-114137500I0J237500D01*
G01*
G37*
%TD*%
%TO.C,R23*%
G36*
G01*
X138375000Y-111062500D02*
X138375000Y-111537500D01*
G75*
G02*
X138137500Y-111775000I-237500J0D01*
G01*
X137637500Y-111775000D01*
G75*
G02*
X137400000Y-111537500I0J237500D01*
G01*
X137400000Y-111062500D01*
G75*
G02*
X137637500Y-110825000I237500J0D01*
G01*
X138137500Y-110825000D01*
G75*
G02*
X138375000Y-111062500I0J-237500D01*
G01*
G37*
G36*
G01*
X140200000Y-111062500D02*
X140200000Y-111537500D01*
G75*
G02*
X139962500Y-111775000I-237500J0D01*
G01*
X139462500Y-111775000D01*
G75*
G02*
X139225000Y-111537500I0J237500D01*
G01*
X139225000Y-111062500D01*
G75*
G02*
X139462500Y-110825000I237500J0D01*
G01*
X139962500Y-110825000D01*
G75*
G02*
X140200000Y-111062500I0J-237500D01*
G01*
G37*
%TD*%
%TO.C,D6*%
G36*
G01*
X115725000Y-110925000D02*
X115725000Y-113075000D01*
G75*
G02*
X115475000Y-113325000I-250000J0D01*
G01*
X114725000Y-113325000D01*
G75*
G02*
X114475000Y-113075000I0J250000D01*
G01*
X114475000Y-110925000D01*
G75*
G02*
X114725000Y-110675000I250000J0D01*
G01*
X115475000Y-110675000D01*
G75*
G02*
X115725000Y-110925000I0J-250000D01*
G01*
G37*
G36*
G01*
X118525000Y-110925000D02*
X118525000Y-113075000D01*
G75*
G02*
X118275000Y-113325000I-250000J0D01*
G01*
X117525000Y-113325000D01*
G75*
G02*
X117275000Y-113075000I0J250000D01*
G01*
X117275000Y-110925000D01*
G75*
G02*
X117525000Y-110675000I250000J0D01*
G01*
X118275000Y-110675000D01*
G75*
G02*
X118525000Y-110925000I0J-250000D01*
G01*
G37*
%TD*%
%TO.C,R31*%
G36*
G01*
X60925000Y-94837500D02*
X60925000Y-94362500D01*
G75*
G02*
X61162500Y-94125000I237500J0D01*
G01*
X61662500Y-94125000D01*
G75*
G02*
X61900000Y-94362500I0J-237500D01*
G01*
X61900000Y-94837500D01*
G75*
G02*
X61662500Y-95075000I-237500J0D01*
G01*
X61162500Y-95075000D01*
G75*
G02*
X60925000Y-94837500I0J237500D01*
G01*
G37*
G36*
G01*
X59100000Y-94837500D02*
X59100000Y-94362500D01*
G75*
G02*
X59337500Y-94125000I237500J0D01*
G01*
X59837500Y-94125000D01*
G75*
G02*
X60075000Y-94362500I0J-237500D01*
G01*
X60075000Y-94837500D01*
G75*
G02*
X59837500Y-95075000I-237500J0D01*
G01*
X59337500Y-95075000D01*
G75*
G02*
X59100000Y-94837500I0J237500D01*
G01*
G37*
%TD*%
%TO.C,R28*%
G36*
G01*
X60925000Y-86037500D02*
X60925000Y-85562500D01*
G75*
G02*
X61162500Y-85325000I237500J0D01*
G01*
X61662500Y-85325000D01*
G75*
G02*
X61900000Y-85562500I0J-237500D01*
G01*
X61900000Y-86037500D01*
G75*
G02*
X61662500Y-86275000I-237500J0D01*
G01*
X61162500Y-86275000D01*
G75*
G02*
X60925000Y-86037500I0J237500D01*
G01*
G37*
G36*
G01*
X59100000Y-86037500D02*
X59100000Y-85562500D01*
G75*
G02*
X59337500Y-85325000I237500J0D01*
G01*
X59837500Y-85325000D01*
G75*
G02*
X60075000Y-85562500I0J-237500D01*
G01*
X60075000Y-86037500D01*
G75*
G02*
X59837500Y-86275000I-237500J0D01*
G01*
X59337500Y-86275000D01*
G75*
G02*
X59100000Y-86037500I0J237500D01*
G01*
G37*
%TD*%
%TO.C,R25*%
G36*
G01*
X60925000Y-77537500D02*
X60925000Y-77062500D01*
G75*
G02*
X61162500Y-76825000I237500J0D01*
G01*
X61662500Y-76825000D01*
G75*
G02*
X61900000Y-77062500I0J-237500D01*
G01*
X61900000Y-77537500D01*
G75*
G02*
X61662500Y-77775000I-237500J0D01*
G01*
X61162500Y-77775000D01*
G75*
G02*
X60925000Y-77537500I0J237500D01*
G01*
G37*
G36*
G01*
X59100000Y-77537500D02*
X59100000Y-77062500D01*
G75*
G02*
X59337500Y-76825000I237500J0D01*
G01*
X59837500Y-76825000D01*
G75*
G02*
X60075000Y-77062500I0J-237500D01*
G01*
X60075000Y-77537500D01*
G75*
G02*
X59837500Y-77775000I-237500J0D01*
G01*
X59337500Y-77775000D01*
G75*
G02*
X59100000Y-77537500I0J237500D01*
G01*
G37*
%TD*%
%TO.C,R22*%
G36*
G01*
X137825000Y-61237500D02*
X137825000Y-60762500D01*
G75*
G02*
X138062500Y-60525000I237500J0D01*
G01*
X138562500Y-60525000D01*
G75*
G02*
X138800000Y-60762500I0J-237500D01*
G01*
X138800000Y-61237500D01*
G75*
G02*
X138562500Y-61475000I-237500J0D01*
G01*
X138062500Y-61475000D01*
G75*
G02*
X137825000Y-61237500I0J237500D01*
G01*
G37*
G36*
G01*
X136000000Y-61237500D02*
X136000000Y-60762500D01*
G75*
G02*
X136237500Y-60525000I237500J0D01*
G01*
X136737500Y-60525000D01*
G75*
G02*
X136975000Y-60762500I0J-237500D01*
G01*
X136975000Y-61237500D01*
G75*
G02*
X136737500Y-61475000I-237500J0D01*
G01*
X136237500Y-61475000D01*
G75*
G02*
X136000000Y-61237500I0J237500D01*
G01*
G37*
%TD*%
%TO.C,R21*%
G36*
G01*
X136975000Y-63562500D02*
X136975000Y-64037500D01*
G75*
G02*
X136737500Y-64275000I-237500J0D01*
G01*
X136237500Y-64275000D01*
G75*
G02*
X136000000Y-64037500I0J237500D01*
G01*
X136000000Y-63562500D01*
G75*
G02*
X136237500Y-63325000I237500J0D01*
G01*
X136737500Y-63325000D01*
G75*
G02*
X136975000Y-63562500I0J-237500D01*
G01*
G37*
G36*
G01*
X138800000Y-63562500D02*
X138800000Y-64037500D01*
G75*
G02*
X138562500Y-64275000I-237500J0D01*
G01*
X138062500Y-64275000D01*
G75*
G02*
X137825000Y-64037500I0J237500D01*
G01*
X137825000Y-63562500D01*
G75*
G02*
X138062500Y-63325000I237500J0D01*
G01*
X138562500Y-63325000D01*
G75*
G02*
X138800000Y-63562500I0J-237500D01*
G01*
G37*
%TD*%
D12*
%TO.C,SW2*%
X98600000Y-114500000D03*
X92800000Y-114500000D03*
X98600000Y-110500000D03*
X92800000Y-110500000D03*
%TD*%
%TO.C,R35*%
G36*
G01*
X101562500Y-110725000D02*
X102037500Y-110725000D01*
G75*
G02*
X102275000Y-110962500I0J-237500D01*
G01*
X102275000Y-111462500D01*
G75*
G02*
X102037500Y-111700000I-237500J0D01*
G01*
X101562500Y-111700000D01*
G75*
G02*
X101325000Y-111462500I0J237500D01*
G01*
X101325000Y-110962500D01*
G75*
G02*
X101562500Y-110725000I237500J0D01*
G01*
G37*
G36*
G01*
X101562500Y-108900000D02*
X102037500Y-108900000D01*
G75*
G02*
X102275000Y-109137500I0J-237500D01*
G01*
X102275000Y-109637500D01*
G75*
G02*
X102037500Y-109875000I-237500J0D01*
G01*
X101562500Y-109875000D01*
G75*
G02*
X101325000Y-109637500I0J237500D01*
G01*
X101325000Y-109137500D01*
G75*
G02*
X101562500Y-108900000I237500J0D01*
G01*
G37*
%TD*%
%TO.C,R34*%
G36*
G01*
X102037500Y-114275000D02*
X101562500Y-114275000D01*
G75*
G02*
X101325000Y-114037500I0J237500D01*
G01*
X101325000Y-113537500D01*
G75*
G02*
X101562500Y-113300000I237500J0D01*
G01*
X102037500Y-113300000D01*
G75*
G02*
X102275000Y-113537500I0J-237500D01*
G01*
X102275000Y-114037500D01*
G75*
G02*
X102037500Y-114275000I-237500J0D01*
G01*
G37*
G36*
G01*
X102037500Y-116100000D02*
X101562500Y-116100000D01*
G75*
G02*
X101325000Y-115862500I0J237500D01*
G01*
X101325000Y-115362500D01*
G75*
G02*
X101562500Y-115125000I237500J0D01*
G01*
X102037500Y-115125000D01*
G75*
G02*
X102275000Y-115362500I0J-237500D01*
G01*
X102275000Y-115862500D01*
G75*
G02*
X102037500Y-116100000I-237500J0D01*
G01*
G37*
%TD*%
%TO.C,R33*%
G36*
G01*
X86662500Y-110725000D02*
X87137500Y-110725000D01*
G75*
G02*
X87375000Y-110962500I0J-237500D01*
G01*
X87375000Y-111462500D01*
G75*
G02*
X87137500Y-111700000I-237500J0D01*
G01*
X86662500Y-111700000D01*
G75*
G02*
X86425000Y-111462500I0J237500D01*
G01*
X86425000Y-110962500D01*
G75*
G02*
X86662500Y-110725000I237500J0D01*
G01*
G37*
G36*
G01*
X86662500Y-108900000D02*
X87137500Y-108900000D01*
G75*
G02*
X87375000Y-109137500I0J-237500D01*
G01*
X87375000Y-109637500D01*
G75*
G02*
X87137500Y-109875000I-237500J0D01*
G01*
X86662500Y-109875000D01*
G75*
G02*
X86425000Y-109637500I0J237500D01*
G01*
X86425000Y-109137500D01*
G75*
G02*
X86662500Y-108900000I237500J0D01*
G01*
G37*
%TD*%
%TO.C,R32*%
G36*
G01*
X87137500Y-114275000D02*
X86662500Y-114275000D01*
G75*
G02*
X86425000Y-114037500I0J237500D01*
G01*
X86425000Y-113537500D01*
G75*
G02*
X86662500Y-113300000I237500J0D01*
G01*
X87137500Y-113300000D01*
G75*
G02*
X87375000Y-113537500I0J-237500D01*
G01*
X87375000Y-114037500D01*
G75*
G02*
X87137500Y-114275000I-237500J0D01*
G01*
G37*
G36*
G01*
X87137500Y-116100000D02*
X86662500Y-116100000D01*
G75*
G02*
X86425000Y-115862500I0J237500D01*
G01*
X86425000Y-115362500D01*
G75*
G02*
X86662500Y-115125000I237500J0D01*
G01*
X87137500Y-115125000D01*
G75*
G02*
X87375000Y-115362500I0J-237500D01*
G01*
X87375000Y-115862500D01*
G75*
G02*
X87137500Y-116100000I-237500J0D01*
G01*
G37*
%TD*%
%TO.C,SW1*%
X83500000Y-114500000D03*
X77700000Y-114500000D03*
X83500000Y-110500000D03*
X77700000Y-110500000D03*
%TD*%
D13*
%TO.C,D2*%
X133600000Y-49800000D03*
X133600000Y-47000000D03*
%TD*%
%TO.C,D5*%
G36*
G01*
X60950000Y-98250001D02*
X60950000Y-97349999D01*
G75*
G02*
X61199999Y-97100000I249999J0D01*
G01*
X61850001Y-97100000D01*
G75*
G02*
X62100000Y-97349999I0J-249999D01*
G01*
X62100000Y-98250001D01*
G75*
G02*
X61850001Y-98500000I-249999J0D01*
G01*
X61199999Y-98500000D01*
G75*
G02*
X60950000Y-98250001I0J249999D01*
G01*
G37*
G36*
G01*
X58900000Y-98250001D02*
X58900000Y-97349999D01*
G75*
G02*
X59149999Y-97100000I249999J0D01*
G01*
X59800001Y-97100000D01*
G75*
G02*
X60050000Y-97349999I0J-249999D01*
G01*
X60050000Y-98250001D01*
G75*
G02*
X59800001Y-98500000I-249999J0D01*
G01*
X59149999Y-98500000D01*
G75*
G02*
X58900000Y-98250001I0J249999D01*
G01*
G37*
%TD*%
%TO.C,D4*%
G36*
G01*
X60950000Y-89570001D02*
X60950000Y-88669999D01*
G75*
G02*
X61199999Y-88420000I249999J0D01*
G01*
X61850001Y-88420000D01*
G75*
G02*
X62100000Y-88669999I0J-249999D01*
G01*
X62100000Y-89570001D01*
G75*
G02*
X61850001Y-89820000I-249999J0D01*
G01*
X61199999Y-89820000D01*
G75*
G02*
X60950000Y-89570001I0J249999D01*
G01*
G37*
G36*
G01*
X58900000Y-89570001D02*
X58900000Y-88669999D01*
G75*
G02*
X59149999Y-88420000I249999J0D01*
G01*
X59800001Y-88420000D01*
G75*
G02*
X60050000Y-88669999I0J-249999D01*
G01*
X60050000Y-89570001D01*
G75*
G02*
X59800001Y-89820000I-249999J0D01*
G01*
X59149999Y-89820000D01*
G75*
G02*
X58900000Y-89570001I0J249999D01*
G01*
G37*
%TD*%
%TO.C,D3*%
G36*
G01*
X60950000Y-81250001D02*
X60950000Y-80349999D01*
G75*
G02*
X61199999Y-80100000I249999J0D01*
G01*
X61850001Y-80100000D01*
G75*
G02*
X62100000Y-80349999I0J-249999D01*
G01*
X62100000Y-81250001D01*
G75*
G02*
X61850001Y-81500000I-249999J0D01*
G01*
X61199999Y-81500000D01*
G75*
G02*
X60950000Y-81250001I0J249999D01*
G01*
G37*
G36*
G01*
X58900000Y-81250001D02*
X58900000Y-80349999D01*
G75*
G02*
X59149999Y-80100000I249999J0D01*
G01*
X59800001Y-80100000D01*
G75*
G02*
X60050000Y-80349999I0J-249999D01*
G01*
X60050000Y-81250001D01*
G75*
G02*
X59800001Y-81500000I-249999J0D01*
G01*
X59149999Y-81500000D01*
G75*
G02*
X58900000Y-81250001I0J249999D01*
G01*
G37*
%TD*%
%TO.C,C11*%
G36*
G01*
X128275000Y-55862500D02*
X128275000Y-56337500D01*
G75*
G02*
X128037500Y-56575000I-237500J0D01*
G01*
X127437500Y-56575000D01*
G75*
G02*
X127200000Y-56337500I0J237500D01*
G01*
X127200000Y-55862500D01*
G75*
G02*
X127437500Y-55625000I237500J0D01*
G01*
X128037500Y-55625000D01*
G75*
G02*
X128275000Y-55862500I0J-237500D01*
G01*
G37*
G36*
G01*
X130000000Y-55862500D02*
X130000000Y-56337500D01*
G75*
G02*
X129762500Y-56575000I-237500J0D01*
G01*
X129162500Y-56575000D01*
G75*
G02*
X128925000Y-56337500I0J237500D01*
G01*
X128925000Y-55862500D01*
G75*
G02*
X129162500Y-55625000I237500J0D01*
G01*
X129762500Y-55625000D01*
G75*
G02*
X130000000Y-55862500I0J-237500D01*
G01*
G37*
%TD*%
D14*
%TO.C,BZ1*%
X139000000Y-47300000D03*
X139000000Y-54300000D03*
X146000000Y-54300000D03*
X146000000Y-47300000D03*
%TD*%
%TO.C,R20*%
G36*
G01*
X113775000Y-93862500D02*
X113775000Y-94337500D01*
G75*
G02*
X113537500Y-94575000I-237500J0D01*
G01*
X113037500Y-94575000D01*
G75*
G02*
X112800000Y-94337500I0J237500D01*
G01*
X112800000Y-93862500D01*
G75*
G02*
X113037500Y-93625000I237500J0D01*
G01*
X113537500Y-93625000D01*
G75*
G02*
X113775000Y-93862500I0J-237500D01*
G01*
G37*
G36*
G01*
X115600000Y-93862500D02*
X115600000Y-94337500D01*
G75*
G02*
X115362500Y-94575000I-237500J0D01*
G01*
X114862500Y-94575000D01*
G75*
G02*
X114625000Y-94337500I0J237500D01*
G01*
X114625000Y-93862500D01*
G75*
G02*
X114862500Y-93625000I237500J0D01*
G01*
X115362500Y-93625000D01*
G75*
G02*
X115600000Y-93862500I0J-237500D01*
G01*
G37*
%TD*%
%TO.C,R19*%
G36*
G01*
X114625000Y-91437500D02*
X114625000Y-90962500D01*
G75*
G02*
X114862500Y-90725000I237500J0D01*
G01*
X115362500Y-90725000D01*
G75*
G02*
X115600000Y-90962500I0J-237500D01*
G01*
X115600000Y-91437500D01*
G75*
G02*
X115362500Y-91675000I-237500J0D01*
G01*
X114862500Y-91675000D01*
G75*
G02*
X114625000Y-91437500I0J237500D01*
G01*
G37*
G36*
G01*
X112800000Y-91437500D02*
X112800000Y-90962500D01*
G75*
G02*
X113037500Y-90725000I237500J0D01*
G01*
X113537500Y-90725000D01*
G75*
G02*
X113775000Y-90962500I0J-237500D01*
G01*
X113775000Y-91437500D01*
G75*
G02*
X113537500Y-91675000I-237500J0D01*
G01*
X113037500Y-91675000D01*
G75*
G02*
X112800000Y-91437500I0J237500D01*
G01*
G37*
%TD*%
%TO.C,R18*%
G36*
G01*
X105975000Y-92562500D02*
X105975000Y-93037500D01*
G75*
G02*
X105737500Y-93275000I-237500J0D01*
G01*
X105237500Y-93275000D01*
G75*
G02*
X105000000Y-93037500I0J237500D01*
G01*
X105000000Y-92562500D01*
G75*
G02*
X105237500Y-92325000I237500J0D01*
G01*
X105737500Y-92325000D01*
G75*
G02*
X105975000Y-92562500I0J-237500D01*
G01*
G37*
G36*
G01*
X107800000Y-92562500D02*
X107800000Y-93037500D01*
G75*
G02*
X107562500Y-93275000I-237500J0D01*
G01*
X107062500Y-93275000D01*
G75*
G02*
X106825000Y-93037500I0J237500D01*
G01*
X106825000Y-92562500D01*
G75*
G02*
X107062500Y-92325000I237500J0D01*
G01*
X107562500Y-92325000D01*
G75*
G02*
X107800000Y-92562500I0J-237500D01*
G01*
G37*
%TD*%
%TO.C,R17*%
G36*
G01*
X106825000Y-95937500D02*
X106825000Y-95462500D01*
G75*
G02*
X107062500Y-95225000I237500J0D01*
G01*
X107562500Y-95225000D01*
G75*
G02*
X107800000Y-95462500I0J-237500D01*
G01*
X107800000Y-95937500D01*
G75*
G02*
X107562500Y-96175000I-237500J0D01*
G01*
X107062500Y-96175000D01*
G75*
G02*
X106825000Y-95937500I0J237500D01*
G01*
G37*
G36*
G01*
X105000000Y-95937500D02*
X105000000Y-95462500D01*
G75*
G02*
X105237500Y-95225000I237500J0D01*
G01*
X105737500Y-95225000D01*
G75*
G02*
X105975000Y-95462500I0J-237500D01*
G01*
X105975000Y-95937500D01*
G75*
G02*
X105737500Y-96175000I-237500J0D01*
G01*
X105237500Y-96175000D01*
G75*
G02*
X105000000Y-95937500I0J237500D01*
G01*
G37*
%TD*%
%TO.C,C10*%
G36*
G01*
X114525000Y-97337500D02*
X114525000Y-96862500D01*
G75*
G02*
X114762500Y-96625000I237500J0D01*
G01*
X115362500Y-96625000D01*
G75*
G02*
X115600000Y-96862500I0J-237500D01*
G01*
X115600000Y-97337500D01*
G75*
G02*
X115362500Y-97575000I-237500J0D01*
G01*
X114762500Y-97575000D01*
G75*
G02*
X114525000Y-97337500I0J237500D01*
G01*
G37*
G36*
G01*
X112800000Y-97337500D02*
X112800000Y-96862500D01*
G75*
G02*
X113037500Y-96625000I237500J0D01*
G01*
X113637500Y-96625000D01*
G75*
G02*
X113875000Y-96862500I0J-237500D01*
G01*
X113875000Y-97337500D01*
G75*
G02*
X113637500Y-97575000I-237500J0D01*
G01*
X113037500Y-97575000D01*
G75*
G02*
X112800000Y-97337500I0J237500D01*
G01*
G37*
%TD*%
%TO.C,C9*%
G36*
G01*
X114525000Y-88437500D02*
X114525000Y-87962500D01*
G75*
G02*
X114762500Y-87725000I237500J0D01*
G01*
X115362500Y-87725000D01*
G75*
G02*
X115600000Y-87962500I0J-237500D01*
G01*
X115600000Y-88437500D01*
G75*
G02*
X115362500Y-88675000I-237500J0D01*
G01*
X114762500Y-88675000D01*
G75*
G02*
X114525000Y-88437500I0J237500D01*
G01*
G37*
G36*
G01*
X112800000Y-88437500D02*
X112800000Y-87962500D01*
G75*
G02*
X113037500Y-87725000I237500J0D01*
G01*
X113637500Y-87725000D01*
G75*
G02*
X113875000Y-87962500I0J-237500D01*
G01*
X113875000Y-88437500D01*
G75*
G02*
X113637500Y-88675000I-237500J0D01*
G01*
X113037500Y-88675000D01*
G75*
G02*
X112800000Y-88437500I0J237500D01*
G01*
G37*
%TD*%
%TO.C,C8*%
G36*
G01*
X106075000Y-89662500D02*
X106075000Y-90137500D01*
G75*
G02*
X105837500Y-90375000I-237500J0D01*
G01*
X105237500Y-90375000D01*
G75*
G02*
X105000000Y-90137500I0J237500D01*
G01*
X105000000Y-89662500D01*
G75*
G02*
X105237500Y-89425000I237500J0D01*
G01*
X105837500Y-89425000D01*
G75*
G02*
X106075000Y-89662500I0J-237500D01*
G01*
G37*
G36*
G01*
X107800000Y-89662500D02*
X107800000Y-90137500D01*
G75*
G02*
X107562500Y-90375000I-237500J0D01*
G01*
X106962500Y-90375000D01*
G75*
G02*
X106725000Y-90137500I0J237500D01*
G01*
X106725000Y-89662500D01*
G75*
G02*
X106962500Y-89425000I237500J0D01*
G01*
X107562500Y-89425000D01*
G75*
G02*
X107800000Y-89662500I0J-237500D01*
G01*
G37*
%TD*%
%TO.C,R16*%
G36*
G01*
X88875000Y-93762500D02*
X88875000Y-94237500D01*
G75*
G02*
X88637500Y-94475000I-237500J0D01*
G01*
X88137500Y-94475000D01*
G75*
G02*
X87900000Y-94237500I0J237500D01*
G01*
X87900000Y-93762500D01*
G75*
G02*
X88137500Y-93525000I237500J0D01*
G01*
X88637500Y-93525000D01*
G75*
G02*
X88875000Y-93762500I0J-237500D01*
G01*
G37*
G36*
G01*
X90700000Y-93762500D02*
X90700000Y-94237500D01*
G75*
G02*
X90462500Y-94475000I-237500J0D01*
G01*
X89962500Y-94475000D01*
G75*
G02*
X89725000Y-94237500I0J237500D01*
G01*
X89725000Y-93762500D01*
G75*
G02*
X89962500Y-93525000I237500J0D01*
G01*
X90462500Y-93525000D01*
G75*
G02*
X90700000Y-93762500I0J-237500D01*
G01*
G37*
%TD*%
%TO.C,R15*%
G36*
G01*
X89725000Y-91337500D02*
X89725000Y-90862500D01*
G75*
G02*
X89962500Y-90625000I237500J0D01*
G01*
X90462500Y-90625000D01*
G75*
G02*
X90700000Y-90862500I0J-237500D01*
G01*
X90700000Y-91337500D01*
G75*
G02*
X90462500Y-91575000I-237500J0D01*
G01*
X89962500Y-91575000D01*
G75*
G02*
X89725000Y-91337500I0J237500D01*
G01*
G37*
G36*
G01*
X87900000Y-91337500D02*
X87900000Y-90862500D01*
G75*
G02*
X88137500Y-90625000I237500J0D01*
G01*
X88637500Y-90625000D01*
G75*
G02*
X88875000Y-90862500I0J-237500D01*
G01*
X88875000Y-91337500D01*
G75*
G02*
X88637500Y-91575000I-237500J0D01*
G01*
X88137500Y-91575000D01*
G75*
G02*
X87900000Y-91337500I0J237500D01*
G01*
G37*
%TD*%
%TO.C,R14*%
G36*
G01*
X81075000Y-92462500D02*
X81075000Y-92937500D01*
G75*
G02*
X80837500Y-93175000I-237500J0D01*
G01*
X80337500Y-93175000D01*
G75*
G02*
X80100000Y-92937500I0J237500D01*
G01*
X80100000Y-92462500D01*
G75*
G02*
X80337500Y-92225000I237500J0D01*
G01*
X80837500Y-92225000D01*
G75*
G02*
X81075000Y-92462500I0J-237500D01*
G01*
G37*
G36*
G01*
X82900000Y-92462500D02*
X82900000Y-92937500D01*
G75*
G02*
X82662500Y-93175000I-237500J0D01*
G01*
X82162500Y-93175000D01*
G75*
G02*
X81925000Y-92937500I0J237500D01*
G01*
X81925000Y-92462500D01*
G75*
G02*
X82162500Y-92225000I237500J0D01*
G01*
X82662500Y-92225000D01*
G75*
G02*
X82900000Y-92462500I0J-237500D01*
G01*
G37*
%TD*%
%TO.C,R13*%
G36*
G01*
X81925000Y-95837500D02*
X81925000Y-95362500D01*
G75*
G02*
X82162500Y-95125000I237500J0D01*
G01*
X82662500Y-95125000D01*
G75*
G02*
X82900000Y-95362500I0J-237500D01*
G01*
X82900000Y-95837500D01*
G75*
G02*
X82662500Y-96075000I-237500J0D01*
G01*
X82162500Y-96075000D01*
G75*
G02*
X81925000Y-95837500I0J237500D01*
G01*
G37*
G36*
G01*
X80100000Y-95837500D02*
X80100000Y-95362500D01*
G75*
G02*
X80337500Y-95125000I237500J0D01*
G01*
X80837500Y-95125000D01*
G75*
G02*
X81075000Y-95362500I0J-237500D01*
G01*
X81075000Y-95837500D01*
G75*
G02*
X80837500Y-96075000I-237500J0D01*
G01*
X80337500Y-96075000D01*
G75*
G02*
X80100000Y-95837500I0J237500D01*
G01*
G37*
%TD*%
%TO.C,C7*%
G36*
G01*
X89625000Y-97237500D02*
X89625000Y-96762500D01*
G75*
G02*
X89862500Y-96525000I237500J0D01*
G01*
X90462500Y-96525000D01*
G75*
G02*
X90700000Y-96762500I0J-237500D01*
G01*
X90700000Y-97237500D01*
G75*
G02*
X90462500Y-97475000I-237500J0D01*
G01*
X89862500Y-97475000D01*
G75*
G02*
X89625000Y-97237500I0J237500D01*
G01*
G37*
G36*
G01*
X87900000Y-97237500D02*
X87900000Y-96762500D01*
G75*
G02*
X88137500Y-96525000I237500J0D01*
G01*
X88737500Y-96525000D01*
G75*
G02*
X88975000Y-96762500I0J-237500D01*
G01*
X88975000Y-97237500D01*
G75*
G02*
X88737500Y-97475000I-237500J0D01*
G01*
X88137500Y-97475000D01*
G75*
G02*
X87900000Y-97237500I0J237500D01*
G01*
G37*
%TD*%
%TO.C,C6*%
G36*
G01*
X89625000Y-88337500D02*
X89625000Y-87862500D01*
G75*
G02*
X89862500Y-87625000I237500J0D01*
G01*
X90462500Y-87625000D01*
G75*
G02*
X90700000Y-87862500I0J-237500D01*
G01*
X90700000Y-88337500D01*
G75*
G02*
X90462500Y-88575000I-237500J0D01*
G01*
X89862500Y-88575000D01*
G75*
G02*
X89625000Y-88337500I0J237500D01*
G01*
G37*
G36*
G01*
X87900000Y-88337500D02*
X87900000Y-87862500D01*
G75*
G02*
X88137500Y-87625000I237500J0D01*
G01*
X88737500Y-87625000D01*
G75*
G02*
X88975000Y-87862500I0J-237500D01*
G01*
X88975000Y-88337500D01*
G75*
G02*
X88737500Y-88575000I-237500J0D01*
G01*
X88137500Y-88575000D01*
G75*
G02*
X87900000Y-88337500I0J237500D01*
G01*
G37*
%TD*%
%TO.C,C5*%
G36*
G01*
X81175000Y-89562500D02*
X81175000Y-90037500D01*
G75*
G02*
X80937500Y-90275000I-237500J0D01*
G01*
X80337500Y-90275000D01*
G75*
G02*
X80100000Y-90037500I0J237500D01*
G01*
X80100000Y-89562500D01*
G75*
G02*
X80337500Y-89325000I237500J0D01*
G01*
X80937500Y-89325000D01*
G75*
G02*
X81175000Y-89562500I0J-237500D01*
G01*
G37*
G36*
G01*
X82900000Y-89562500D02*
X82900000Y-90037500D01*
G75*
G02*
X82662500Y-90275000I-237500J0D01*
G01*
X82062500Y-90275000D01*
G75*
G02*
X81825000Y-90037500I0J237500D01*
G01*
X81825000Y-89562500D01*
G75*
G02*
X82062500Y-89325000I237500J0D01*
G01*
X82662500Y-89325000D01*
G75*
G02*
X82900000Y-89562500I0J-237500D01*
G01*
G37*
%TD*%
%TO.C,R12*%
G36*
G01*
X110117800Y-58592700D02*
X110117800Y-59067700D01*
G75*
G02*
X109880300Y-59305200I-237500J0D01*
G01*
X109380300Y-59305200D01*
G75*
G02*
X109142800Y-59067700I0J237500D01*
G01*
X109142800Y-58592700D01*
G75*
G02*
X109380300Y-58355200I237500J0D01*
G01*
X109880300Y-58355200D01*
G75*
G02*
X110117800Y-58592700I0J-237500D01*
G01*
G37*
G36*
G01*
X111942800Y-58592700D02*
X111942800Y-59067700D01*
G75*
G02*
X111705300Y-59305200I-237500J0D01*
G01*
X111205300Y-59305200D01*
G75*
G02*
X110967800Y-59067700I0J237500D01*
G01*
X110967800Y-58592700D01*
G75*
G02*
X111205300Y-58355200I237500J0D01*
G01*
X111705300Y-58355200D01*
G75*
G02*
X111942800Y-58592700I0J-237500D01*
G01*
G37*
%TD*%
%TO.C,R11*%
G36*
G01*
X110117800Y-61292700D02*
X110117800Y-61767700D01*
G75*
G02*
X109880300Y-62005200I-237500J0D01*
G01*
X109380300Y-62005200D01*
G75*
G02*
X109142800Y-61767700I0J237500D01*
G01*
X109142800Y-61292700D01*
G75*
G02*
X109380300Y-61055200I237500J0D01*
G01*
X109880300Y-61055200D01*
G75*
G02*
X110117800Y-61292700I0J-237500D01*
G01*
G37*
G36*
G01*
X111942800Y-61292700D02*
X111942800Y-61767700D01*
G75*
G02*
X111705300Y-62005200I-237500J0D01*
G01*
X111205300Y-62005200D01*
G75*
G02*
X110967800Y-61767700I0J237500D01*
G01*
X110967800Y-61292700D01*
G75*
G02*
X111205300Y-61055200I237500J0D01*
G01*
X111705300Y-61055200D01*
G75*
G02*
X111942800Y-61292700I0J-237500D01*
G01*
G37*
%TD*%
%TO.C,R10*%
G36*
G01*
X110967800Y-64467700D02*
X110967800Y-63992700D01*
G75*
G02*
X111205300Y-63755200I237500J0D01*
G01*
X111705300Y-63755200D01*
G75*
G02*
X111942800Y-63992700I0J-237500D01*
G01*
X111942800Y-64467700D01*
G75*
G02*
X111705300Y-64705200I-237500J0D01*
G01*
X111205300Y-64705200D01*
G75*
G02*
X110967800Y-64467700I0J237500D01*
G01*
G37*
G36*
G01*
X109142800Y-64467700D02*
X109142800Y-63992700D01*
G75*
G02*
X109380300Y-63755200I237500J0D01*
G01*
X109880300Y-63755200D01*
G75*
G02*
X110117800Y-63992700I0J-237500D01*
G01*
X110117800Y-64467700D01*
G75*
G02*
X109880300Y-64705200I-237500J0D01*
G01*
X109380300Y-64705200D01*
G75*
G02*
X109142800Y-64467700I0J237500D01*
G01*
G37*
%TD*%
%TO.C,C4*%
G36*
G01*
X110217800Y-55892700D02*
X110217800Y-56367700D01*
G75*
G02*
X109980300Y-56605200I-237500J0D01*
G01*
X109380300Y-56605200D01*
G75*
G02*
X109142800Y-56367700I0J237500D01*
G01*
X109142800Y-55892700D01*
G75*
G02*
X109380300Y-55655200I237500J0D01*
G01*
X109980300Y-55655200D01*
G75*
G02*
X110217800Y-55892700I0J-237500D01*
G01*
G37*
G36*
G01*
X111942800Y-55892700D02*
X111942800Y-56367700D01*
G75*
G02*
X111705300Y-56605200I-237500J0D01*
G01*
X111105300Y-56605200D01*
G75*
G02*
X110867800Y-56367700I0J237500D01*
G01*
X110867800Y-55892700D01*
G75*
G02*
X111105300Y-55655200I237500J0D01*
G01*
X111705300Y-55655200D01*
G75*
G02*
X111942800Y-55892700I0J-237500D01*
G01*
G37*
%TD*%
%TO.C,D1*%
G36*
G01*
X53474200Y-53237799D02*
X53474200Y-54137801D01*
G75*
G02*
X53224201Y-54387800I-249999J0D01*
G01*
X52574199Y-54387800D01*
G75*
G02*
X52324200Y-54137801I0J249999D01*
G01*
X52324200Y-53237799D01*
G75*
G02*
X52574199Y-52987800I249999J0D01*
G01*
X53224201Y-52987800D01*
G75*
G02*
X53474200Y-53237799I0J-249999D01*
G01*
G37*
G36*
G01*
X55524200Y-53237799D02*
X55524200Y-54137801D01*
G75*
G02*
X55274201Y-54387800I-249999J0D01*
G01*
X54624199Y-54387800D01*
G75*
G02*
X54374200Y-54137801I0J249999D01*
G01*
X54374200Y-53237799D01*
G75*
G02*
X54624199Y-52987800I249999J0D01*
G01*
X55274201Y-52987800D01*
G75*
G02*
X55524200Y-53237799I0J-249999D01*
G01*
G37*
%TD*%
%TO.C,R9*%
G36*
G01*
X54375000Y-48737500D02*
X54375000Y-48262500D01*
G75*
G02*
X54612500Y-48025000I237500J0D01*
G01*
X55112500Y-48025000D01*
G75*
G02*
X55350000Y-48262500I0J-237500D01*
G01*
X55350000Y-48737500D01*
G75*
G02*
X55112500Y-48975000I-237500J0D01*
G01*
X54612500Y-48975000D01*
G75*
G02*
X54375000Y-48737500I0J237500D01*
G01*
G37*
G36*
G01*
X52550000Y-48737500D02*
X52550000Y-48262500D01*
G75*
G02*
X52787500Y-48025000I237500J0D01*
G01*
X53287500Y-48025000D01*
G75*
G02*
X53525000Y-48262500I0J-237500D01*
G01*
X53525000Y-48737500D01*
G75*
G02*
X53287500Y-48975000I-237500J0D01*
G01*
X52787500Y-48975000D01*
G75*
G02*
X52550000Y-48737500I0J237500D01*
G01*
G37*
%TD*%
%TO.C,C3*%
G36*
G01*
X106237500Y-45075000D02*
X105762500Y-45075000D01*
G75*
G02*
X105525000Y-44837500I0J237500D01*
G01*
X105525000Y-44237500D01*
G75*
G02*
X105762500Y-44000000I237500J0D01*
G01*
X106237500Y-44000000D01*
G75*
G02*
X106475000Y-44237500I0J-237500D01*
G01*
X106475000Y-44837500D01*
G75*
G02*
X106237500Y-45075000I-237500J0D01*
G01*
G37*
G36*
G01*
X106237500Y-46800000D02*
X105762500Y-46800000D01*
G75*
G02*
X105525000Y-46562500I0J237500D01*
G01*
X105525000Y-45962500D01*
G75*
G02*
X105762500Y-45725000I237500J0D01*
G01*
X106237500Y-45725000D01*
G75*
G02*
X106475000Y-45962500I0J-237500D01*
G01*
X106475000Y-46562500D01*
G75*
G02*
X106237500Y-46800000I-237500J0D01*
G01*
G37*
%TD*%
D15*
%TO.C,J1*%
X51562500Y-110700000D03*
D16*
X54262500Y-111700000D03*
X54262500Y-112350000D03*
X54262500Y-113000000D03*
X54262500Y-110400000D03*
X54262500Y-111050000D03*
D15*
X51562500Y-112700000D03*
%TD*%
%TO.C,U8*%
G36*
G01*
X108855000Y-45275000D02*
X108655000Y-45275000D01*
G75*
G02*
X108555000Y-45175000I0J100000D01*
G01*
X108555000Y-43900000D01*
G75*
G02*
X108655000Y-43800000I100000J0D01*
G01*
X108855000Y-43800000D01*
G75*
G02*
X108955000Y-43900000I0J-100000D01*
G01*
X108955000Y-45175000D01*
G75*
G02*
X108855000Y-45275000I-100000J0D01*
G01*
G37*
G36*
G01*
X109505000Y-45275000D02*
X109305000Y-45275000D01*
G75*
G02*
X109205000Y-45175000I0J100000D01*
G01*
X109205000Y-43900000D01*
G75*
G02*
X109305000Y-43800000I100000J0D01*
G01*
X109505000Y-43800000D01*
G75*
G02*
X109605000Y-43900000I0J-100000D01*
G01*
X109605000Y-45175000D01*
G75*
G02*
X109505000Y-45275000I-100000J0D01*
G01*
G37*
G36*
G01*
X110155000Y-45275000D02*
X109955000Y-45275000D01*
G75*
G02*
X109855000Y-45175000I0J100000D01*
G01*
X109855000Y-43900000D01*
G75*
G02*
X109955000Y-43800000I100000J0D01*
G01*
X110155000Y-43800000D01*
G75*
G02*
X110255000Y-43900000I0J-100000D01*
G01*
X110255000Y-45175000D01*
G75*
G02*
X110155000Y-45275000I-100000J0D01*
G01*
G37*
G36*
G01*
X110805000Y-45275000D02*
X110605000Y-45275000D01*
G75*
G02*
X110505000Y-45175000I0J100000D01*
G01*
X110505000Y-43900000D01*
G75*
G02*
X110605000Y-43800000I100000J0D01*
G01*
X110805000Y-43800000D01*
G75*
G02*
X110905000Y-43900000I0J-100000D01*
G01*
X110905000Y-45175000D01*
G75*
G02*
X110805000Y-45275000I-100000J0D01*
G01*
G37*
G36*
G01*
X111455000Y-45275000D02*
X111255000Y-45275000D01*
G75*
G02*
X111155000Y-45175000I0J100000D01*
G01*
X111155000Y-43900000D01*
G75*
G02*
X111255000Y-43800000I100000J0D01*
G01*
X111455000Y-43800000D01*
G75*
G02*
X111555000Y-43900000I0J-100000D01*
G01*
X111555000Y-45175000D01*
G75*
G02*
X111455000Y-45275000I-100000J0D01*
G01*
G37*
G36*
G01*
X112105000Y-45275000D02*
X111905000Y-45275000D01*
G75*
G02*
X111805000Y-45175000I0J100000D01*
G01*
X111805000Y-43900000D01*
G75*
G02*
X111905000Y-43800000I100000J0D01*
G01*
X112105000Y-43800000D01*
G75*
G02*
X112205000Y-43900000I0J-100000D01*
G01*
X112205000Y-45175000D01*
G75*
G02*
X112105000Y-45275000I-100000J0D01*
G01*
G37*
G36*
G01*
X112755000Y-45275000D02*
X112555000Y-45275000D01*
G75*
G02*
X112455000Y-45175000I0J100000D01*
G01*
X112455000Y-43900000D01*
G75*
G02*
X112555000Y-43800000I100000J0D01*
G01*
X112755000Y-43800000D01*
G75*
G02*
X112855000Y-43900000I0J-100000D01*
G01*
X112855000Y-45175000D01*
G75*
G02*
X112755000Y-45275000I-100000J0D01*
G01*
G37*
G36*
G01*
X113405000Y-45275000D02*
X113205000Y-45275000D01*
G75*
G02*
X113105000Y-45175000I0J100000D01*
G01*
X113105000Y-43900000D01*
G75*
G02*
X113205000Y-43800000I100000J0D01*
G01*
X113405000Y-43800000D01*
G75*
G02*
X113505000Y-43900000I0J-100000D01*
G01*
X113505000Y-45175000D01*
G75*
G02*
X113405000Y-45275000I-100000J0D01*
G01*
G37*
G36*
G01*
X114055000Y-45275000D02*
X113855000Y-45275000D01*
G75*
G02*
X113755000Y-45175000I0J100000D01*
G01*
X113755000Y-43900000D01*
G75*
G02*
X113855000Y-43800000I100000J0D01*
G01*
X114055000Y-43800000D01*
G75*
G02*
X114155000Y-43900000I0J-100000D01*
G01*
X114155000Y-45175000D01*
G75*
G02*
X114055000Y-45275000I-100000J0D01*
G01*
G37*
G36*
G01*
X114705000Y-45275000D02*
X114505000Y-45275000D01*
G75*
G02*
X114405000Y-45175000I0J100000D01*
G01*
X114405000Y-43900000D01*
G75*
G02*
X114505000Y-43800000I100000J0D01*
G01*
X114705000Y-43800000D01*
G75*
G02*
X114805000Y-43900000I0J-100000D01*
G01*
X114805000Y-45175000D01*
G75*
G02*
X114705000Y-45275000I-100000J0D01*
G01*
G37*
G36*
G01*
X115355000Y-45275000D02*
X115155000Y-45275000D01*
G75*
G02*
X115055000Y-45175000I0J100000D01*
G01*
X115055000Y-43900000D01*
G75*
G02*
X115155000Y-43800000I100000J0D01*
G01*
X115355000Y-43800000D01*
G75*
G02*
X115455000Y-43900000I0J-100000D01*
G01*
X115455000Y-45175000D01*
G75*
G02*
X115355000Y-45275000I-100000J0D01*
G01*
G37*
G36*
G01*
X116005000Y-45275000D02*
X115805000Y-45275000D01*
G75*
G02*
X115705000Y-45175000I0J100000D01*
G01*
X115705000Y-43900000D01*
G75*
G02*
X115805000Y-43800000I100000J0D01*
G01*
X116005000Y-43800000D01*
G75*
G02*
X116105000Y-43900000I0J-100000D01*
G01*
X116105000Y-45175000D01*
G75*
G02*
X116005000Y-45275000I-100000J0D01*
G01*
G37*
G36*
G01*
X116005000Y-51000000D02*
X115805000Y-51000000D01*
G75*
G02*
X115705000Y-50900000I0J100000D01*
G01*
X115705000Y-49625000D01*
G75*
G02*
X115805000Y-49525000I100000J0D01*
G01*
X116005000Y-49525000D01*
G75*
G02*
X116105000Y-49625000I0J-100000D01*
G01*
X116105000Y-50900000D01*
G75*
G02*
X116005000Y-51000000I-100000J0D01*
G01*
G37*
G36*
G01*
X115355000Y-51000000D02*
X115155000Y-51000000D01*
G75*
G02*
X115055000Y-50900000I0J100000D01*
G01*
X115055000Y-49625000D01*
G75*
G02*
X115155000Y-49525000I100000J0D01*
G01*
X115355000Y-49525000D01*
G75*
G02*
X115455000Y-49625000I0J-100000D01*
G01*
X115455000Y-50900000D01*
G75*
G02*
X115355000Y-51000000I-100000J0D01*
G01*
G37*
G36*
G01*
X114705000Y-51000000D02*
X114505000Y-51000000D01*
G75*
G02*
X114405000Y-50900000I0J100000D01*
G01*
X114405000Y-49625000D01*
G75*
G02*
X114505000Y-49525000I100000J0D01*
G01*
X114705000Y-49525000D01*
G75*
G02*
X114805000Y-49625000I0J-100000D01*
G01*
X114805000Y-50900000D01*
G75*
G02*
X114705000Y-51000000I-100000J0D01*
G01*
G37*
G36*
G01*
X114055000Y-51000000D02*
X113855000Y-51000000D01*
G75*
G02*
X113755000Y-50900000I0J100000D01*
G01*
X113755000Y-49625000D01*
G75*
G02*
X113855000Y-49525000I100000J0D01*
G01*
X114055000Y-49525000D01*
G75*
G02*
X114155000Y-49625000I0J-100000D01*
G01*
X114155000Y-50900000D01*
G75*
G02*
X114055000Y-51000000I-100000J0D01*
G01*
G37*
G36*
G01*
X113405000Y-51000000D02*
X113205000Y-51000000D01*
G75*
G02*
X113105000Y-50900000I0J100000D01*
G01*
X113105000Y-49625000D01*
G75*
G02*
X113205000Y-49525000I100000J0D01*
G01*
X113405000Y-49525000D01*
G75*
G02*
X113505000Y-49625000I0J-100000D01*
G01*
X113505000Y-50900000D01*
G75*
G02*
X113405000Y-51000000I-100000J0D01*
G01*
G37*
G36*
G01*
X112755000Y-51000000D02*
X112555000Y-51000000D01*
G75*
G02*
X112455000Y-50900000I0J100000D01*
G01*
X112455000Y-49625000D01*
G75*
G02*
X112555000Y-49525000I100000J0D01*
G01*
X112755000Y-49525000D01*
G75*
G02*
X112855000Y-49625000I0J-100000D01*
G01*
X112855000Y-50900000D01*
G75*
G02*
X112755000Y-51000000I-100000J0D01*
G01*
G37*
G36*
G01*
X112105000Y-51000000D02*
X111905000Y-51000000D01*
G75*
G02*
X111805000Y-50900000I0J100000D01*
G01*
X111805000Y-49625000D01*
G75*
G02*
X111905000Y-49525000I100000J0D01*
G01*
X112105000Y-49525000D01*
G75*
G02*
X112205000Y-49625000I0J-100000D01*
G01*
X112205000Y-50900000D01*
G75*
G02*
X112105000Y-51000000I-100000J0D01*
G01*
G37*
G36*
G01*
X111455000Y-51000000D02*
X111255000Y-51000000D01*
G75*
G02*
X111155000Y-50900000I0J100000D01*
G01*
X111155000Y-49625000D01*
G75*
G02*
X111255000Y-49525000I100000J0D01*
G01*
X111455000Y-49525000D01*
G75*
G02*
X111555000Y-49625000I0J-100000D01*
G01*
X111555000Y-50900000D01*
G75*
G02*
X111455000Y-51000000I-100000J0D01*
G01*
G37*
G36*
G01*
X110805000Y-51000000D02*
X110605000Y-51000000D01*
G75*
G02*
X110505000Y-50900000I0J100000D01*
G01*
X110505000Y-49625000D01*
G75*
G02*
X110605000Y-49525000I100000J0D01*
G01*
X110805000Y-49525000D01*
G75*
G02*
X110905000Y-49625000I0J-100000D01*
G01*
X110905000Y-50900000D01*
G75*
G02*
X110805000Y-51000000I-100000J0D01*
G01*
G37*
G36*
G01*
X110155000Y-51000000D02*
X109955000Y-51000000D01*
G75*
G02*
X109855000Y-50900000I0J100000D01*
G01*
X109855000Y-49625000D01*
G75*
G02*
X109955000Y-49525000I100000J0D01*
G01*
X110155000Y-49525000D01*
G75*
G02*
X110255000Y-49625000I0J-100000D01*
G01*
X110255000Y-50900000D01*
G75*
G02*
X110155000Y-51000000I-100000J0D01*
G01*
G37*
G36*
G01*
X109505000Y-51000000D02*
X109305000Y-51000000D01*
G75*
G02*
X109205000Y-50900000I0J100000D01*
G01*
X109205000Y-49625000D01*
G75*
G02*
X109305000Y-49525000I100000J0D01*
G01*
X109505000Y-49525000D01*
G75*
G02*
X109605000Y-49625000I0J-100000D01*
G01*
X109605000Y-50900000D01*
G75*
G02*
X109505000Y-51000000I-100000J0D01*
G01*
G37*
G36*
G01*
X108855000Y-51000000D02*
X108655000Y-51000000D01*
G75*
G02*
X108555000Y-50900000I0J100000D01*
G01*
X108555000Y-49625000D01*
G75*
G02*
X108655000Y-49525000I100000J0D01*
G01*
X108855000Y-49525000D01*
G75*
G02*
X108955000Y-49625000I0J-100000D01*
G01*
X108955000Y-50900000D01*
G75*
G02*
X108855000Y-51000000I-100000J0D01*
G01*
G37*
%TD*%
%TO.C,R8*%
G36*
G01*
X100675000Y-60887500D02*
X100675000Y-60412500D01*
G75*
G02*
X100912500Y-60175000I237500J0D01*
G01*
X101412500Y-60175000D01*
G75*
G02*
X101650000Y-60412500I0J-237500D01*
G01*
X101650000Y-60887500D01*
G75*
G02*
X101412500Y-61125000I-237500J0D01*
G01*
X100912500Y-61125000D01*
G75*
G02*
X100675000Y-60887500I0J237500D01*
G01*
G37*
G36*
G01*
X98850000Y-60887500D02*
X98850000Y-60412500D01*
G75*
G02*
X99087500Y-60175000I237500J0D01*
G01*
X99587500Y-60175000D01*
G75*
G02*
X99825000Y-60412500I0J-237500D01*
G01*
X99825000Y-60887500D01*
G75*
G02*
X99587500Y-61125000I-237500J0D01*
G01*
X99087500Y-61125000D01*
G75*
G02*
X98850000Y-60887500I0J237500D01*
G01*
G37*
%TD*%
%TO.C,R7*%
G36*
G01*
X100705000Y-55108926D02*
X100705000Y-54633926D01*
G75*
G02*
X100942500Y-54396426I237500J0D01*
G01*
X101442500Y-54396426D01*
G75*
G02*
X101680000Y-54633926I0J-237500D01*
G01*
X101680000Y-55108926D01*
G75*
G02*
X101442500Y-55346426I-237500J0D01*
G01*
X100942500Y-55346426D01*
G75*
G02*
X100705000Y-55108926I0J237500D01*
G01*
G37*
G36*
G01*
X98880000Y-55108926D02*
X98880000Y-54633926D01*
G75*
G02*
X99117500Y-54396426I237500J0D01*
G01*
X99617500Y-54396426D01*
G75*
G02*
X99855000Y-54633926I0J-237500D01*
G01*
X99855000Y-55108926D01*
G75*
G02*
X99617500Y-55346426I-237500J0D01*
G01*
X99117500Y-55346426D01*
G75*
G02*
X98880000Y-55108926I0J237500D01*
G01*
G37*
%TD*%
%TO.C,R6*%
G36*
G01*
X100705000Y-49344642D02*
X100705000Y-48869642D01*
G75*
G02*
X100942500Y-48632142I237500J0D01*
G01*
X101442500Y-48632142D01*
G75*
G02*
X101680000Y-48869642I0J-237500D01*
G01*
X101680000Y-49344642D01*
G75*
G02*
X101442500Y-49582142I-237500J0D01*
G01*
X100942500Y-49582142D01*
G75*
G02*
X100705000Y-49344642I0J237500D01*
G01*
G37*
G36*
G01*
X98880000Y-49344642D02*
X98880000Y-48869642D01*
G75*
G02*
X99117500Y-48632142I237500J0D01*
G01*
X99617500Y-48632142D01*
G75*
G02*
X99855000Y-48869642I0J-237500D01*
G01*
X99855000Y-49344642D01*
G75*
G02*
X99617500Y-49582142I-237500J0D01*
G01*
X99117500Y-49582142D01*
G75*
G02*
X98880000Y-49344642I0J237500D01*
G01*
G37*
%TD*%
%TO.C,R5*%
G36*
G01*
X100705000Y-52187500D02*
X100705000Y-51712500D01*
G75*
G02*
X100942500Y-51475000I237500J0D01*
G01*
X101442500Y-51475000D01*
G75*
G02*
X101680000Y-51712500I0J-237500D01*
G01*
X101680000Y-52187500D01*
G75*
G02*
X101442500Y-52425000I-237500J0D01*
G01*
X100942500Y-52425000D01*
G75*
G02*
X100705000Y-52187500I0J237500D01*
G01*
G37*
G36*
G01*
X98880000Y-52187500D02*
X98880000Y-51712500D01*
G75*
G02*
X99117500Y-51475000I237500J0D01*
G01*
X99617500Y-51475000D01*
G75*
G02*
X99855000Y-51712500I0J-237500D01*
G01*
X99855000Y-52187500D01*
G75*
G02*
X99617500Y-52425000I-237500J0D01*
G01*
X99117500Y-52425000D01*
G75*
G02*
X98880000Y-52187500I0J237500D01*
G01*
G37*
%TD*%
%TO.C,R4*%
G36*
G01*
X100705000Y-57966068D02*
X100705000Y-57491068D01*
G75*
G02*
X100942500Y-57253568I237500J0D01*
G01*
X101442500Y-57253568D01*
G75*
G02*
X101680000Y-57491068I0J-237500D01*
G01*
X101680000Y-57966068D01*
G75*
G02*
X101442500Y-58203568I-237500J0D01*
G01*
X100942500Y-58203568D01*
G75*
G02*
X100705000Y-57966068I0J237500D01*
G01*
G37*
G36*
G01*
X98880000Y-57966068D02*
X98880000Y-57491068D01*
G75*
G02*
X99117500Y-57253568I237500J0D01*
G01*
X99617500Y-57253568D01*
G75*
G02*
X99855000Y-57491068I0J-237500D01*
G01*
X99855000Y-57966068D01*
G75*
G02*
X99617500Y-58203568I-237500J0D01*
G01*
X99117500Y-58203568D01*
G75*
G02*
X98880000Y-57966068I0J237500D01*
G01*
G37*
%TD*%
%TO.C,R3*%
G36*
G01*
X100675000Y-63737500D02*
X100675000Y-63262500D01*
G75*
G02*
X100912500Y-63025000I237500J0D01*
G01*
X101412500Y-63025000D01*
G75*
G02*
X101650000Y-63262500I0J-237500D01*
G01*
X101650000Y-63737500D01*
G75*
G02*
X101412500Y-63975000I-237500J0D01*
G01*
X100912500Y-63975000D01*
G75*
G02*
X100675000Y-63737500I0J237500D01*
G01*
G37*
G36*
G01*
X98850000Y-63737500D02*
X98850000Y-63262500D01*
G75*
G02*
X99087500Y-63025000I237500J0D01*
G01*
X99587500Y-63025000D01*
G75*
G02*
X99825000Y-63262500I0J-237500D01*
G01*
X99825000Y-63737500D01*
G75*
G02*
X99587500Y-63975000I-237500J0D01*
G01*
X99087500Y-63975000D01*
G75*
G02*
X98850000Y-63737500I0J237500D01*
G01*
G37*
%TD*%
%TO.C,R2*%
G36*
G01*
X100675000Y-46487500D02*
X100675000Y-46012500D01*
G75*
G02*
X100912500Y-45775000I237500J0D01*
G01*
X101412500Y-45775000D01*
G75*
G02*
X101650000Y-46012500I0J-237500D01*
G01*
X101650000Y-46487500D01*
G75*
G02*
X101412500Y-46725000I-237500J0D01*
G01*
X100912500Y-46725000D01*
G75*
G02*
X100675000Y-46487500I0J237500D01*
G01*
G37*
G36*
G01*
X98850000Y-46487500D02*
X98850000Y-46012500D01*
G75*
G02*
X99087500Y-45775000I237500J0D01*
G01*
X99587500Y-45775000D01*
G75*
G02*
X99825000Y-46012500I0J-237500D01*
G01*
X99825000Y-46487500D01*
G75*
G02*
X99587500Y-46725000I-237500J0D01*
G01*
X99087500Y-46725000D01*
G75*
G02*
X98850000Y-46487500I0J237500D01*
G01*
G37*
%TD*%
%TO.C,R1*%
G36*
G01*
X100655000Y-43637500D02*
X100655000Y-43162500D01*
G75*
G02*
X100892500Y-42925000I237500J0D01*
G01*
X101392500Y-42925000D01*
G75*
G02*
X101630000Y-43162500I0J-237500D01*
G01*
X101630000Y-43637500D01*
G75*
G02*
X101392500Y-43875000I-237500J0D01*
G01*
X100892500Y-43875000D01*
G75*
G02*
X100655000Y-43637500I0J237500D01*
G01*
G37*
G36*
G01*
X98830000Y-43637500D02*
X98830000Y-43162500D01*
G75*
G02*
X99067500Y-42925000I237500J0D01*
G01*
X99567500Y-42925000D01*
G75*
G02*
X99805000Y-43162500I0J-237500D01*
G01*
X99805000Y-43637500D01*
G75*
G02*
X99567500Y-43875000I-237500J0D01*
G01*
X99067500Y-43875000D01*
G75*
G02*
X98830000Y-43637500I0J237500D01*
G01*
G37*
%TD*%
%TO.C,C2*%
G36*
G01*
X62500000Y-107462500D02*
X62500000Y-107937500D01*
G75*
G02*
X62262500Y-108175000I-237500J0D01*
G01*
X61662500Y-108175000D01*
G75*
G02*
X61425000Y-107937500I0J237500D01*
G01*
X61425000Y-107462500D01*
G75*
G02*
X61662500Y-107225000I237500J0D01*
G01*
X62262500Y-107225000D01*
G75*
G02*
X62500000Y-107462500I0J-237500D01*
G01*
G37*
G36*
G01*
X60775000Y-107462500D02*
X60775000Y-107937500D01*
G75*
G02*
X60537500Y-108175000I-237500J0D01*
G01*
X59937500Y-108175000D01*
G75*
G02*
X59700000Y-107937500I0J237500D01*
G01*
X59700000Y-107462500D01*
G75*
G02*
X59937500Y-107225000I237500J0D01*
G01*
X60537500Y-107225000D01*
G75*
G02*
X60775000Y-107462500I0J-237500D01*
G01*
G37*
%TD*%
%TO.C,C1*%
G36*
G01*
X62500000Y-114862500D02*
X62500000Y-115337500D01*
G75*
G02*
X62262500Y-115575000I-237500J0D01*
G01*
X61662500Y-115575000D01*
G75*
G02*
X61425000Y-115337500I0J237500D01*
G01*
X61425000Y-114862500D01*
G75*
G02*
X61662500Y-114625000I237500J0D01*
G01*
X62262500Y-114625000D01*
G75*
G02*
X62500000Y-114862500I0J-237500D01*
G01*
G37*
G36*
G01*
X60775000Y-114862500D02*
X60775000Y-115337500D01*
G75*
G02*
X60537500Y-115575000I-237500J0D01*
G01*
X59937500Y-115575000D01*
G75*
G02*
X59700000Y-115337500I0J237500D01*
G01*
X59700000Y-114862500D01*
G75*
G02*
X59937500Y-114625000I237500J0D01*
G01*
X60537500Y-114625000D01*
G75*
G02*
X60775000Y-114862500I0J-237500D01*
G01*
G37*
%TD*%
M02*
