M48
; DRILL file {KiCad (5.1.9-0-10_14)} date Wednesday, March 10, 2021 at 08:21:31 PM
; FORMAT={-:-/ absolute / metric / decimal}
; #@! TF.CreationDate,2021-03-10T20:21:31+01:00
; #@! TF.GenerationSoftware,Kicad,Pcbnew,(5.1.9-0-10_14)
FMAT,2
METRIC
T1C0.300
T2C0.500
T3C0.700
T4C0.800
T5C0.850
T6C1.000
T7C1.300
T8C1.152
%
G90
G05
T1
X57.8Y-53.17
X57.81Y-54.11
X58.3Y-111.4
X58.3Y-112.4
X58.86Y-113.21
X63.4Y-110.1
X63.4Y-111.7
X67.6Y-53.3
X67.7Y-50.4
X68.8Y-50.4
X68.8Y-53.3
X71.0Y-45.0
X75.0Y-45.0
X75.4Y-93.7
X76.0Y-45.0
X79.0Y-45.0
X80.6Y-97.6
X81.0Y-45.0
X82.2Y-97.6
X85.0Y-45.0
X86.0Y-45.0
X86.0Y-48.0
X87.0Y-45.0
X87.0Y-48.0
X87.1Y-94.6
X88.0Y-48.0
X88.0Y-54.0
X88.0Y-57.0
X88.0Y-60.0
X89.0Y-54.0
X89.0Y-57.0
X89.0Y-60.0
X89.4Y-107.85
X90.0Y-54.0
X90.0Y-57.0
X90.0Y-60.0
X90.3Y-92.8
X90.3Y-107.85
X99.1Y-97.6
X100.3Y-93.7
X100.3Y-97.6
X105.24Y-51.37
X105.24Y-52.19
X105.9Y-50.284
X109.58Y-52.13
X110.743Y-57.48
X110.743Y-60.23
X110.743Y-62.93
X112.0Y-94.6
X113.55Y-48.7
X115.2Y-92.4
X115.95Y-48.8
X115.95Y-52.4
X117.9Y-101.15
X118.85Y-101.15
X119.05Y-77.1
X119.1Y-74.55
X123.7Y-109.0
X123.75Y-107.15
X124.55Y-107.15
X124.55Y-109.0
T2
X56.3Y-110.4
X58.3Y-110.4
X63.4Y-107.8
X63.6Y-115.1
X73.0Y-110.6
X104.2Y-43.8
X104.2Y-44.9
X107.6Y-44.55
T3
X69.9Y-47.6
X72.44Y-47.6
X72.44Y-61.6
X74.98Y-47.6
X74.98Y-61.6
X77.52Y-47.6
X77.52Y-61.6
X80.06Y-47.6
X80.06Y-61.6
X82.6Y-47.6
X82.6Y-61.6
T4
X69.9Y-61.6
T5
X54.262Y-109.2
X54.262Y-114.2
T6
X77.65Y-89.87
X77.65Y-92.41
X77.65Y-94.95
X77.65Y-97.49
X77.9Y-80.8
X80.44Y-80.8
X82.98Y-80.8
X85.3Y-89.88
X85.3Y-92.42
X85.3Y-94.96
X85.3Y-97.5
X85.52Y-80.8
X102.55Y-89.97
X102.55Y-92.51
X102.55Y-95.05
X102.55Y-97.59
X102.8Y-80.9
X105.34Y-80.9
X106.68Y-56.12
X106.68Y-58.66
X106.68Y-61.2
X106.68Y-63.74
X107.88Y-80.9
X110.2Y-89.98
X110.2Y-92.52
X110.2Y-95.06
X110.2Y-97.6
X110.42Y-80.9
X114.3Y-56.12
X114.3Y-58.66
X114.3Y-61.2
X114.3Y-63.74
X124.7Y-56.16
X124.7Y-58.7
X124.7Y-61.24
X124.7Y-63.78
X125.2Y-74.3
X125.2Y-76.84
X125.2Y-79.38
X125.2Y-81.92
X125.2Y-84.46
X125.25Y-90.9
X125.25Y-93.44
X125.25Y-95.98
X125.25Y-98.52
X132.31Y-56.16
X132.31Y-58.7
X132.31Y-61.24
X132.31Y-63.78
T7
X51.562Y-108.2
X51.562Y-115.2
T8
X53.0Y-43.0
X53.0Y-118.0
X147.0Y-118.0
T0
M30
